<svg id="Layer_1" data-name="Layer 1" xmlns="http://www.w3.org/2000/svg" viewBox="0 0 9000 6000"><defs><style>.cls-1,.cls-14{fill:#3071d8;}.cls-1{opacity:0.11;}.cls-18,.cls-2{fill:#0b327d;}.cls-20,.cls-3{fill:#4f89f4;}.cls-4{fill:#e8e8e8;}.cls-5{opacity:0.09;}.cls-13,.cls-6,.cls-7,.cls-8,.cls-9{fill:#fff;}.cls-6{opacity:0.31;}.cls-7{opacity:0.41;}.cls-8{opacity:0.63;}.cls-9{opacity:0.81;}.cls-10,.cls-17{fill:#eba231;}.cls-11{fill:#dfe6ef;}.cls-12{opacity:0.14;}.cls-14{opacity:0.61;}.cls-15{fill:#94c0ff;}.cls-16{fill:#7baeff;}.cls-17{opacity:0.2;}.cls-18{font-size:209px;}.cls-18,.cls-20{font-family:Oswald-Bold, Oswald;font-weight:700;}.cls-19{letter-spacing:-0.01em;}.cls-20{font-size:144px;}</style></defs><path class="cls-1" d="M7409.53,5401.82q-24.63,44.9-50.83,89.78H1715.31q-16.49-45.43-32.32-89.78c-643.25-1805.21-423.68-2091.39-133.74-2305.46,588.54-434.61,1835.08,586.74,2974.64-12,555-291.55,552.1-790.25,1242.42-1027.39,486.28-167,1100.44-130,1493.3,143.36C7955.66,2684.68,8155,4048.84,7409.53,5401.82Z"/><polygon class="cls-2" points="4969.68 5401.08 4637.71 5401.08 4694.95 4376.56 4906.72 4376.56 4969.68 5401.08"/><path class="cls-3" d="M6492.15,2630.3V4679.57a119.12,119.12,0,0,1-4.75,33.42c-.46,1.49-.92,3-1.38,4.52s-1,2.81-1.43,4.18a1.83,1.83,0,0,0-.28.69c-.52,1.32-1,2.63-1.6,3.89-.75,1.83-1.61,3.72-2.47,5.5-1.2,2.57-2.51,5-3.89,7.44-.68,1.2-1.37,2.4-2.12,3.55-.8,1.31-1.66,2.57-2.51,3.89-1.09,1.66-2.29,3.26-3.5,4.86s-2.4,3.09-3.66,4.64c-2.52,3-5.21,5.89-8,8.64-.86.92-1.78,1.77-2.69,2.58a98.38,98.38,0,0,1-7.56,6.35q-2.15,1.71-4.46,3.26c-1.37,1-2.75,1.89-4.18,2.81a107,107,0,0,1-14.14,7.55c-.8.4-1.66.75-2.51,1.09-1.21.57-2.47,1-3.73,1.49s-2.69,1-4.06,1.43c-1.89.63-3.78,1.26-5.67,1.71-2.11.63-4.29,1.15-6.52,1.61-1.83.4-3.72.74-5.61,1-.11,0-.29.06-.4.06-.86.17-1.77.28-2.69.4s-1.72.22-2.63.28c-1.78.23-3.61.35-5.38.4-.86.06-1.72.12-2.58.12-.63.05-1.2.05-1.83.05s-1.26.06-1.89.06H3223.65a109.92,109.92,0,0,1-17.4-1.37c-1.89-.29-3.78-.63-5.61-1a83,83,0,0,1-9.27-2.41,37.8,37.8,0,0,1-4.41-1.43,2.67,2.67,0,0,1-1-.34c-1.49-.52-3-1.09-4.47-1.72s-2.8-1.14-4.18-1.77l-1.54-.69c-1.15-.57-2.23-1.14-3.32-1.66a109.86,109.86,0,0,1-12.71-7.73,45.3,45.3,0,0,1-3.95-2.86c-.91-.68-1.83-1.37-2.74-2.17s-1.84-1.49-2.75-2.29a114.34,114.34,0,0,1-20.89-23.64c-.86-1.37-1.78-2.75-2.58-4.18a21.61,21.61,0,0,1-1.6-2.69c-.63-1.09-1.26-2.12-1.78-3.2a6.65,6.65,0,0,1-.51-1c-.74-1.31-1.37-2.63-2-4a5.57,5.57,0,0,1-.46-1.09,35.73,35.73,0,0,1-1.78-4,12.32,12.32,0,0,1-.51-1.2c-.52-1.14-.92-2.35-1.37-3.55a26.84,26.84,0,0,1-1-3c-.52-1.49-1-3-1.43-4.53s-.86-3.09-1.27-4.63c-.34-1.38-.68-2.81-1-4.24-.23-.91-.4-1.89-.57-2.86-.46-2.52-.86-5-1.15-7.55-.17-1.15-.28-2.29-.39-3.44,0-.17-.06-.4-.06-.57-.12-1.55-.23-3.09-.29-4.64-.11-2-.17-4.06-.17-6.06V2630.3c0-52.71,33.65-97.3,80.13-112.24a111.31,111.31,0,0,1,34-5.27H6378C6441.1,2512.79,6492.15,2565.39,6492.15,2630.3Z"/><path class="cls-4" d="M6492.15,3043.88V4679.57a119.12,119.12,0,0,1-4.75,33.42c-.46,1.49-.92,3-1.38,4.52s-1,2.81-1.43,4.18a1.83,1.83,0,0,0-.28.69c-.52,1.32-1,2.63-1.6,3.89-.75,1.83-1.61,3.72-2.47,5.5-1.2,2.57-2.51,5-3.89,7.44-.68,1.2-1.37,2.4-2.12,3.55-.8,1.31-1.66,2.57-2.51,3.89-1.09,1.66-2.29,3.26-3.5,4.86s-2.4,3.09-3.66,4.64c-2.52,3-5.21,5.89-8,8.64-.86.92-1.78,1.77-2.69,2.58a98.38,98.38,0,0,1-7.56,6.35q-2.15,1.71-4.46,3.26c-1.37,1-2.75,1.89-4.18,2.81a107,107,0,0,1-14.14,7.55c-.8.4-1.66.75-2.51,1.09-1.21.57-2.47,1-3.73,1.49s-2.69,1-4.06,1.43c-1.89.63-3.78,1.26-5.67,1.71-2.11.63-4.29,1.15-6.52,1.61-1.83.4-3.72.74-5.61,1-.11,0-.29.06-.4.06-.86.17-1.77.28-2.69.4s-1.72.22-2.63.28c-1.78.23-3.61.35-5.38.4-.86.06-1.72.12-2.58.12-.63.05-1.2.05-1.83.05s-1.26.06-1.89.06H3223.65a109.92,109.92,0,0,1-17.4-1.37c-1.89-.29-3.78-.63-5.61-1a83,83,0,0,1-9.27-2.41,37.8,37.8,0,0,1-4.41-1.43,2.67,2.67,0,0,1-1-.34c-1.49-.52-3-1.09-4.47-1.72s-2.8-1.14-4.18-1.77l-1.54-.69c-1.15-.57-2.23-1.14-3.32-1.66a109.86,109.86,0,0,1-12.71-7.73,45.3,45.3,0,0,1-3.95-2.86c-.91-.68-1.83-1.37-2.74-2.17s-1.84-1.49-2.75-2.29a114.34,114.34,0,0,1-20.89-23.64c-.86-1.37-1.78-2.75-2.58-4.18a21.61,21.61,0,0,1-1.6-2.69c-.63-1.09-1.26-2.12-1.78-3.2a6.65,6.65,0,0,1-.51-1c-.74-1.31-1.37-2.63-2-4a5.57,5.57,0,0,1-.46-1.09,35.73,35.73,0,0,1-1.78-4,12.32,12.32,0,0,1-.51-1.2c-.52-1.14-.92-2.35-1.37-3.55a26.84,26.84,0,0,1-1-3c-.52-1.49-1-3-1.43-4.53s-.86-3.09-1.27-4.63c-.34-1.38-.68-2.81-1-4.24-.23-.91-.4-1.89-.57-2.86-.46-2.52-.86-5-1.15-7.55-.17-1.15-.28-2.29-.39-3.44,0-.17-.06-.4-.06-.57-.12-1.55-.23-3.09-.29-4.64-.11-2-.17-4.06-.17-6.06V3043.88Z"/><path class="cls-4" d="M6492.15,3043.88V4679.57a119.12,119.12,0,0,1-4.75,33.42,109.5,109.5,0,0,1-29.25,3.95H3303.78c-2,0-4-.06-5.9-.17s-3.83-.23-5.78-.46-4-.46-6-.8c-1.77-.23-3.55-.57-5.32-1s-3.72-.8-5.55-1.32c-1.32-.34-2.64-.69-3.95-1.14-.92-.23-1.78-.52-2.63-.8-1.44-.46-2.81-1-4.18-1.49s-2.92-1.15-4.41-1.78c-.92-.4-1.89-.8-2.8-1.26a37.4,37.4,0,0,1-3.55-1.71,82.13,82.13,0,0,1-7.56-4.18c-.86-.52-1.72-1-2.57-1.6-1.84-1.15-3.61-2.35-5.33-3.67a12.23,12.23,0,0,1-1.83-1.31c-1.77-1.38-3.55-2.75-5.26-4.18l-.06-.06c-2-1.66-3.89-3.43-5.73-5.27a72.77,72.77,0,0,1-5.38-5.6c-1.77-1.95-3.43-3.95-5-6s-3.15-4.18-4.64-6.36a117.34,117.34,0,0,1-7.95-13.56,59,59,0,0,1-2.87-6.13c-.85-1.88-1.6-3.77-2.34-5.72-1-2.63-1.89-5.32-2.63-8.07-.58-1.89-1.09-3.83-1.55-5.78-.57-2.23-1-4.52-1.43-6.81s-.75-4.58-1-6.87v-.17c-.29-2-.46-4.07-.57-6.13-.18-2.69-.29-5.38-.29-8.12V3043.88Z"/><path class="cls-5" d="M6487.4,4713c-.46,1.49-.92,3-1.38,4.52s-1,2.81-1.43,4.18a1.83,1.83,0,0,0-.28.69c-.52,1.32-1,2.63-1.6,3.89-.75,1.83-1.61,3.72-2.47,5.5-1.2,2.57-2.51,5-3.89,7.44-.68,1.2-1.37,2.4-2.12,3.55-.8,1.31-1.66,2.57-2.51,3.89-1.09,1.66-2.29,3.26-3.5,4.86s-2.4,3.09-3.66,4.64c-2.52,3-5.21,5.89-8,8.64-.86.92-1.78,1.77-2.69,2.58a98.38,98.38,0,0,1-7.56,6.35q-2.15,1.71-4.46,3.26c-1.37,1-2.75,1.89-4.18,2.81a107,107,0,0,1-14.14,7.55c-.8.4-1.66.75-2.51,1.09-1.21.57-2.47,1-3.73,1.49s-2.69,1-4.06,1.43c-1.89.63-3.78,1.26-5.67,1.71-2.11.63-4.29,1.15-6.52,1.61-1.83.4-3.72.74-5.61,1-.11,0-.29.06-.4.06-.86.17-1.77.28-2.69.4s-1.72.22-2.63.28c-1.78.23-3.61.35-5.38.4-.86.06-1.72.12-2.58.12-.63.05-1.2.05-1.83.05s-1.26.06-1.89.06H3223.65a109.92,109.92,0,0,1-17.4-1.37c-1.89-.29-3.78-.63-5.61-1a83,83,0,0,1-9.27-2.41,37.8,37.8,0,0,1-4.41-1.43,2.67,2.67,0,0,1-1-.34c-1.49-.52-3-1.09-4.47-1.72s-2.8-1.14-4.18-1.77l-1.54-.69c-1.15-.57-2.23-1.14-3.32-1.66a109.86,109.86,0,0,1-12.71-7.73,45.3,45.3,0,0,1-3.95-2.86c-.91-.68-1.83-1.37-2.74-2.17s-1.84-1.49-2.75-2.29a114.34,114.34,0,0,1-20.89-23.64c-.86-1.37-1.78-2.75-2.58-4.18a21.61,21.61,0,0,1-1.6-2.69c-.63-1.09-1.26-2.12-1.78-3.2a6.65,6.65,0,0,1-.51-1c-.74-1.31-1.37-2.63-2-4a5.57,5.57,0,0,1-.46-1.09,35.73,35.73,0,0,1-1.78-4,12.32,12.32,0,0,1-.51-1.2c-.52-1.14-.92-2.35-1.37-3.55a26.84,26.84,0,0,1-1-3c-.52-1.49-1-3-1.43-4.53s-.86-3.09-1.27-4.63c-.34-1.38-.68-2.81-1-4.24-.23-.91-.4-1.89-.57-2.86-.46-2.52-.86-5-1.15-7.55-.17-1.15-.28-2.29-.39-3.44,0-.17-.06-.4-.06-.57-.12-1.55-.23-3.09-.29-4.64-.11-2-.17-4.06-.17-6.06V2630.3c0-52.71,33.65-97.3,80.13-112.24V4599.44c0,2.74.11,5.43.29,8.12.11,2.06.28,4.12.57,6.13v.17c.28,2.29.63,4.58,1,6.87s.86,4.58,1.43,6.81a48.31,48.31,0,0,0,1.55,5.78c.74,2.75,1.66,5.44,2.63,8.07.68,1.95,1.49,3.84,2.34,5.72a59,59,0,0,0,2.87,6.13,100.68,100.68,0,0,0,7.95,13.56q2.14,3.27,4.64,6.36c1.54,2.06,3.26,4.06,5,6a72.77,72.77,0,0,0,5.38,5.6c1.84,1.84,3.78,3.61,5.73,5.27l.06.06c1.71,1.49,3.49,2.86,5.26,4.18a12.23,12.23,0,0,0,1.83,1.31c1.72,1.32,3.49,2.52,5.33,3.67.85.57,1.71,1.14,2.57,1.6a82.13,82.13,0,0,0,7.56,4.18,37.4,37.4,0,0,0,3.55,1.71c.91.46,1.88.86,2.8,1.26,1.49.63,2.92,1.2,4.41,1.78s2.74,1,4.18,1.49c.85.28,1.71.57,2.63.8,1.31.45,2.63.8,3.95,1.14,1.83.52,3.66.92,5.55,1.32s3.55.74,5.32,1c2,.34,4,.63,6,.8s3.84.4,5.78.46,3.95.17,5.9.17H6458.15A109.5,109.5,0,0,0,6487.4,4713Z"/><circle class="cls-6" cx="3416.13" cy="2794.78" r="86.14"/><circle class="cls-7" cx="3645.7" cy="2794.78" r="86.14"/><circle class="cls-8" cx="3896.03" cy="2794.78" r="86.14"/><rect class="cls-9" x="3292.67" y="3197.05" width="1467.67" height="864.26" rx="8.55"/><rect class="cls-9" x="4835.61" y="3197.05" width="1467.67" height="394.93" rx="3.88"/><rect class="cls-9" x="4835.61" y="3643.49" width="1467.67" height="394.93" rx="3.88"/><rect class="cls-9" x="3284.52" y="4204.4" width="3013.03" height="146.04" rx="12.22"/><rect class="cls-9" x="3283.64" y="4464.73" width="3013.03" height="146.04" rx="12.22"/><path class="cls-10" d="M6492.15,2966.73V3334l-188.88,75.73-17.8,7.15-81.22,32.57L5848.82,3592l-40.12,16.09v.05l-88.2,35.38-276.79,111-93.47,37.43-51.11,20.55h-.06l-52.48,21.06h-.12L5195,3854.17l-228.08,91.46v.06l-131.25,52.6L4799.12,4013h-.06l-42,16.77-34.52,13.91h-.05l-44,17.63-1.14.45L4584,4099.2l-90,36.11-172.23,69.09h-.11l-214.4,86v.06l-149.79,60-215.26,86.31-69.6,27.93h-.06l-148.18,59.41-198.73,79.68h0l-60.16,24.15v.06l-63,25.24-92.38,37c-.12-1.55-.23-3.09-.29-4.64-.11-2-.17-4.06-.17-6.06V4323.16l80.13-32.11,99.82-40,116.3-46.64,7.16-2.87v-.05l349.53-140.17h.12l143.89-57.7L4254.75,3864l20.89-8.42,80.13-32.1L4748.29,3666l12-4.81,42.93-17.23,58-23.24L4933,3592l17.57-7,163.93-65.76L5608,3321.25l309.82-124.2,38.4-15.4v-.06l343.42-137.71,150.18-60.21Z"/><polygon class="cls-11" points="3906.49 4003.58 3742.15 4436.79 3265.36 4627.99 3412.93 4201.51 3906.49 4003.58"/><polygon class="cls-11" points="4748.29 3666.04 4611.1 4027.71 4583.97 4099.2 4493.94 4135.31 4107.19 4290.42 4107.19 4290.36 4254.75 3863.96 4275.64 3855.55 4748.29 3666.04"/><polygon class="cls-11" points="5608.03 3321.25 5443.71 3754.47 5350.3 3791.95 4966.88 3945.69 4966.88 3945.63 5070.24 3646.92 5114.49 3519.17 5608.03 3321.25"/><polygon class="cls-12" points="5304.51 3814.85 4966.88 3945.69 4723.57 4044.14 4305.75 3843.81 4748.29 3666.04 4860.93 3620.59 5304.45 3814.79 5304.51 3814.85"/><polygon class="cls-11" points="6449.83 2983.69 6285.49 3416.9 5808.7 3608.09 5956.27 3181.61 6449.83 2983.69"/><path class="cls-10" d="M6492.15,4366.09v313.48a119.12,119.12,0,0,1-4.75,33.42c-.46,1.49-.92,3-1.38,4.52s-1,2.81-1.43,4.18a1.83,1.83,0,0,0-.28.69c-.52,1.32-1,2.63-1.6,3.89-.75,1.83-1.61,3.72-2.47,5.5l-34.74-14.83-248.29-106.17-55.11-23.58L5855.63,4464.7h-.06l-185.84-79.5-81.33-34.74-280.29-119.85-61.3-26.21h-.05l-388.17-166L4841.3,4031l-5.5-2.35-36-15.39-.68-.29h-.06l-38.75-16.6-118.19-50.54-185.67-79.38-100.34-42.87h0l-.29-.17-371.63-158.89L3622.58,3510h-.06l-329.85-141v-.06l-103-44L3150.16,3308l-40.64-17.4V2919.86l80.13,34.28,209.94,89.74,156.48,66.91,201.76,86.26L4045,3319.82h.06l345,147.49h.05l370.26,158.32,42.76,18.31h.05l.12.06,33.65,14.37,42.07,18,157.74,67.42,205,87.63h.06l4.75,2.06h.06l.06.06,4.57,1.94h.06l474.49,202.9,5,2.12,345,147.5,38.3,16.37,183.38,78.41Z"/><polygon class="cls-11" points="4045.03 3319.82 3622.5 3509.93 3150.16 3307.99 3556.08 3110.77 4045.03 3319.82"/><polygon class="cls-11" points="4878.98 3676.37 4456.45 3866.49 3984.11 3664.54 4390.02 3467.32 4878.98 3676.37"/><polygon class="cls-11" points="5730.67 4040.51 5308.14 4230.62 4835.8 4028.68 5241.72 3831.45 5730.67 4040.51"/><polygon class="cls-11" points="6492.15 4366.09 6492.15 4429.68 6294.17 4518.73 6142.1 4587.19 5855.63 4464.7 5855.57 4464.7 5669.73 4385.2 5741.27 4350.46 6041.93 4204.4 6075.65 4188.03 6113.94 4204.4 6297.32 4282.81 6492.15 4366.09"/><path class="cls-2" d="M5181.45,5402.52H4431.66l8.83-15.63a419.64,419.64,0,0,1,365.41-213.31h0a419.62,419.62,0,0,1,356.47,198.23Z"/><rect class="cls-4" x="1858.01" y="4666.23" width="107.14" height="727.04"/><rect class="cls-4" x="2574.17" y="4666.23" width="103.32" height="727.04"/><path class="cls-10" d="M1999.49,4658.58l-95.66,80.36H2071.7l96-80.36ZM1643,4479v129.6l80.35-65.39V4415Zm0-436.53v696.43H2871.29V4042.51Zm1147.95,616.07H1723.33V4122.87h1067.6Z"/><rect class="cls-13" x="1739.83" y="4122.87" width="1067.6" height="535.71"/><polygon class="cls-11" points="1642.98 4381.16 1723.33 4317.18 1723.33 4415.02 1642.98 4479.04 1642.98 4381.16"/><polygon class="cls-11" points="2191.01 4042.51 2090.14 4122.87 1967.27 4122.87 2068.14 4042.51 2191.01 4042.51"/><polygon class="cls-11" points="1926.94 4042.51 1825.96 4122.87 1723.33 4122.87 1723.33 4204.52 1642.98 4268.47 1642.98 4170.62 1804.04 4042.51 1926.94 4042.51"/><polygon class="cls-11" points="1642.98 4608.64 1723.33 4543.25 1723.33 4641.9 1642.98 4707.29 1642.98 4608.64"/><polygon class="cls-11" points="2459.9 4042.51 2361.18 4122.87 2239.95 4122.87 2338.68 4042.51 2459.9 4042.51"/><polygon class="cls-11" points="1880.49 4658.58 1999.49 4658.58 1903.83 4738.94 1784.83 4738.94 1880.49 4658.58"/><polygon class="cls-11" points="2732.77 4042.51 2637.11 4122.87 2518.14 4122.87 2613.8 4042.51 2732.77 4042.51"/><polygon class="cls-11" points="2476.81 4658.58 2595.93 4658.58 2500.12 4738.94 2380.96 4738.94 2476.81 4658.58"/><polygon class="cls-11" points="2871.29 4327.82 2871.29 4427.69 2790.93 4495.07 2790.93 4395.2 2871.29 4327.82"/><polygon class="cls-11" points="2871.29 4549.1 2871.29 4651.08 2771.61 4738.94 2655.89 4738.94 2747.04 4658.58 2790.93 4658.58 2790.93 4619.93 2871.29 4549.1"/><polygon class="cls-11" points="2167.71 4658.58 2286.94 4658.58 2190.93 4738.94 2071.7 4738.94 2167.71 4658.58"/><polygon class="cls-11" points="2871.29 4069.56 2871.29 4169.44 2790.93 4236.71 2790.93 4136.83 2871.29 4069.56"/><path class="cls-14" d="M7936,5440.77a44.86,44.86,0,0,1-44.86,44.86H1032a44.89,44.89,0,0,1,0-89.78H7891.09A44.89,44.89,0,0,1,7936,5440.77Z"/><path class="cls-3" d="M7045.67,4371.81c-52.91,73.21,12.78,120.68-40.13,193.9s-118.61,25.74-171.52,99,12.78,120.69-40.13,193.91-118.61,25.75-171.53,99,12.78,120.69-40.14,193.92l.84,15.51,354.44,34.26c-3.22-14.17-3.74-30.27.62-49.86,19.62-88.19,98.74-70.58,118.36-158.77s-59.5-105.78-39.88-194,98.74-70.58,118.36-158.76-59.5-105.77-39.88-193.95c19.57-88,98.66-70.24,118.36-158.75l3.74-14.35C7164.27,4346.07,7098.58,4298.59,7045.67,4371.81Z"/><path class="cls-15" d="M6104.24,4350.45c64.22,79.33-6.95,136.95,57.27,216.27s135.39,21.71,199.61,101-6.95,136.95,57.27,216.27,135.4,21.72,199.63,101-7,137,57.28,216.29l0,17.55-397.74,60.58c2.75-16.19,2.34-34.38-3.78-56.21-27.6-98.28-115.76-73.52-143.35-171.8s60.57-123,33-221.28-115.75-73.51-143.34-171.77,60.58-123,33-221.28c-27.52-98-115.65-73.13-143.34-171.76l-5.11-16C5968.85,4328.75,6040,4271.13,6104.24,4350.45Z"/><path class="cls-16" d="M6696.34,4329.62c16.81,106-78.28,121.08-61.47,227.07s111.92,90.9,128.74,196.9-78.29,121.08-61.47,227.07,111.92,90.92,128.74,196.92-72.56,81-55.74,187l-9.21,16-399.82-113.73c11-13.29,20.2-30.08,26.09-53.18,26.5-104-66.81-127.79-40.31-231.8s119.81-80.21,146.31-184.21-66.81-127.77-40.31-231.77,119.8-80.22,146.3-184.21c26.43-103.74-66.91-127.37-40.32-231.76l3.74-17.22C6584.42,4238.72,6679.52,4223.63,6696.34,4329.62Z"/><path class="cls-2" d="M6028.54,5393H7247.66s-211.77-400.65-538-383.48-412.09,240.39-412.09,240.39-251.84-97.3-269,160.26"/><path class="cls-3" d="M3675.61,4728.22c-34.44,47.66,8.32,78.57-26.12,126.23s-77.22,16.76-111.66,64.43,8.32,78.57-26.13,126.23-77.21,16.77-111.66,64.44,8.31,78.57-26.14,126.24l.55,10.1,230.74,22.31c-2.09-9.23-2.43-19.71.41-32.46,12.77-57.42,64.28-46,77.05-103.37s-38.73-68.86-26-126.27,64.28-45.94,77-103.35-38.73-68.86-26-126.27c12.74-57.26,64.23-45.72,77-103.34l2.44-9.34C3752.82,4711.46,3710.06,4680.55,3675.61,4728.22Z"/><path class="cls-15" d="M3062.73,4714.31c41.81,51.64-4.53,89.16,37.28,140.8s88.14,14.13,129.95,65.77-4.52,89.15,37.28,140.8,88.15,14.13,130,65.78-4.52,89.16,37.29,140.81v11.42l-258.94,39.44c1.8-10.54,1.53-22.38-2.46-36.59-18-64-75.36-47.87-93.32-111.85s39.44-80.08,21.47-144-75.35-47.86-93.31-111.83,39.43-80.08,21.47-144.05-75.29-47.61-93.31-111.82l-3.33-10.39C2974.59,4700.19,3020.92,4662.67,3062.73,4714.31Z"/><path class="cls-16" d="M3448.19,4700.75c10.95,69-51,78.83-40,147.83s72.86,59.18,83.8,128.18-51,78.83-40,147.83,72.86,59.19,83.81,128.2-47.24,52.75-36.29,121.76l-6,10.41-260.29-74c7.17-8.65,13.15-19.58,17-34.62,17.26-67.71-43.49-83.19-26.24-150.9s78-52.23,95.25-119.93-43.49-83.18-26.24-150.88,78-52.23,95.24-119.93c17.21-67.53-43.56-82.92-26.24-150.87l2.43-11.21C3375.33,4641.58,3437.25,4631.75,3448.19,4700.75Z"/><path class="cls-2" d="M3013.45,5393h793.66s-137.86-260.83-350.25-249.65-268.29,156.5-268.29,156.5-163.94-63.35-175.12,104.33"/><path class="cls-10" d="M2498,2137s11.27-274.39,169.14-199.21,109,169.14,109,169.14,184.18-37.59,206.73,37.58,0,105.25,0,105.25,127.64-24.05,191.62,42.47,199.29,51.5,199.29,51.5L1922.89,2340s97.72-78.94,169.14-60.14,203,63.9,218-22.55,30.07-150.35,86.45-127.8S2498,2137,2498,2137Z"/><path class="cls-10" d="M6416.37,1844.32s11.28-274.38,169.14-199.21,109,169.14,109,169.14,184.18-37.59,206.73,37.59,0,105.24,0,105.24,127.64-24,191.62,42.48,199.29,51.49,199.29,51.49l-1450.86-3.76s97.72-78.93,169.14-60.14,203,63.9,218-22.55,30.07-150.35,86.45-127.8S6416.37,1844.32,6416.37,1844.32Z"/><path class="cls-17" d="M4576.63,1503.85s11.28-274.39,169.14-199.21,109,169.14,109,169.14,184.17-37.59,206.73,37.59,0,105.24,0,105.24,127.64-24,191.61,42.48,199.29,51.49,199.29,51.49l-1450.86-3.76s97.73-78.93,169.14-60.14,203,63.9,218-22.55,30.07-150.35,86.45-127.8S4576.63,1503.85,4576.63,1503.85Z"/><path class="cls-17" d="M1261.52,3469s11.28-274.38,169.14-199.21,109,169.15,109,169.15,184.18-37.59,206.73,37.58,0,105.25,0,105.25S1874,3557.74,1938,3624.26s199.29,51.49,199.29,51.49L686.44,3672s97.72-78.94,169.14-60.14,203,63.89,218-22.56S1103.65,3439,1160,3461.51,1261.52,3469,1261.52,3469Z"/><text class="cls-18" transform="translate(1767.82 4367.92)">403 ER<tspan class="cls-19" x="604.21" y="0">R</tspan><tspan x="727.93" y="0">OR</tspan></text><text class="cls-20" transform="translate(1911.09 4560.13)">FORBIDDEN</text></svg>