<svg id="Layer_1" data-name="Layer 1" xmlns="http://www.w3.org/2000/svg" viewBox="0 0 9000 6000"><defs><style>.cls-1,.cls-10{fill:#3071d8;}.cls-1{opacity:0.11;}.cls-18,.cls-2{fill:#0b327d;}.cls-16,.cls-3{fill:#4f89f4;}.cls-4{fill:#e8e8e8;}.cls-5{opacity:0.09;}.cls-24,.cls-6,.cls-7,.cls-8,.cls-9{fill:#fff;}.cls-6{opacity:0.31;}.cls-7{opacity:0.41;}.cls-8{opacity:0.63;}.cls-9{opacity:0.81;}.cls-10,.cls-24{opacity:0.61;}.cls-11{fill:#94c0ff;}.cls-12{fill:#7baeff;}.cls-13,.cls-14{fill:#eba231;}.cls-14{opacity:0.2;}.cls-15{fill:#f4be78;stroke:#eba231;stroke-miterlimit:10;stroke-width:44px;}.cls-16{font-size:270px;}.cls-16,.cls-18{font-family:Oswald-Bold, Oswald;font-weight:700;}.cls-17{letter-spacing:-0.01em;}.cls-18{font-size:485px;}.cls-19{fill:#76a1e5;}.cls-20{opacity:0.18;}.cls-21{fill:#f2f2f2;opacity:0.51;}.cls-22{fill:#021b4c;}.cls-23{fill:#f7d77f;}.cls-25{fill:#ba656d;}</style></defs><path class="cls-1" d="M7409.53,5401.82q-24.63,44.9-50.83,89.78H1715.31q-16.49-45.43-32.32-89.78c-643.25-1805.21-423.68-2091.39-133.74-2305.46,588.54-434.61,1835.08,586.74,2974.64-12,555-291.55,552.1-790.25,1242.42-1027.39,486.28-167,1100.44-130,1493.3,143.36C7955.66,2684.68,8155,4048.84,7409.53,5401.82Z"/><polygon class="cls-2" points="4969.68 5401.08 4637.71 5401.08 4694.95 4376.56 4906.72 4376.56 4969.68 5401.08"/><path class="cls-3" d="M6492.15,2630.3V4679.57a119.12,119.12,0,0,1-4.75,33.42c-.46,1.49-.92,3-1.38,4.52s-1,2.81-1.43,4.18a1.83,1.83,0,0,0-.28.69c-.52,1.32-1,2.63-1.6,3.89-.75,1.83-1.61,3.72-2.47,5.5-1.2,2.57-2.51,5-3.89,7.44-.68,1.2-1.37,2.4-2.12,3.55-.8,1.31-1.66,2.57-2.51,3.89-1.09,1.66-2.29,3.26-3.5,4.86s-2.4,3.09-3.66,4.64c-2.52,3-5.21,5.89-8,8.64-.86.92-1.78,1.77-2.69,2.58a98.38,98.38,0,0,1-7.56,6.35q-2.15,1.71-4.46,3.26c-1.37,1-2.75,1.89-4.18,2.81a107,107,0,0,1-14.14,7.55c-.8.4-1.66.75-2.51,1.09-1.21.57-2.47,1-3.73,1.49s-2.69,1-4.06,1.43c-1.89.63-3.78,1.26-5.67,1.71-2.11.63-4.29,1.15-6.52,1.61-1.83.4-3.72.74-5.61,1-.11,0-.29.06-.4.06-.86.17-1.77.28-2.69.4s-1.72.22-2.63.28c-1.78.23-3.61.35-5.38.4-.86.06-1.72.12-2.58.12-.63.05-1.2.05-1.83.05s-1.26.06-1.89.06H3223.65a109.92,109.92,0,0,1-17.4-1.37c-1.89-.29-3.78-.63-5.61-1a83,83,0,0,1-9.27-2.41,37.8,37.8,0,0,1-4.41-1.43,2.67,2.67,0,0,1-1-.34c-1.49-.52-3-1.09-4.47-1.72s-2.8-1.14-4.18-1.77l-1.54-.69c-1.15-.57-2.23-1.14-3.32-1.66a109.86,109.86,0,0,1-12.71-7.73,45.3,45.3,0,0,1-3.95-2.86c-.91-.68-1.83-1.37-2.74-2.17s-1.84-1.49-2.75-2.29a114.34,114.34,0,0,1-20.89-23.64c-.86-1.37-1.78-2.75-2.58-4.18a21.61,21.61,0,0,1-1.6-2.69c-.63-1.09-1.26-2.12-1.78-3.2a6.65,6.65,0,0,1-.51-1c-.74-1.31-1.37-2.63-2-4a5.57,5.57,0,0,1-.46-1.09,35.73,35.73,0,0,1-1.78-4,12.32,12.32,0,0,1-.51-1.2c-.52-1.14-.92-2.35-1.37-3.55a26.84,26.84,0,0,1-1-3c-.52-1.49-1-3-1.43-4.53s-.86-3.09-1.27-4.63c-.34-1.38-.68-2.81-1-4.24-.23-.91-.4-1.89-.57-2.86-.46-2.52-.86-5-1.15-7.55-.17-1.15-.28-2.29-.39-3.44,0-.17-.06-.4-.06-.57-.12-1.55-.23-3.09-.29-4.64-.11-2-.17-4.06-.17-6.06V2630.3c0-52.71,33.65-97.3,80.13-112.24a111.31,111.31,0,0,1,34-5.27H6378C6441.1,2512.79,6492.15,2565.39,6492.15,2630.3Z"/><path class="cls-4" d="M6492.15,3043.88V4679.57a119.12,119.12,0,0,1-4.75,33.42c-.46,1.49-.92,3-1.38,4.52s-1,2.81-1.43,4.18a1.83,1.83,0,0,0-.28.69c-.52,1.32-1,2.63-1.6,3.89-.75,1.83-1.61,3.72-2.47,5.5-1.2,2.57-2.51,5-3.89,7.44-.68,1.2-1.37,2.4-2.12,3.55-.8,1.31-1.66,2.57-2.51,3.89-1.09,1.66-2.29,3.26-3.5,4.86s-2.4,3.09-3.66,4.64c-2.52,3-5.21,5.89-8,8.64-.86.92-1.78,1.77-2.69,2.58a98.38,98.38,0,0,1-7.56,6.35q-2.15,1.71-4.46,3.26c-1.37,1-2.75,1.89-4.18,2.81a107,107,0,0,1-14.14,7.55c-.8.4-1.66.75-2.51,1.09-1.21.57-2.47,1-3.73,1.49s-2.69,1-4.06,1.43c-1.89.63-3.78,1.26-5.67,1.71-2.11.63-4.29,1.15-6.52,1.61-1.83.4-3.72.74-5.61,1-.11,0-.29.06-.4.06-.86.17-1.77.28-2.69.4s-1.72.22-2.63.28c-1.78.23-3.61.35-5.38.4-.86.06-1.72.12-2.58.12-.63.05-1.2.05-1.83.05s-1.26.06-1.89.06H3223.65a109.92,109.92,0,0,1-17.4-1.37c-1.89-.29-3.78-.63-5.61-1a83,83,0,0,1-9.27-2.41,37.8,37.8,0,0,1-4.41-1.43,2.67,2.67,0,0,1-1-.34c-1.49-.52-3-1.09-4.47-1.72s-2.8-1.14-4.18-1.77l-1.54-.69c-1.15-.57-2.23-1.14-3.32-1.66a109.86,109.86,0,0,1-12.71-7.73,45.3,45.3,0,0,1-3.95-2.86c-.91-.68-1.83-1.37-2.74-2.17s-1.84-1.49-2.75-2.29a114.34,114.34,0,0,1-20.89-23.64c-.86-1.37-1.78-2.75-2.58-4.18a21.61,21.61,0,0,1-1.6-2.69c-.63-1.09-1.26-2.12-1.78-3.2a6.65,6.65,0,0,1-.51-1c-.74-1.31-1.37-2.63-2-4a5.57,5.57,0,0,1-.46-1.09,35.73,35.73,0,0,1-1.78-4,12.32,12.32,0,0,1-.51-1.2c-.52-1.14-.92-2.35-1.37-3.55a26.84,26.84,0,0,1-1-3c-.52-1.49-1-3-1.43-4.53s-.86-3.09-1.27-4.63c-.34-1.38-.68-2.81-1-4.24-.23-.91-.4-1.89-.57-2.86-.46-2.52-.86-5-1.15-7.55-.17-1.15-.28-2.29-.39-3.44,0-.17-.06-.4-.06-.57-.12-1.55-.23-3.09-.29-4.64-.11-2-.17-4.06-.17-6.06V3043.88Z"/><path class="cls-4" d="M6492.15,3043.88V4679.57a119.12,119.12,0,0,1-4.75,33.42,109.5,109.5,0,0,1-29.25,3.95H3303.78c-2,0-4-.06-5.9-.17s-3.83-.23-5.78-.46-4-.46-6-.8c-1.77-.23-3.55-.57-5.32-1s-3.72-.8-5.55-1.32c-1.32-.34-2.64-.69-3.95-1.14-.92-.23-1.78-.52-2.63-.8-1.44-.46-2.81-1-4.18-1.49s-2.92-1.15-4.41-1.78c-.92-.4-1.89-.8-2.8-1.26a37.4,37.4,0,0,1-3.55-1.71,82.13,82.13,0,0,1-7.56-4.18c-.86-.52-1.72-1-2.57-1.6-1.84-1.15-3.61-2.35-5.33-3.67a12.23,12.23,0,0,1-1.83-1.31c-1.77-1.38-3.55-2.75-5.26-4.18l-.06-.06c-2-1.66-3.89-3.43-5.73-5.27a72.77,72.77,0,0,1-5.38-5.6c-1.77-1.95-3.43-3.95-5-6s-3.15-4.18-4.64-6.36a117.34,117.34,0,0,1-7.95-13.56,59,59,0,0,1-2.87-6.13c-.85-1.88-1.6-3.77-2.34-5.72-1-2.63-1.89-5.32-2.63-8.07-.58-1.89-1.09-3.83-1.55-5.78-.57-2.23-1-4.52-1.43-6.81s-.75-4.58-1-6.87v-.17c-.29-2-.46-4.07-.57-6.13-.18-2.69-.29-5.38-.29-8.12V3043.88Z"/><path class="cls-5" d="M6487.4,4713c-.46,1.49-.92,3-1.38,4.52s-1,2.81-1.43,4.18a1.83,1.83,0,0,0-.28.69c-.52,1.32-1,2.63-1.6,3.89-.75,1.83-1.61,3.72-2.47,5.5-1.2,2.57-2.51,5-3.89,7.44-.68,1.2-1.37,2.4-2.12,3.55-.8,1.31-1.66,2.57-2.51,3.89-1.09,1.66-2.29,3.26-3.5,4.86s-2.4,3.09-3.66,4.64c-2.52,3-5.21,5.89-8,8.64-.86.92-1.78,1.77-2.69,2.58a98.38,98.38,0,0,1-7.56,6.35q-2.15,1.71-4.46,3.26c-1.37,1-2.75,1.89-4.18,2.81a107,107,0,0,1-14.14,7.55c-.8.4-1.66.75-2.51,1.09-1.21.57-2.47,1-3.73,1.49s-2.69,1-4.06,1.43c-1.89.63-3.78,1.26-5.67,1.71-2.11.63-4.29,1.15-6.52,1.61-1.83.4-3.72.74-5.61,1-.11,0-.29.06-.4.06-.86.17-1.77.28-2.69.4s-1.72.22-2.63.28c-1.78.23-3.61.35-5.38.4-.86.06-1.72.12-2.58.12-.63.05-1.2.05-1.83.05s-1.26.06-1.89.06H3223.65a109.92,109.92,0,0,1-17.4-1.37c-1.89-.29-3.78-.63-5.61-1a83,83,0,0,1-9.27-2.41,37.8,37.8,0,0,1-4.41-1.43,2.67,2.67,0,0,1-1-.34c-1.49-.52-3-1.09-4.47-1.72s-2.8-1.14-4.18-1.77l-1.54-.69c-1.15-.57-2.23-1.14-3.32-1.66a109.86,109.86,0,0,1-12.71-7.73,45.3,45.3,0,0,1-3.95-2.86c-.91-.68-1.83-1.37-2.74-2.17s-1.84-1.49-2.75-2.29a114.34,114.34,0,0,1-20.89-23.64c-.86-1.37-1.78-2.75-2.58-4.18a21.61,21.61,0,0,1-1.6-2.69c-.63-1.09-1.26-2.12-1.78-3.2a6.65,6.65,0,0,1-.51-1c-.74-1.31-1.37-2.63-2-4a5.57,5.57,0,0,1-.46-1.09,35.73,35.73,0,0,1-1.78-4,12.32,12.32,0,0,1-.51-1.2c-.52-1.14-.92-2.35-1.37-3.55a26.84,26.84,0,0,1-1-3c-.52-1.49-1-3-1.43-4.53s-.86-3.09-1.27-4.63c-.34-1.38-.68-2.81-1-4.24-.23-.91-.4-1.89-.57-2.86-.46-2.52-.86-5-1.15-7.55-.17-1.15-.28-2.29-.39-3.44,0-.17-.06-.4-.06-.57-.12-1.55-.23-3.09-.29-4.64-.11-2-.17-4.06-.17-6.06V2630.3c0-52.71,33.65-97.3,80.13-112.24V4599.44c0,2.74.11,5.43.29,8.12.11,2.06.28,4.12.57,6.13v.17c.28,2.29.63,4.58,1,6.87s.86,4.58,1.43,6.81a48.31,48.31,0,0,0,1.55,5.78c.74,2.75,1.66,5.44,2.63,8.07.68,1.95,1.49,3.84,2.34,5.72a59,59,0,0,0,2.87,6.13,100.68,100.68,0,0,0,7.95,13.56q2.14,3.27,4.64,6.36c1.54,2.06,3.26,4.06,5,6a72.77,72.77,0,0,0,5.38,5.6c1.84,1.84,3.78,3.61,5.73,5.27l.06.06c1.71,1.49,3.49,2.86,5.26,4.18a12.23,12.23,0,0,0,1.83,1.31c1.72,1.32,3.49,2.52,5.33,3.67.85.57,1.71,1.14,2.57,1.6a82.13,82.13,0,0,0,7.56,4.18,37.4,37.4,0,0,0,3.55,1.71c.91.46,1.88.86,2.8,1.26,1.49.63,2.92,1.2,4.41,1.78s2.74,1,4.18,1.49c.85.28,1.71.57,2.63.8,1.31.45,2.63.8,3.95,1.14,1.83.52,3.66.92,5.55,1.32s3.55.74,5.32,1c2,.34,4,.63,6,.8s3.84.4,5.78.46,3.95.17,5.9.17H6458.15A109.5,109.5,0,0,0,6487.4,4713Z"/><circle class="cls-6" cx="3416.13" cy="2794.78" r="86.14"/><circle class="cls-7" cx="3645.7" cy="2794.78" r="86.14"/><circle class="cls-8" cx="3896.03" cy="2794.78" r="86.14"/><rect class="cls-9" x="3292.67" y="3197.05" width="1467.67" height="864.26" rx="8.55"/><rect class="cls-9" x="4835.61" y="3197.05" width="1467.67" height="864.26" rx="3.88"/><rect class="cls-9" x="3284.52" y="4204.4" width="3013.03" height="146.04" rx="12.22"/><rect class="cls-9" x="3283.64" y="4464.73" width="3013.03" height="146.04" rx="12.22"/><path class="cls-2" d="M5181.45,5402.52H4431.66l8.83-15.63a419.64,419.64,0,0,1,365.41-213.31h0a419.62,419.62,0,0,1,356.47,198.23Z"/><path class="cls-10" d="M7936,5440.77a44.86,44.86,0,0,1-44.86,44.86H1032a44.89,44.89,0,0,1,0-89.78H7891.09A44.89,44.89,0,0,1,7936,5440.77Z"/><path class="cls-3" d="M7045.67,4371.81c-52.91,73.21,12.78,120.68-40.13,193.9s-118.61,25.74-171.52,99,12.78,120.69-40.13,193.91-118.61,25.75-171.53,99,12.78,120.69-40.14,193.92l.84,15.51,354.44,34.26c-3.22-14.17-3.74-30.27.62-49.86,19.62-88.19,98.74-70.58,118.36-158.77s-59.5-105.78-39.88-194,98.74-70.58,118.36-158.76-59.5-105.77-39.88-193.95c19.57-88,98.66-70.24,118.36-158.75l3.74-14.35C7164.27,4346.07,7098.58,4298.59,7045.67,4371.81Z"/><path class="cls-11" d="M6104.24,4350.45c64.22,79.33-6.95,136.95,57.27,216.27s135.39,21.71,199.61,101-6.95,136.95,57.27,216.27,135.4,21.72,199.63,101-7,137,57.28,216.29l0,17.55-397.74,60.58c2.75-16.19,2.34-34.38-3.78-56.21-27.6-98.28-115.76-73.52-143.35-171.8s60.57-123,33-221.28-115.75-73.51-143.34-171.77,60.58-123,33-221.28c-27.52-98-115.65-73.13-143.34-171.76l-5.11-16C5968.85,4328.75,6040,4271.13,6104.24,4350.45Z"/><path class="cls-12" d="M6696.34,4329.62c16.81,106-78.28,121.08-61.47,227.07s111.92,90.9,128.74,196.9-78.29,121.08-61.47,227.07,111.92,90.92,128.74,196.92-72.56,81-55.74,187l-9.21,16-399.82-113.73c11-13.29,20.2-30.08,26.09-53.18,26.5-104-66.81-127.79-40.31-231.8s119.81-80.21,146.31-184.21-66.81-127.77-40.31-231.77,119.8-80.22,146.3-184.21c26.43-103.74-66.91-127.37-40.32-231.76l3.74-17.22C6584.42,4238.72,6679.52,4223.63,6696.34,4329.62Z"/><path class="cls-2" d="M6028.54,5393H7247.66s-211.77-400.65-538-383.48-412.09,240.39-412.09,240.39-251.84-97.3-269,160.26"/><path class="cls-3" d="M3675.61,4728.22c-34.44,47.66,8.32,78.57-26.12,126.23s-77.22,16.76-111.66,64.43,8.32,78.57-26.13,126.23-77.21,16.77-111.66,64.44,8.31,78.57-26.14,126.24l.55,10.1,230.74,22.31c-2.09-9.23-2.43-19.71.41-32.46,12.77-57.42,64.28-46,77.05-103.37s-38.73-68.86-26-126.27,64.28-45.94,77-103.35-38.73-68.86-26-126.27c12.74-57.26,64.23-45.72,77-103.34l2.44-9.34C3752.82,4711.46,3710.06,4680.55,3675.61,4728.22Z"/><path class="cls-11" d="M3062.73,4714.31c41.81,51.64-4.53,89.16,37.28,140.8s88.14,14.13,129.95,65.77-4.52,89.15,37.28,140.8,88.15,14.13,130,65.78-4.52,89.16,37.29,140.81v11.42l-258.94,39.44c1.8-10.54,1.53-22.38-2.46-36.59-18-64-75.36-47.87-93.32-111.85s39.44-80.08,21.47-144-75.35-47.86-93.31-111.83,39.43-80.08,21.47-144.05-75.29-47.61-93.31-111.82l-3.33-10.39C2974.59,4700.19,3020.92,4662.67,3062.73,4714.31Z"/><path class="cls-12" d="M3448.19,4700.75c10.95,69-51,78.83-40,147.83s72.86,59.18,83.8,128.18-51,78.83-40,147.83,72.86,59.19,83.81,128.2-47.24,52.75-36.29,121.76l-6,10.41-260.29-74c7.17-8.65,13.15-19.58,17-34.62,17.26-67.71-43.49-83.19-26.24-150.9s78-52.23,95.25-119.93-43.49-83.18-26.24-150.88,78-52.23,95.24-119.93c17.21-67.53-43.56-82.92-26.24-150.87l2.43-11.21C3375.33,4641.58,3437.25,4631.75,3448.19,4700.75Z"/><path class="cls-2" d="M3013.45,5393h793.66s-137.86-260.83-350.25-249.65-268.29,156.5-268.29,156.5-163.94-63.35-175.12,104.33"/><path class="cls-13" d="M2498,2137s11.27-274.39,169.14-199.21,109,169.14,109,169.14,184.18-37.59,206.73,37.58,0,105.25,0,105.25,127.64-24.05,191.62,42.47,199.29,51.5,199.29,51.5L1922.89,2340s97.72-78.94,169.14-60.14,203,63.9,218-22.55,30.07-150.35,86.45-127.8S2498,2137,2498,2137Z"/><path class="cls-13" d="M6416.37,1844.32s11.28-274.38,169.14-199.21,109,169.14,109,169.14,184.18-37.59,206.73,37.59,0,105.24,0,105.24,127.64-24,191.62,42.48,199.29,51.49,199.29,51.49l-1450.86-3.76s97.72-78.93,169.14-60.14,203,63.9,218-22.55,30.07-150.35,86.45-127.8S6416.37,1844.32,6416.37,1844.32Z"/><path class="cls-14" d="M4576.63,1503.85s11.28-274.39,169.14-199.21,109,169.14,109,169.14,184.17-37.59,206.73,37.59,0,105.24,0,105.24,127.64-24,191.61,42.48,199.29,51.49,199.29,51.49l-1450.86-3.76s97.73-78.93,169.14-60.14,203,63.9,218-22.55,30.07-150.35,86.45-127.8S4576.63,1503.85,4576.63,1503.85Z"/><text/><path class="cls-15" d="M4100.07,2637.6,3239.05,4070a20,20,0,0,0,17.14,30.3h1722a20,20,0,0,0,17.14-30.3l-861-1432.35A20,20,0,0,0,4100.07,2637.6Z"/><text class="cls-16" transform="translate(3724.42 3999.44)">ER<tspan class="cls-17" x="282.69" y="0">R</tspan><tspan x="442.52" y="0">OR</tspan></text><text class="cls-18" transform="translate(3731.84 3666.96)">404</text><polygon class="cls-19" points="5197.05 4183.71 5115.18 4316.87 4569.07 3975.15 4650.94 3841.99 5197.05 4183.71"/><path class="cls-20" d="M4577.24,3980.27l320.6,16.21-238.73-149.37S4620.78,3926.21,4577.24,3980.27Z"/><ellipse class="cls-21" cx="4098.12" cy="3564.47" rx="605.71" ry="611.07"/><path class="cls-20" d="M4326,4042.78c-109,31.78-221.71,38.82-334.11,24-107.63-14.21-222.78-46.87-312.85-110.12-37.42-26.27-71.77-56.87-100-93,79,132.54,207.43,235.15,367.55,276.89,243.9,63.58,491.48-32.13,634.63-222.8C4506,3975.46,4416.08,4016.53,4326,4042.78Z"/><path class="cls-22" d="M5687.5,4556.38l-35.29,57.4a79.68,79.68,0,0,1-110.28,26.07l-559.83-350.3a13.37,13.37,0,0,1-4.25-18.3l105.84-172.15a13.12,13.12,0,0,1,18.14-4.29l559.83,350.31C5699.25,4468.64,5710.82,4518.45,5687.5,4556.38Z"/><polygon class="cls-23" points="5200.94 4150.99 5081.21 4345.72 5058.01 4331.2 5177.73 4136.46 5200.94 4150.99"/><polygon class="cls-23" points="5255.87 4187.03 5136.15 4381.76 5112.94 4367.24 5232.67 4172.5 5255.87 4187.03"/><path class="cls-22" d="M4650,3909.8c-188.75,307-589.87,401.84-894.18,211.43s-398.32-595.09-209.57-902.09,589.87-401.84,894.17-211.43S4838.74,3602.8,4650,3909.8ZM3596.54,3250.61c-171.54,279-86.09,646.82,190.48,819.88s641.14,86.85,812.68-192.16,86.1-646.82-190.47-819.88S3768.09,2971.59,3596.54,3250.61Z"/><path class="cls-24" d="M4164.29,3040.29c-86.51-22.12-181.44-10.06-262.85,25.81-70.23,30.94-138.57,89.78-158.51,167-3,11.71,11.06,25,21.19,14.54,47.44-49.21,97.62-92.39,160.94-119.28,72.38-30.73,149-27.51,225.52-23.42C4186.69,3106.86,4201.78,3049.87,4164.29,3040.29Z"/><path class="cls-25" d="M4094.83,4167.8c-330.24,0-598.92-271-598.92-604.21s268.68-604.21,598.92-604.21,598.91,271,598.91,604.21S4425.07,4167.8,4094.83,4167.8Zm0-1196.93c-324,0-587.53,265.89-587.53,592.72s263.56,592.73,587.53,592.73,587.53-265.9,587.53-592.73S4418.79,2970.87,4094.83,2970.87Z"/></svg>