<svg width="589" height="621" viewBox="0 0 589 621" fill="none" xmlns="http://www.w3.org/2000/svg">
<path fill-rule="evenodd" clip-rule="evenodd" d="M383.077 549.571C318.62 572.394 251.751 642.317 192.008 609.056C131.771 575.519 172.085 475.087 139.838 414.15C106.098 350.39 -2.59123 324.797 3.55029 252.922C9.54678 182.745 110.582 169.467 164.607 124.277C212.555 84.1716 239.563 8.03986 301.898 3.37068C364.395 -1.31058 406.167 64.7691 456.26 102.431C496.764 132.884 543.186 156.856 566.134 202.036C589.197 247.443 589.346 299.809 582.118 350.222C574.733 401.735 561.437 454.443 524.667 491.27C487.699 528.295 432.399 532.108 383.077 549.571Z" stroke="#EAE9F5" stroke-width="5"/>
<path fill-rule="evenodd" clip-rule="evenodd" d="M364.083 542.661C304.798 563.652 243.295 627.964 188.346 597.372C132.943 566.527 170.021 474.153 140.363 418.106C109.33 359.463 9.3622 335.923 15.0109 269.816C20.5262 205.27 113.454 193.057 163.144 151.494C207.244 114.606 232.085 44.5838 289.418 40.2893C346.9 35.9836 385.32 96.7609 431.393 131.401C468.647 159.41 511.344 181.458 532.451 223.013C553.663 264.776 553.8 312.94 547.152 359.307C540.359 406.687 528.13 455.166 494.311 489.037C460.31 523.092 409.447 526.599 364.083 542.661Z" fill="#EAE9F5"/>
<g clip-path="url(#clip0)">
<path d="M527.71 306.45C527.71 306.45 522.91 302.5 515.32 314.17C511.345 320.107 507.767 326.3 504.61 332.71C504.61 332.71 502.67 335.12 501.08 333.24C499.49 331.36 497.55 326.32 494.44 326.86C491.33 327.4 489.82 330.81 489.88 336.01C489.94 341.21 489.64 352.59 489.61 353.62C489.58 354.65 488.85 356.04 487.56 354.94C486.27 353.84 479.19 344.06 474.75 347.7C470.31 351.34 472.85 365.78 473.09 367.36C473.33 368.94 472.97 369.57 472.2 369.88C471.43 370.19 469.36 366.67 467.2 363.98C465.04 361.29 462.13 358.52 459.75 360.84C457.37 363.16 455.58 373.6 463.75 391.75L468.11 399.91L477.39 400.37C497.31 400.14 506.02 394.1 507.11 390.97C508.2 387.84 504.46 386.33 501.11 385.54C497.76 384.75 493.71 384.36 493.66 383.54C493.61 382.72 494.02 382.11 495.56 381.67C497.1 381.23 511.26 377.41 512.68 371.86C514.1 366.31 502.25 364.02 500.68 363.31C499.11 362.6 500.11 361.31 501.01 360.89C501.91 360.47 512.12 355.35 516.85 353.2C521.58 351.05 524.06 348.36 523.21 345.2C522.36 342.04 517 342.54 514.63 341.89C512.26 341.24 513.63 338.46 513.63 338.46C518.135 332.888 522.268 327.026 526 320.91C533.37 309.1 527.6 306.38 527.6 306.38" fill="#EBEBEB"/>
<path d="M466.53 401.41C471.98 392.76 481.92 377.54 490.39 364.41C498.86 351.28 506.51 339.41 512 330.82C514.74 326.51 517 323.02 518.49 320.6L520.26 317.82L520.73 317.11C520.778 317.023 520.835 316.943 520.9 316.87L520.75 317.12C520.65 317.3 520.5 317.54 520.31 317.85L518.59 320.66C517.09 323.1 514.9 326.6 512.17 330.93C506.72 339.58 499.1 351.46 490.63 364.56C482.16 377.66 472.2 392.86 466.71 401.48" fill="#E0E0E0"/>
<path d="M496.85 334C496.931 334.21 496.988 334.428 497.02 334.65C497.11 335.07 497.22 335.65 497.36 336.44C497.62 337.95 497.93 340.05 498.22 342.38C498.51 344.71 498.77 346.75 498.97 348.33C499.06 349.05 499.14 349.65 499.2 350.13C499.247 350.35 499.267 350.575 499.26 350.8C499.179 350.59 499.122 350.372 499.09 350.15C499 349.73 498.89 349.15 498.76 348.36C498.52 346.84 498.24 344.74 497.94 342.42C497.64 340.1 497.36 338.05 497.16 336.47C497.06 335.76 496.98 335.15 496.91 334.67C496.876 334.448 496.856 334.224 496.85 334Z" fill="#E0E0E0"/>
<path d="M500.09 351.08C500.09 351 504.38 350.18 509.7 349.24C515.02 348.3 519.35 347.6 519.36 347.68C519.37 347.76 515.07 348.58 509.75 349.52C504.43 350.46 500.1 351.16 500.09 351.08Z" fill="#E0E0E0"/>
<path d="M486.18 370.62C486.406 370.591 486.634 370.591 486.86 370.62L488.71 370.82C490.27 370.99 492.42 371.21 494.8 371.37C497.18 371.53 499.35 371.6 500.92 371.64L502.77 371.69C502.996 371.669 503.224 371.669 503.45 371.69C503.226 371.735 502.998 371.755 502.77 371.75C502.33 371.75 501.7 371.75 500.91 371.8C499.34 371.8 497.17 371.8 494.78 371.6C492.39 371.4 490.24 371.19 488.68 370.97C487.91 370.86 487.28 370.76 486.85 370.68C486.625 370.682 486.401 370.661 486.18 370.62Z" fill="#E0E0E0"/>
<path d="M479.86 355.84C479.987 356.009 480.091 356.194 480.17 356.39L480.9 357.94C481.51 359.26 482.34 361.08 483.23 363.1C484.12 365.12 484.92 366.96 485.49 368.29C485.75 368.92 485.96 369.45 486.14 369.88C486.234 370.07 486.301 370.272 486.34 370.48C486.224 370.306 486.124 370.122 486.04 369.93C485.84 369.5 485.59 368.99 485.3 368.38C484.69 367.06 483.87 365.24 482.97 363.22C482.07 361.2 481.28 359.36 480.72 358.02L480.06 356.44C479.973 356.247 479.906 356.046 479.86 355.84Z" fill="#E0E0E0"/>
<path d="M465.39 371.52C465.536 371.75 465.663 371.99 465.77 372.24L466.77 374.24C467.56 375.92 468.63 378.24 469.77 380.83C470.91 383.42 471.98 385.75 472.77 387.45L473.64 389.45C473.76 389.693 473.854 389.948 473.92 390.21C473.773 389.985 473.646 389.747 473.54 389.5L472.54 387.5C471.75 385.82 470.68 383.5 469.54 380.91C468.4 378.32 467.33 375.99 466.54 374.29L465.67 372.29C465.55 372.044 465.456 371.786 465.39 371.52Z" fill="#E0E0E0"/>
<path d="M473.8 389.7C474.09 389.68 474.381 389.68 474.67 389.7L477.02 389.87C479.02 390.01 481.74 390.2 484.77 390.32C487.8 390.44 490.55 390.48 492.53 390.5H494.89C495.176 390.471 495.464 390.471 495.75 390.5C495.466 390.546 495.178 390.57 494.89 390.57C494.33 390.57 493.53 390.57 492.53 390.64C490.53 390.64 487.79 390.64 484.76 390.55C481.73 390.46 478.98 390.21 477 390.02C476 389.92 475.21 389.83 474.66 389.75C474.373 389.759 474.085 389.743 473.8 389.7Z" fill="#E0E0E0"/>
<path d="M185.38 225.56C185.38 225.56 175 343.22 178.76 411.9C181.99 471.48 187.68 491.54 187.68 491.54H221.59L185.38 225.56Z" fill="#E0E0E0"/>
<path d="M145 425.1C144.581 423.525 144.484 421.881 144.716 420.267C144.948 418.653 145.504 417.103 146.35 415.71C148.059 412.925 150.386 410.571 153.15 408.83C158.37 405.32 165.48 403.93 171.77 403.61C171.68 410.61 166.35 416.72 163.46 419.61C158.88 424.25 147.8 429.85 145 425.06" fill="#241B99"/>
<path d="M175.65 392.26C174.522 393.692 173.036 394.801 171.341 395.474C169.646 396.146 167.804 396.359 166 396.09C164.199 395.788 162.476 395.131 160.931 394.158C159.386 393.185 158.05 391.914 157 390.42C156 389.06 155.21 387.37 155.64 385.74C155.886 384.993 156.327 384.325 156.918 383.806C157.509 383.287 158.228 382.936 159 382.79C160.556 382.517 162.157 382.658 163.64 383.2C168.78 384.82 173.45 387.33 175.64 392.26" fill="#241B99"/>
<path d="M194.63 385C194.281 385.254 193.913 385.481 193.53 385.68L190.47 387.45C187.143 389.502 183.506 391.005 179.7 391.9C175.85 392.738 171.846 392.534 168.1 391.31C166.976 390.925 165.902 390.408 164.9 389.77C164.629 389.599 164.369 389.412 164.12 389.21C164.024 389.149 163.936 389.075 163.86 388.99C165.24 389.793 166.694 390.462 168.2 390.99C171.907 392.089 175.83 392.24 179.61 391.43C183.372 390.534 186.98 389.088 190.32 387.14C191.63 386.44 192.7 385.87 193.45 385.5C193.826 385.295 194.222 385.128 194.63 385Z" fill="#263238"/>
<path d="M153.05 420.09C153.162 419.937 153.293 419.799 153.44 419.68L154.6 418.56C155.6 417.56 157.11 416.22 158.97 414.56C162.68 411.19 167.87 406.61 173.72 401.68C179.57 396.75 184.97 392.4 188.92 389.32C190.92 387.77 192.5 386.54 193.62 385.7C194.15 385.3 194.62 384.98 194.92 384.7C195.067 384.579 195.224 384.472 195.39 384.38C195.39 384.38 195.26 384.53 194.97 384.77L193.73 385.77L189.12 389.51C185.22 392.66 179.86 397.04 174.01 401.97C168.16 406.9 163 411.47 159.18 414.77L154.72 418.69L153.5 419.74C153.363 419.872 153.212 419.99 153.05 420.09Z" fill="#263238"/>
<path d="M184.45 396.74C181.978 399.68 180.241 403.165 179.382 406.909C178.523 410.652 178.567 414.547 179.51 418.27C180.01 420.16 181.08 422.27 183.01 422.52C184.94 422.77 186.53 421 187.46 419.28C189.333 415.657 190.092 411.561 189.642 407.507C189.192 403.454 187.552 399.624 184.93 396.5" fill="#241B99"/>
<path d="M183.48 413.78C183.322 413.404 183.204 413.011 183.13 412.61C182.994 412.154 182.891 411.69 182.82 411.22C182.74 410.66 182.59 410.04 182.55 409.34C182.459 408.576 182.413 407.809 182.41 407.04C182.387 406.159 182.417 405.277 182.5 404.4C182.682 402.383 183.094 400.393 183.73 398.47C184.388 396.549 185.271 394.713 186.36 393C186.837 392.256 187.358 391.542 187.92 390.86C188.395 390.256 188.906 389.682 189.45 389.14C189.889 388.682 190.353 388.248 190.84 387.84C191.208 387.535 191.595 387.254 192 387C192.309 386.739 192.644 386.511 193 386.32C193.06 386.4 191.62 387.39 189.71 389.41C189.25 389.93 188.71 390.48 188.24 391.14C187.704 391.824 187.203 392.535 186.74 393.27C185.699 394.966 184.844 396.77 184.19 398.65C183.565 400.539 183.15 402.49 182.95 404.47C182.859 405.333 182.816 406.201 182.82 407.07C182.82 407.89 182.82 408.64 182.9 409.34C183.1 412.08 183.58 413.76 183.48 413.78Z" fill="#263238"/>
<path d="M203.94 366.7C216.85 348.93 213.08 325.54 205.55 305.94C204.29 302.67 203.45 299.05 200.87 296.69C198.29 294.33 193.93 293.62 191.45 296.04C189.39 298.04 189.31 301.27 188.75 304.11C188.004 307.9 186.201 311.401 183.55 314.21C181.82 316.04 179.44 317.61 176.97 317.21C173.57 316.62 171.87 312.79 170.75 309.49L164.5 291C163.38 287.7 162.23 284.34 160.12 281.57C158.01 278.8 154.75 276.68 151.32 276.88C147.89 277.08 144.63 280.23 145.09 283.68C145.438 285.088 145.879 286.471 146.41 287.82C146.79 289.21 146.68 290.95 145.51 291.82C144.34 292.69 142.69 292.18 141.37 291.55C136.83 289.41 133.04 285.92 129.37 282.41C125.7 278.9 122.15 275.26 117.81 272.7C113.47 270.14 108.21 268.7 103.41 270.1C98.6102 271.5 94.5802 276.1 94.9902 281.15C95.4002 286.2 99.7702 290 104 292.69C110.304 296.756 117.161 299.892 124.36 302C125.702 302.235 126.934 302.89 127.88 303.87C129.35 305.87 128.02 308.72 126.11 310.19C123.93 311.85 121.18 312.52 118.72 313.71C116.26 314.9 113.87 316.99 113.72 319.76C113.53 323.59 117.56 326.14 121.13 327.49C128.277 330.201 135.838 331.662 143.48 331.81C146.21 331.81 149.03 331.75 151.57 332.81C154.11 333.87 156.31 336.39 155.94 339.11C155.57 341.83 152.79 343.63 150.09 344.04C147.39 344.45 144.64 343.85 141.91 343.78C136.79 343.63 131.06 345.97 129.51 350.88C128.51 354.11 129.51 357.74 131.59 360.48C133.737 363.115 136.389 365.294 139.39 366.89C149.547 373.008 161.145 376.32 173 376.49C184.75 376.49 194.82 374.12 203.93 366.7" fill="#565388"/>
<path d="M204.77 372.67C201.33 365.06 200.92 365.02 194.53 356.04C187.5 346.373 179.921 337.118 171.83 328.32L165.51 321.37C163.43 319.09 161.37 316.83 159.22 314.74C155.076 310.741 150.712 306.975 146.15 303.46C141.82 300.07 137.59 297.02 133.61 294.19C129.63 291.36 125.87 288.81 122.34 286.62C116.788 283.14 110.966 280.11 104.93 277.56C102.8 276.65 101.12 276 99.9802 275.56L98.6702 275.08C98.5247 275.02 98.3741 274.973 98.2202 274.94C98.357 275.02 98.5009 275.087 98.6502 275.14L99.9302 275.68C101.06 276.14 102.72 276.83 104.83 277.77C110.81 280.409 116.583 283.494 122.1 287C125.6 289.21 129.34 291.78 133.31 294.62C137.28 297.46 141.48 300.53 145.79 303.92C150.324 307.435 154.664 311.194 158.79 315.18C160.93 317.26 162.97 319.5 165.06 321.79L171.37 328.79C179.443 337.566 187.018 346.787 194.06 356.41C200.46 365.35 200.89 365.33 204.36 372.89" fill="#263238"/>
<path d="M159 314.78C159.01 314.268 158.957 313.758 158.84 313.26C158.7 312.26 158.45 310.9 158.11 309.18C157.44 305.74 156.36 301.02 155.11 295.82C153.86 290.62 152.87 285.9 152.26 282.46C151.95 280.74 151.71 279.35 151.56 278.38C151.506 277.874 151.402 277.375 151.25 276.89C151.211 277.397 151.231 277.907 151.31 278.41C151.39 279.41 151.56 280.8 151.82 282.53C152.32 286 153.26 290.76 154.48 295.96C155.7 301.16 156.79 305.73 157.63 309.27L158.56 313.27C158.656 313.786 158.804 314.292 159 314.78Z" fill="#263238"/>
<path d="M114 321.5C114.596 321.424 115.185 321.296 115.76 321.12C116.88 320.84 118.49 320.43 120.51 319.98C124.51 319.06 130.13 317.98 136.36 317.06C142.59 316.14 148.27 315.57 152.36 315.27C154.42 315.1 156.09 315.01 157.24 314.94C157.84 314.941 158.439 314.887 159.03 314.78C158.435 314.687 157.831 314.656 157.23 314.69C156.08 314.69 154.4 314.69 152.33 314.81C148.19 315 142.49 315.51 136.23 316.42C130.893 317.188 125.6 318.229 120.37 319.54C118.37 320.04 116.76 320.54 115.66 320.88C115.09 321.038 114.534 321.246 114 321.5Z" fill="#263238"/>
<path d="M193.74 355.44C193.804 355.239 193.841 355.03 193.85 354.82C193.9 354.34 193.96 353.75 194.04 353.04C194.2 351.49 194.38 349.25 194.56 346.47C194.93 340.92 195.19 333.23 195.37 324.74C195.55 316.25 195.74 308.56 195.99 303.01C196.11 300.3 196.22 298.08 196.3 296.43C196.3 295.71 196.3 295.12 196.37 294.64C196.394 294.43 196.394 294.219 196.37 294.01C196.307 294.211 196.27 294.419 196.26 294.63C196.2 295.11 196.14 295.69 196.06 296.41C195.9 297.95 195.72 300.2 195.54 302.98C195.18 308.53 194.91 316.22 194.74 324.72C194.57 333.22 194.37 340.89 194.12 346.44C193.99 349.15 193.88 351.37 193.8 353.02C193.8 353.74 193.75 354.33 193.73 354.81C193.699 355.019 193.702 355.232 193.74 355.44Z" fill="#263238"/>
<path d="M131.22 356.76C131.433 356.784 131.648 356.784 131.86 356.76H133.68L140.38 356.63C146.03 356.52 153.85 356.46 162.48 356.4C171.11 356.34 178.94 356.21 184.59 355.99C187.42 355.88 189.71 355.76 191.29 355.65L193.1 355.51C193.316 355.505 193.531 355.475 193.74 355.42C193.527 355.398 193.313 355.398 193.1 355.42H191.28L184.58 355.55C178.92 355.66 171.11 355.72 162.47 355.78C153.83 355.84 146.02 355.96 140.36 356.19C137.53 356.3 135.25 356.42 133.67 356.53L131.85 356.67C131.637 356.667 131.424 356.698 131.22 356.76Z" fill="#263238"/>
<path d="M306.15 79.3098C307.069 79.1192 307.918 78.6819 308.606 78.0449C309.295 77.4079 309.796 76.5953 310.058 75.6945C310.319 74.7937 310.329 73.8387 310.089 72.9323C309.848 72.0258 309.364 71.2021 308.69 70.5498C309.519 70.079 310.138 69.3112 310.422 68.4016C310.706 67.4919 310.634 66.5084 310.22 65.6498C309.743 64.8258 308.97 64.2142 308.058 63.9394C307.146 63.6645 306.164 63.7469 305.31 64.1698C305.392 63.3722 305.247 62.5678 304.894 61.8482C304.54 61.1286 303.991 60.5228 303.31 60.0998C302.624 59.6922 301.837 59.4838 301.039 59.4979C300.241 59.512 299.462 59.7482 298.79 60.1798C298.12 59.6155 297.313 59.2371 296.451 59.0827C295.589 58.9282 294.701 59.0031 293.876 59.2999C293.052 59.5966 292.32 60.1048 291.754 60.7734C291.188 61.4421 290.807 62.2478 290.65 63.1098C290.223 62.3326 289.559 61.7118 288.755 61.3377C287.951 60.9636 287.048 60.8557 286.178 61.0297C285.309 61.2036 284.517 61.6504 283.918 62.305C283.32 62.9596 282.946 63.788 282.85 64.6698C281.19 64.1798 279.21 63.7598 277.85 64.8598C276.49 65.9598 276.52 67.7598 276.55 69.3798C276.531 71.311 276.719 73.2387 277.11 75.1298C277.86 78.0552 279.585 80.6373 282 82.4498C283.153 83.6529 284.662 84.4532 286.304 84.7324C287.947 85.0115 289.635 84.7547 291.12 83.9998" fill="#263238"/>
<path d="M308.24 86C309.22 85.2171 309.854 84.0809 310.006 82.8355C310.157 81.5902 309.814 80.3351 309.05 79.34C308.206 78.4146 307.033 77.8566 305.783 77.7855C304.532 77.7145 303.304 78.1361 302.36 78.96C301.85 79.45 301.36 80.09 300.68 80.13C300 80.17 299.47 79.6601 298.92 79.2901C298.199 78.8172 297.358 78.5596 296.496 78.5473C295.633 78.5351 294.785 78.7688 294.051 79.2209C293.316 79.6731 292.726 80.3251 292.349 81.1006C291.971 81.8762 291.823 82.7431 291.92 83.6C289.61 82.6 286.41 82.9001 285.25 85.1201C284.25 87.1201 285.41 89.69 287.33 90.83C289.349 91.8301 291.647 92.119 293.85 91.6501C299.152 90.87 304.084 88.4706 307.97 84.7801" fill="#241B99"/>
<path d="M293.87 86.09C293.81 86.22 293.05 85.93 292.49 85.14C291.93 84.35 291.91 83.54 292.05 83.52C292.19 83.5 292.43 84.16 292.92 84.83C293.41 85.5 293.94 86 293.87 86.09Z" fill="white"/>
<path d="M302.07 85.51C301.91 85.51 302.01 84.37 301.66 83.06C301.31 81.75 300.66 80.83 300.8 80.73C300.94 80.63 301.8 81.5 302.16 82.93C302.469 83.7685 302.437 84.695 302.07 85.51Z" fill="white"/>
<path d="M306.47 84.4298C306.32 84.4298 306.62 83.2798 306.36 81.9398C306.1 80.5998 305.46 79.6698 305.58 79.5698C305.945 79.8364 306.249 80.1777 306.471 80.5708C306.693 80.964 306.829 81.4 306.87 81.8498C306.995 82.2831 307.024 82.7384 306.955 83.184C306.886 83.6296 306.721 84.0548 306.47 84.4298Z" fill="white"/>
<path d="M290.59 88.9098C290.59 88.9698 290.23 88.9698 289.72 88.7598C289.056 88.4661 288.487 87.9913 288.08 87.3898C287.676 86.7995 287.45 86.1051 287.43 85.3898C287.43 84.8398 287.54 84.5098 287.61 84.5198C287.764 85.4302 288.068 86.3088 288.51 87.1198C289.36 88.3698 290.64 88.7698 290.59 88.9098Z" fill="white"/>
<path d="M337.64 137.86C339.336 137.305 340.769 136.145 341.665 134.601C342.562 133.058 342.859 131.238 342.5 129.49C343.477 128.808 344.305 127.933 344.931 126.919C345.558 125.905 345.97 124.774 346.144 123.594C346.317 122.415 346.247 121.213 345.939 120.062C345.63 118.91 345.09 117.834 344.35 116.9C345.282 116.102 345.953 115.043 346.278 113.86C346.604 112.678 346.568 111.425 346.175 110.262C345.783 109.1 345.052 108.082 344.076 107.338C343.1 106.595 341.925 106.16 340.7 106.09C341.226 104.722 341.382 103.239 341.15 101.792C340.918 100.345 340.308 98.9844 339.381 97.8491C338.454 96.7139 337.243 95.8441 335.871 95.3279C334.499 94.8116 333.016 94.6674 331.57 94.9098C331.806 93.4404 331.607 91.9339 330.996 90.5767C330.385 89.2196 329.389 88.0714 328.132 87.2743C326.876 86.4772 325.413 86.0661 323.924 86.092C322.436 86.1178 320.988 86.5795 319.76 87.4198C316.03 82.3698 307.45 82.0598 303.36 86.8398C298.61 83.9398 291.54 86.1098 289.23 91.1698C286.13 88.2798 280.72 89.3098 277.9 92.4798C275.08 95.6498 274.42 100.21 274.76 104.48C273.636 105 272.67 105.809 271.961 106.824C271.251 107.839 270.824 109.024 270.722 110.258C270.621 111.493 270.848 112.732 271.382 113.849C271.916 114.967 272.736 115.923 273.76 116.62C271.897 119.134 271.085 122.273 271.496 125.375C271.907 128.477 273.507 131.297 275.96 133.24C275.608 135.945 276.062 138.694 277.267 141.142C278.471 143.59 280.372 145.628 282.73 147" fill="#263238"/>
<path d="M287.61 113.4L285.85 108.4L317.12 103.4C326.74 102.67 336.83 112.59 337.12 122.23C337.48 132.94 337.49 146.03 335.99 153.98C332.99 169.98 320.62 171.62 320.62 171.62L319.62 196.81L284.27 195.4L287.61 113.4Z" fill="#FFBE9D"/>
<path d="M331.33 132.74C331.315 133.265 331.1 133.765 330.728 134.137C330.356 134.509 329.856 134.725 329.33 134.74C328.801 134.759 328.287 134.567 327.899 134.207C327.511 133.847 327.281 133.348 327.26 132.82C327.26 132.289 327.471 131.78 327.846 131.405C328.221 131.03 328.73 130.82 329.26 130.82C329.789 130.801 330.304 130.992 330.692 131.352C331.08 131.712 331.309 132.211 331.33 132.74Z" fill="#263238"/>
<path d="M333.56 128.89C333.29 129.15 331.77 127.96 329.56 127.89C327.35 127.82 325.69 128.89 325.45 128.61C325.21 128.33 325.61 128.01 326.34 127.51C327.318 126.878 328.466 126.56 329.63 126.6C330.78 126.63 331.89 127.026 332.8 127.73C333.47 128.29 333.69 128.78 333.56 128.89Z" fill="#263238"/>
<path d="M309.47 131.58C309.47 132.11 309.26 132.619 308.885 132.994C308.51 133.369 308.001 133.58 307.47 133.58C306.943 133.599 306.43 133.409 306.042 133.051C305.654 132.693 305.424 132.197 305.4 131.67C305.415 131.144 305.631 130.644 306.003 130.272C306.375 129.9 306.875 129.685 307.4 129.67C307.928 129.651 308.441 129.841 308.829 130.199C309.216 130.556 309.447 131.053 309.47 131.58Z" fill="#263238"/>
<path d="M311.29 128.62C311.03 128.88 309.5 127.68 307.29 127.62C305.08 127.56 303.42 128.62 303.19 128.34C303.08 128.22 303.35 127.74 304.07 127.25C305.047 126.615 306.196 126.297 307.36 126.34C308.513 126.37 309.627 126.766 310.54 127.47C311.2 128 311.42 128.5 311.29 128.62Z" fill="#263238"/>
<path d="M319.33 145.32C320.511 144.996 321.726 144.815 322.95 144.78C323.52 144.78 324.05 144.64 324.16 144.26C324.23 143.676 324.114 143.085 323.83 142.57L322.29 138.22C320.15 132.02 318.61 126.93 318.86 126.85C319.11 126.77 321.05 131.72 323.2 137.91C323.713 139.443 324.203 140.903 324.67 142.29C325.002 142.984 325.083 143.772 324.9 144.52C324.807 144.722 324.668 144.899 324.495 145.038C324.321 145.177 324.117 145.274 323.9 145.32C323.574 145.403 323.237 145.436 322.9 145.42C321.711 145.539 320.511 145.506 319.33 145.32Z" fill="#263238"/>
<path d="M320.64 171.61C312.906 171.503 305.348 169.286 298.78 165.2C298.78 165.2 303.86 176.59 320.51 175.61L320.64 171.61Z" fill="#EB996E"/>
<path d="M310.52 117C310.4 117.63 308.17 117.7 305.66 118.43C303.15 119.16 301.18 120.19 300.76 119.71C300.56 119.48 300.83 118.87 301.58 118.15C302.444 117.084 303.695 116.404 305.06 116.26C306.36 115.881 307.733 115.822 309.06 116.09C310 116.31 310.57 116.7 310.52 117Z" fill="#263238"/>
<path d="M333.5 121.92C333.07 122.39 331.59 121.75 329.76 121.59C327.93 121.43 326.36 121.66 326.04 121.11C325.91 120.84 326.19 120.36 326.91 119.94C327.862 119.44 328.941 119.235 330.009 119.35C331.078 119.466 332.088 119.898 332.91 120.59C333.52 121.16 333.69 121.69 333.5 121.92Z" fill="#263238"/>
<path d="M303.61 103.1C303.935 104.393 304.582 105.583 305.49 106.56C305.96 107.03 306.587 107.312 307.25 107.351C307.914 107.389 308.569 107.183 309.09 106.77C309.453 107.158 309.897 107.461 310.391 107.656C310.885 107.851 311.416 107.933 311.946 107.896C312.476 107.86 312.991 107.706 313.453 107.445C313.916 107.185 314.315 106.824 314.62 106.39C315.401 107.115 316.397 107.565 317.458 107.67C318.518 107.774 319.583 107.529 320.49 106.97L325.28 107.97C327.01 108.35 329.16 108.58 330.23 107.17C330.47 106.84 330.65 106.42 331.03 106.25C331.43 106.14 331.851 106.14 332.25 106.25C332.943 106.293 333.635 106.161 334.262 105.865C334.89 105.57 335.433 105.121 335.84 104.56C336.644 103.431 337.249 102.173 337.63 100.84C338.32 98.8398 338.87 96.2398 337.24 94.8398C336.553 94.3586 335.761 94.0467 334.93 93.9298C333.308 93.4572 331.605 93.3278 329.93 93.5498C327.884 94.1131 326.109 95.3947 324.93 97.1598C325.101 96.6093 325.053 96.0141 324.796 95.4982C324.539 94.9823 324.093 94.5853 323.55 94.3898C322.999 94.2176 322.419 94.1563 321.844 94.2095C321.269 94.2627 320.711 94.4294 320.2 94.6998C318.653 95.4105 317.346 96.5573 316.44 97.9998C315.097 98.0018 313.781 98.3769 312.639 99.0832C311.496 99.7895 310.572 100.799 309.97 102C309.372 101.604 308.698 101.333 307.992 101.206C307.285 101.079 306.56 101.097 305.86 101.26C305.61 101.3 305.371 101.389 305.156 101.523C304.941 101.657 304.756 101.833 304.61 102.04C304.547 102.146 304.507 102.264 304.495 102.387C304.483 102.51 304.498 102.634 304.539 102.751C304.58 102.867 304.646 102.973 304.733 103.061C304.819 103.149 304.924 103.217 305.04 103.26" fill="#263238"/>
<path d="M319.09 104.05C318.669 105.123 318.608 106.305 318.919 107.415C319.23 108.525 319.894 109.504 320.811 110.203C321.728 110.902 322.848 111.283 324.001 111.288C325.154 111.292 326.277 110.921 327.2 110.23C327.593 111.321 328.361 112.236 329.367 112.813C330.372 113.39 331.55 113.591 332.69 113.38C332.68 114.753 333.04 116.103 333.731 117.289C334.423 118.475 335.421 119.453 336.62 120.12C336.021 121.511 335.978 123.078 336.5 124.5C336.797 125.425 337.447 126.194 338.31 126.64C338.848 126.83 339.42 126.908 339.989 126.868C340.558 126.829 341.113 126.673 341.62 126.41C342.378 126.126 343.068 125.689 343.65 125.126C344.231 124.564 344.691 123.888 345 123.14C345.277 122.381 345.275 121.547 344.995 120.789C344.715 120.031 344.174 119.397 343.47 119C344.869 117.726 345.968 116.159 346.69 114.41C347.18 113.44 347.274 112.317 346.95 111.28C346.852 111.034 346.701 110.812 346.509 110.63C346.316 110.448 346.086 110.31 345.835 110.226C345.583 110.143 345.316 110.115 345.053 110.145C344.79 110.175 344.536 110.262 344.31 110.4C344.731 109.618 344.922 108.732 344.863 107.846C344.803 106.959 344.494 106.108 343.971 105.389C343.449 104.671 342.735 104.114 341.91 103.783C341.085 103.453 340.184 103.361 339.31 103.52C339.301 102.772 339.078 102.043 338.667 101.418C338.256 100.794 337.674 100.3 336.991 99.9959C336.308 99.6917 335.552 99.5897 334.813 99.7021C334.073 99.8145 333.382 100.137 332.82 100.63" fill="#263238"/>
<path d="M299.91 102.25C300.06 100.31 298.2 98.6598 296.27 98.3898C294.311 98.2754 292.362 98.7452 290.67 99.7398C289.754 98.6783 288.534 97.9233 287.175 97.5764C285.816 97.2295 284.384 97.3075 283.07 97.7998C280.48 98.7998 278.82 101.31 276.69 103.1C275.46 103.923 274.366 104.936 273.45 106.1C272.67 107.35 272.69 109.29 273.97 110.04C273.122 110.335 272.369 110.853 271.79 111.54C271.211 112.226 270.827 113.056 270.68 113.942C270.533 114.828 270.627 115.738 270.952 116.575C271.278 117.412 271.823 118.146 272.53 118.7C272.98 119.05 273.53 119.36 273.71 119.9C273.824 120.369 273.774 120.862 273.57 121.3C272.81 123.45 271.63 125.46 271.18 127.7C270.73 129.94 271.18 132.59 273.1 133.84C273.61 134.17 274.23 134.43 274.45 134.99C274.576 135.366 274.576 135.773 274.45 136.15C274.022 137.381 273.479 138.569 272.83 139.7C272.181 140.839 271.971 142.176 272.24 143.46C272.32 143.774 272.46 144.07 272.654 144.33C272.848 144.59 273.091 144.81 273.37 144.976C273.648 145.142 273.957 145.252 274.278 145.299C274.599 145.346 274.926 145.329 275.24 145.25C274.39 147.71 274.44 150.64 276.04 152.69C277.64 154.74 282.9 155.69 286.04 153.77L286.33 146.42C285.92 145.13 287.93 138.24 287.09 136.84C287.09 136.84 284.89 141.62 289.85 140.84C291.46 141.28 294.57 136.55 294.78 134.84C294.836 134.001 294.651 133.164 294.25 132.426C293.848 131.688 293.245 131.079 292.51 130.67C293.891 129.57 294.842 128.021 295.197 126.292C295.551 124.563 295.287 122.764 294.45 121.21C295.359 121.108 296.206 120.698 296.849 120.049C297.492 119.399 297.893 118.548 297.986 117.639C298.078 116.729 297.856 115.815 297.356 115.049C296.857 114.284 296.11 113.712 295.24 113.43C299.82 112.34 302.58 106.56 300.54 102.32" fill="#263238"/>
<path d="M275.92 103.7C275.92 103.7 275.67 103.84 275.36 104.25C274.924 104.869 274.665 105.595 274.61 106.35C274.553 106.948 274.627 107.552 274.827 108.118C275.027 108.685 275.349 109.201 275.77 109.63C276.329 110.193 277.025 110.601 277.79 110.811C278.555 111.022 279.362 111.028 280.13 110.83L279.73 110.43C279.628 110.851 279.611 111.288 279.68 111.716C279.75 112.143 279.905 112.552 280.136 112.919C280.367 113.285 280.67 113.601 281.026 113.849C281.382 114.096 281.784 114.269 282.208 114.357C282.632 114.446 283.07 114.448 283.495 114.364C283.92 114.28 284.323 114.112 284.682 113.868C285.04 113.625 285.346 113.312 285.581 112.948C285.816 112.584 285.976 112.177 286.05 111.75H285.3C285.411 112.277 285.652 112.769 286.001 113.179C286.351 113.589 286.797 113.906 287.3 114.1C287.937 114.354 288.64 114.393 289.3 114.21C289.997 114.03 290.602 113.599 291 113C291.358 112.458 291.549 111.824 291.549 111.175C291.549 110.526 291.358 109.891 291 109.35L290.53 109.89C291.511 110.412 292.587 110.73 293.695 110.823C294.802 110.915 295.916 110.782 296.97 110.43C298.626 109.86 300.037 108.741 300.97 107.26C301.583 106.313 301.973 105.239 302.11 104.12C302.193 103.727 302.193 103.322 302.11 102.93C301.903 104.385 301.374 105.775 300.56 107C299.632 108.337 298.29 109.332 296.74 109.83C295.767 110.129 294.744 110.232 293.731 110.13C292.717 110.029 291.735 109.726 290.84 109.24L289.39 108.43L290.39 109.77C290.662 110.188 290.806 110.676 290.806 111.175C290.806 111.673 290.662 112.161 290.39 112.58C290.109 113.021 289.679 113.347 289.178 113.498C288.677 113.648 288.138 113.613 287.66 113.4C287.275 113.255 286.931 113.018 286.659 112.709C286.387 112.401 286.195 112.03 286.1 111.63L285.69 109.36L285.35 111.64C285.276 111.985 285.134 112.311 284.931 112.6C284.728 112.889 284.469 113.134 284.169 113.321C283.87 113.507 283.536 113.632 283.187 113.686C282.839 113.741 282.483 113.725 282.14 113.64C281.528 113.422 281.015 112.99 280.696 112.424C280.376 111.859 280.271 111.197 280.4 110.56L280.56 110L280 110.16C279.338 110.344 278.639 110.354 277.972 110.189C277.305 110.024 276.691 109.691 276.19 109.22C275.805 108.853 275.5 108.411 275.295 107.92C275.09 107.429 274.99 106.901 275 106.37C275.05 105.411 275.369 104.486 275.92 103.7Z" fill="#565388"/>
<path d="M335.72 94.8698C335.849 95.1587 335.907 95.474 335.89 95.7898C335.876 95.9649 335.821 96.1344 335.731 96.2852C335.641 96.436 335.517 96.5641 335.37 96.6598C335.178 96.7795 334.956 96.8429 334.73 96.8429C334.504 96.8429 334.282 96.7795 334.09 96.6598L333.44 96.2098L333.76 96.9398C333.982 97.5231 334.027 98.1593 333.888 98.768C333.749 99.3766 333.433 99.9305 332.98 100.36C332.394 100.866 331.634 101.126 330.861 101.085C330.087 101.044 329.36 100.705 328.83 100.14L328.45 99.7298L328.23 100.25C327.858 101.107 327.277 101.857 326.54 102.431C325.802 103.004 324.933 103.383 324.01 103.533C323.088 103.682 322.143 103.597 321.262 103.285C320.382 102.974 319.593 102.446 318.97 101.75L318.73 101.48L318.46 101.71C317.141 102.815 315.549 103.544 313.85 103.82C312.504 104.061 311.124 104.031 309.79 103.73C308.603 103.413 307.456 102.964 306.37 102.39C306.37 102.39 306.6 102.66 307.14 103.03C307.917 103.549 308.776 103.934 309.68 104.17C311.066 104.554 312.517 104.646 313.94 104.44C315.774 104.187 317.503 103.437 318.94 102.27H318.43C319.13 103.068 320.021 103.676 321.02 104.035C322.019 104.395 323.093 104.494 324.141 104.324C325.189 104.154 326.177 103.72 327.011 103.064C327.845 102.407 328.499 101.549 328.91 100.57L328.31 100.67C328.88 101.303 329.657 101.711 330.502 101.819C331.347 101.928 332.202 101.73 332.913 101.262C333.625 100.794 334.145 100.086 334.379 99.2675C334.613 98.4488 334.546 97.5733 334.19 96.7998L333.85 97.0798C334.115 97.2376 334.42 97.3141 334.727 97.2999C335.035 97.2857 335.331 97.1813 335.58 96.9998C335.758 96.8652 335.901 96.6914 336 96.4918C336.099 96.2923 336.151 96.0725 336.15 95.8498C336.11 95.0798 335.72 94.8298 335.72 94.8698Z" fill="#565388"/>
<path d="M307.49 85.25C307.49 85.31 307.82 85.12 308.41 85.08C308.819 85.0635 309.227 85.1344 309.606 85.2878C309.986 85.4413 310.328 85.6738 310.61 85.97C310.997 86.434 311.267 86.9839 311.398 87.5738C311.528 88.1636 311.515 88.7761 311.36 89.36C310.92 90.8433 310.108 92.1893 309 93.27L309.55 93.8C309.92 93.42 310.81 93.8 311.05 94.28C311.176 94.5997 311.237 94.9415 311.228 95.285C311.219 95.6286 311.142 95.9669 311 96.28C310.562 97.4617 309.881 98.5383 309 99.44C308.123 100.237 307.176 100.953 306.17 101.58C306.17 101.58 306.53 101.58 307.12 101.31C307.95 100.944 308.713 100.444 309.38 99.83C310.392 98.9187 311.179 97.7859 311.68 96.52C311.864 96.1234 311.965 95.6932 311.975 95.2562C311.985 94.8192 311.906 94.3847 311.74 93.98C311.511 93.5138 311.109 93.1552 310.62 92.98C310.36 92.8773 310.076 92.8473 309.799 92.8931C309.523 92.9389 309.264 93.0588 309.05 93.24L309.6 93.77C310.783 92.5877 311.625 91.1095 312.04 89.49C312.206 88.8047 312.197 88.089 312.016 87.4079C311.834 86.7268 311.485 86.1019 311 85.59C310.659 85.2582 310.243 85.0126 309.787 84.8735C309.331 84.7343 308.849 84.7057 308.38 84.79C307.72 84.93 307.46 85.22 307.49 85.25Z" fill="#565388"/>
<path d="M281.3 91.0596C282.203 90.6989 283.152 90.4699 284.12 90.3796C285.188 90.337 286.247 90.5895 287.18 91.1096C288.356 91.7846 289.264 92.844 289.75 94.1096L290 94.7596L290.39 94.1796C290.794 93.6042 291.369 93.1705 292.033 92.94C292.697 92.7094 293.417 92.6937 294.091 92.895C294.765 93.0963 295.358 93.5045 295.787 94.0617C296.215 94.6189 296.458 95.2969 296.48 95.9996V96.4496L296.91 96.3496C297.559 96.2182 298.228 96.2288 298.872 96.3807C299.516 96.5327 300.119 96.8223 300.64 97.2296C301.479 97.8859 302.051 98.8238 302.25 99.8696C302.393 100.829 302.328 101.808 302.06 102.74C302.06 102.74 302.27 102.53 302.46 102.04C302.727 101.322 302.81 100.548 302.7 99.7896C302.546 98.5786 301.938 97.471 301 96.6896C300.414 96.2028 299.726 95.8518 298.988 95.6616C298.25 95.4714 297.479 95.4469 296.73 95.5896L297.17 95.9396C297.162 95.0735 296.877 94.2326 296.356 93.5405C295.836 92.8483 295.107 92.3414 294.276 92.0942C293.446 91.8469 292.559 91.8723 291.744 92.1667C290.929 92.461 290.231 93.0088 289.75 93.7296L290.39 93.8096C289.808 92.407 288.744 91.2581 287.39 90.5696C286.35 90.031 285.175 89.8085 284.01 89.9296C283.257 90.0018 282.527 90.2228 281.86 90.5796C281.49 90.8296 281.28 90.9996 281.3 91.0596Z" fill="#565388"/>
<path d="M281.43 65.6099C281.83 65.1086 282.335 64.7022 282.91 64.4199C283.237 64.2715 283.59 64.1889 283.948 64.1769C284.307 64.1649 284.665 64.2237 285 64.3499C285.433 64.5153 285.819 64.784 286.124 65.1326C286.429 65.4812 286.644 65.8991 286.75 66.3499L287.09 67.8499L287.33 66.3299C287.48 65.573 287.841 64.8741 288.372 64.3146C288.903 63.7552 289.582 63.3582 290.33 63.1699C291.204 62.9941 292.112 63.115 292.909 63.5136C293.706 63.9121 294.347 64.5655 294.73 65.3699L294.89 65.7099L295.23 65.5599C295.693 65.3685 296.19 65.2732 296.69 65.2799C297.548 65.2639 298.386 65.5332 299.074 66.0454C299.762 66.5576 300.26 67.2838 300.49 68.1099C300.669 68.8537 300.636 69.6324 300.395 70.3585C300.155 71.0846 299.717 71.7292 299.13 72.2199L298.22 72.9099L299.36 72.7999C299.934 72.7578 300.508 72.8747 301.02 73.1375C301.531 73.4004 301.961 73.7991 302.26 74.2899C302.49 74.6775 302.627 75.1126 302.662 75.5616C302.697 76.0107 302.628 76.4617 302.46 76.8799C302.144 77.631 301.616 78.2738 300.94 78.7299C300.94 78.7299 301.18 78.7299 301.56 78.4799C302.111 78.123 302.54 77.6068 302.79 76.9999C303.012 76.5279 303.119 76.0104 303.104 75.4892C303.088 74.968 302.95 74.4578 302.7 73.9999C302.361 73.3987 301.86 72.9053 301.253 72.5763C300.646 72.2473 299.959 72.0961 299.27 72.1399L299.5 72.7199C300.208 72.1625 300.743 71.4152 301.042 70.5653C301.342 69.7154 301.393 68.7979 301.19 67.9199C300.926 66.9269 300.338 66.0505 299.519 65.4293C298.7 64.808 297.698 64.4775 296.67 64.4899C296.066 64.487 295.468 64.606 294.91 64.8399L295.41 65.0399C295.013 64.1345 294.332 63.3831 293.469 62.8996C292.607 62.416 291.61 62.2266 290.63 62.3599C289.651 62.4933 288.741 62.9421 288.039 63.6386C287.337 64.3351 286.881 65.2412 286.74 66.2199H287.32C287.178 65.6857 286.905 65.1951 286.526 64.7921C286.147 64.389 285.675 64.0859 285.15 63.9099C284.758 63.7836 284.344 63.738 283.933 63.7758C283.522 63.8136 283.123 63.9341 282.76 64.1299C282.306 64.3588 281.919 64.7037 281.64 65.1299C281.45 65.4199 281.41 65.5999 281.43 65.6099Z" fill="#565388"/>
<path d="M288.79 133.31C288.56 133.19 279.73 129.6 279.08 138.92C278.43 148.24 287.92 146.92 287.95 146.7C287.98 146.48 288.79 133.31 288.79 133.31Z" fill="#FFBE9D"/>
<path d="M285.35 143C285.35 143 285.18 143.1 284.9 143.21C284.505 143.348 284.07 143.327 283.69 143.15C282.69 142.72 282.01 141.1 282.08 139.42C282.11 138.616 282.322 137.83 282.7 137.12C282.808 136.836 282.982 136.583 283.209 136.381C283.435 136.179 283.706 136.035 284 135.96C284.191 135.921 284.389 135.951 284.559 136.044C284.729 136.138 284.861 136.289 284.93 136.47C285.04 136.74 284.93 136.93 285.01 136.95C285.09 136.97 285.22 136.8 285.18 136.41C285.14 136.176 285.024 135.962 284.85 135.8C284.605 135.592 284.291 135.485 283.97 135.5C283.582 135.55 283.213 135.698 282.898 135.931C282.583 136.164 282.332 136.473 282.17 136.83C281.718 137.61 281.464 138.489 281.43 139.39C281.36 141.27 282.2 143.09 283.52 143.58C283.766 143.668 284.028 143.7 284.287 143.674C284.547 143.648 284.797 143.564 285.02 143.43C285.32 143.19 285.39 143 285.35 143Z" fill="#EB996E"/>
<path d="M312.94 148.4C313.315 148.045 313.769 147.784 314.264 147.639C314.76 147.495 315.283 147.471 315.79 147.57C316.295 147.674 316.768 147.896 317.171 148.218C317.574 148.539 317.896 148.951 318.11 149.42C318.28 149.809 318.368 150.23 318.368 150.655C318.368 151.08 318.28 151.501 318.11 151.89C317.862 152.434 317.448 152.885 316.927 153.177C316.406 153.469 315.805 153.588 315.212 153.515C314.619 153.443 314.064 153.183 313.629 152.774C313.193 152.365 312.899 151.827 312.79 151.24C312.57 150.07 312.2 148.7 313.24 148.13" fill="#EB996E"/>
<path d="M312.8 146C313.15 146 313.31 148.3 315.44 149.84C317.57 151.38 320.04 150.95 320.08 151.27C320.08 151.42 319.55 151.77 318.5 151.86C317.125 151.977 315.753 151.602 314.63 150.8C313.554 150.028 312.816 148.872 312.57 147.57C312.42 146.6 312.64 146 312.8 146Z" fill="#263238"/>
<path d="M277.85 176.06L284.2 175L319.93 178.17L332.71 184.24L336.1 186.24C336.1 186.24 322.81 204.73 309.2 203.73C295.59 202.73 272.06 183.31 272.06 183.31L272 177L277.85 176.06Z" fill="#FFBE9D"/>
<path d="M378.72 206.27L349.47 189.4C345.86 188.19 328.99 182.46 328.99 182.46C328.99 182.46 315.88 203.27 305.05 201.93C299.18 201.2 292.05 196.13 286.77 191.64C282.24 187.779 278.369 183.206 275.31 178.1L274.13 176.1C269 176.1 253.05 179.96 247.4 181.36C246.059 181.694 244.844 182.41 243.9 183.42C240.78 186.77 234.73 193.15 233.44 199.42C232.22 205.42 227.2 224.74 227.2 224.74L371 220.41L378.72 206.27Z" fill="#241B99"/>
<path d="M424.88 206.76C422.69 207.81 404.56 213.93 403.75 214.85C402.94 215.77 378.09 207 378.09 207L371 220.41L435.1 219.02L424.88 206.76Z" fill="#FFBE9D"/>
<path d="M261.47 202.4C261.38 202.4 261.09 201.25 260.2 199.53C259.016 197.3 257.484 195.275 255.66 193.53C253.824 191.802 251.869 190.205 249.81 188.75C248.931 188.168 248.095 187.523 247.31 186.82C248.262 187.275 249.169 187.817 250.02 188.44C252.16 189.827 254.168 191.407 256.02 193.16C257.884 194.929 259.408 197.023 260.52 199.34C260.849 200.046 261.116 200.778 261.32 201.53C261.419 201.809 261.47 202.103 261.47 202.4Z" fill="#263238"/>
<path d="M347.79 215.19C347.633 214.198 347.569 213.194 347.6 212.19C347.6 210.34 347.6 207.79 347.73 204.98C347.86 202.17 348.08 199.62 348.29 197.78C348.344 196.767 348.498 195.762 348.75 194.78C348.799 195.781 348.766 196.784 348.65 197.78C348.54 199.78 348.4 202.25 348.25 204.97C348.1 207.69 348.05 210.16 347.97 212.16C347.989 213.173 347.929 214.186 347.79 215.19Z" fill="#263238"/>
<path d="M279.92 185.82C279.92 185.82 279.86 185.93 279.71 186.11C279.491 186.376 279.246 186.62 278.98 186.84C277.998 187.664 276.837 188.25 275.59 188.55C273.729 189.024 271.766 188.898 269.98 188.19C268.935 187.754 267.984 187.118 267.18 186.32C266.34 185.52 265.57 184.62 264.69 183.81C263.06 182.287 260.921 181.425 258.69 181.39C256.86 181.357 255.066 181.899 253.56 182.94C252.537 183.636 251.661 184.526 250.98 185.56C250.49 186.29 250.3 186.75 250.26 186.73C250.22 186.71 250.26 186.61 250.36 186.38C250.482 186.059 250.629 185.748 250.8 185.45C251.443 184.344 252.312 183.387 253.35 182.64C254.901 181.502 256.777 180.895 258.7 180.91C261.069 180.916 263.347 181.816 265.08 183.43C265.99 184.26 266.75 185.18 267.56 185.95C268.318 186.708 269.21 187.318 270.19 187.75C271.61 188.326 273.154 188.53 274.674 188.343C276.195 188.156 277.643 187.583 278.88 186.68C279.57 186.17 279.87 185.78 279.92 185.82Z" fill="white"/>
<path d="M346.8 201.46C346.8 201.46 346.49 200.92 345.8 199.98C344.721 198.635 343.381 197.522 341.86 196.71C339.464 195.396 336.694 194.931 334 195.39C332.24 195.737 330.575 196.457 329.117 197.503C327.66 198.548 326.443 199.894 325.55 201.45C324.486 203.263 323.988 205.352 324.12 207.45C324.185 208.52 324.53 209.555 325.12 210.45C325.762 211.376 326.695 212.063 327.77 212.4C328.317 212.567 328.895 212.607 329.46 212.517C330.025 212.427 330.562 212.209 331.03 211.88C332.017 211.193 332.717 210.168 333 209C333.263 207.789 333.1 206.525 332.54 205.42C331.988 204.263 331.148 203.268 330.1 202.53C327.859 201.03 325.137 200.423 322.47 200.83C319.68 201.222 317.027 202.285 314.74 203.93C309.96 207.14 306.19 212.02 300.88 215.3C298.266 216.956 295.27 217.91 292.18 218.07C289.179 218.229 286.184 217.66 283.45 216.41C280.788 215.224 278.53 213.289 276.95 210.84C276.211 209.661 275.72 208.343 275.509 206.967C275.297 205.591 275.369 204.187 275.72 202.84C276.024 201.53 276.663 200.321 277.574 199.332C278.486 198.344 279.639 197.609 280.92 197.2C282.138 196.862 283.422 196.844 284.649 197.149C285.875 197.454 287.002 198.071 287.92 198.94C288.772 199.817 289.316 200.947 289.47 202.16C289.581 203.316 289.388 204.481 288.91 205.54C288.016 207.528 286.416 209.113 284.42 209.99C282.595 210.701 280.61 210.898 278.68 210.56C276.976 210.268 275.325 209.725 273.78 208.95C271.357 207.655 269.058 206.142 266.91 204.43C265.12 203.07 263.69 202.06 262.69 201.43C262.19 201.12 261.8 200.88 261.53 200.73L261.14 200.49C261.14 200.49 261.29 200.55 261.56 200.69C261.83 200.83 262.23 201.04 262.74 201.35C263.74 201.95 265.22 202.93 267.03 204.26C269.182 205.943 271.485 207.423 273.91 208.68C275.432 209.431 277.056 209.953 278.73 210.23C280.595 210.548 282.511 210.347 284.27 209.65C286.172 208.804 287.694 207.282 288.54 205.38C288.984 204.386 289.16 203.293 289.05 202.21C288.917 201.08 288.415 200.025 287.62 199.21C286.752 198.396 285.688 197.82 284.532 197.538C283.375 197.256 282.166 197.277 281.02 197.6C279.82 197.995 278.742 198.693 277.89 199.627C277.039 200.561 276.443 201.698 276.16 202.93C275.82 204.22 275.751 205.567 275.958 206.886C276.164 208.204 276.642 209.465 277.36 210.59C278.886 212.955 281.073 214.819 283.65 215.95C286.305 217.166 289.214 217.722 292.13 217.57C295.134 217.405 298.046 216.476 300.59 214.87C305.79 211.66 309.59 206.79 314.44 203.52C316.805 201.821 319.553 200.732 322.44 200.35C325.238 199.92 328.096 200.563 330.44 202.15C331.537 202.935 332.418 203.984 333 205.2C333.601 206.404 333.767 207.778 333.47 209.09C333.166 210.364 332.409 211.484 331.34 212.24C330.815 212.602 330.215 212.841 329.584 212.938C328.954 213.035 328.31 212.988 327.7 212.8C326.539 212.429 325.533 211.683 324.84 210.68C324.187 209.715 323.804 208.593 323.73 207.43C323.609 205.272 324.135 203.127 325.24 201.27C326.166 199.676 327.423 198.3 328.928 197.235C330.433 196.17 332.149 195.442 333.96 195.1C336.198 194.756 338.488 195.023 340.587 195.871C342.687 196.719 344.519 198.118 345.89 199.92C346.244 200.402 346.548 200.918 346.8 201.46Z" fill="white"/>
<path d="M367.35 199.71C367.292 200 367.184 200.278 367.03 200.53C366.678 201.257 366.248 201.944 365.75 202.58C365.011 203.527 364.142 204.365 363.17 205.07C361.977 205.933 360.68 206.642 359.31 207.18C356.813 208.159 354.108 208.486 351.45 208.13C350.653 208.017 349.867 207.837 349.1 207.59C348.812 207.522 348.537 207.404 348.29 207.24C348.29 207.15 349.5 207.57 351.49 207.76C354.082 208.008 356.696 207.641 359.12 206.69C361.562 205.789 363.74 204.294 365.46 202.34C366.75 200.82 367.26 199.66 367.35 199.71Z" fill="white"/>
<path d="M376.73 206C376.73 206 376.4 205.84 375.8 205.68C374.94 205.476 374.041 205.497 373.19 205.74C371.939 206.153 370.774 206.79 369.75 207.62C368.55 208.52 367.25 209.56 365.95 210.71C363.729 212.684 361.66 214.824 359.76 217.11C358.29 218.86 357.47 220.01 357.4 219.97C357.526 219.657 357.691 219.361 357.89 219.09C358.24 218.56 358.77 217.79 359.47 216.88C362.312 213.193 365.682 209.945 369.47 207.24C370.546 206.388 371.78 205.76 373.1 205.39C374.011 205.158 374.969 205.193 375.86 205.49C376.19 205.58 376.491 205.756 376.73 206Z" fill="white"/>
<path d="M336.83 186.42C336.442 186.88 335.957 187.249 335.41 187.5C332.862 188.925 329.876 189.353 327.03 188.7C326.437 188.61 325.87 188.392 325.37 188.06C327.306 188.461 329.292 188.566 331.26 188.37C333.206 188.01 335.085 187.352 336.83 186.42Z" fill="white"/>
<path d="M250.59 221.2C250.62 219.728 250.563 218.255 250.42 216.79C249.973 213.273 248.592 209.941 246.42 207.14C245.217 205.62 243.811 204.274 242.24 203.14C240.946 202.217 239.533 201.474 238.04 200.93C236.642 200.476 235.216 200.115 233.77 199.85C234.169 199.801 234.571 199.801 234.97 199.85C236.055 199.966 237.124 200.198 238.16 200.54C239.709 201.046 241.174 201.777 242.51 202.71C244.144 203.856 245.6 205.237 246.83 206.81C249.084 209.67 250.472 213.116 250.83 216.74C250.935 217.827 250.935 218.922 250.83 220.01C250.806 220.416 250.725 220.816 250.59 221.2Z" fill="white"/>
<g opacity="0.3">
<path opacity="0.3" d="M260.77 216.16C259.986 215.567 259.054 215.2 258.076 215.097C257.098 214.995 256.11 215.162 255.22 215.58C254.47 215.94 253.81 216.48 253.04 216.81C252.669 217.003 252.253 217.092 251.836 217.068C251.418 217.043 251.016 216.905 250.67 216.67C250.1 216.2 249.95 215.4 249.51 214.81C248.7 213.72 247.11 213.55 245.77 213.81C244.467 214.185 243.125 214.403 241.77 214.46C240.445 214.212 239.146 213.84 237.89 213.35C236.427 212.983 234.891 213.038 233.458 213.506C232.025 213.975 230.753 214.84 229.79 216L227.37 223.16L262.73 221.41C262.917 220.439 262.833 219.436 262.488 218.509C262.142 217.583 261.548 216.77 260.77 216.16Z" fill="black"/>
</g>
<path d="M272.63 220.77C272.54 220.77 272.23 219.84 271.26 218.58C270.023 216.927 268.264 215.738 266.269 215.207C264.273 214.675 262.156 214.831 260.26 215.65C258.8 216.26 258.04 216.95 257.99 216.87C257.94 216.79 258.13 216.66 258.48 216.36C258.978 215.944 259.525 215.591 260.11 215.31C262.067 214.34 264.309 214.115 266.419 214.676C268.53 215.237 270.364 216.547 271.58 218.36C271.951 218.893 272.253 219.471 272.48 220.08C272.576 220.297 272.627 220.532 272.63 220.77Z" fill="white"/>
<g opacity="0.3">
<path opacity="0.3" d="M356.37 217.15C353.979 216.67 351.743 215.609 349.86 214.06C348.08 212.41 347.08 209.7 348.05 207.47C346.44 211.158 343.799 214.302 340.444 216.525C337.089 218.748 333.164 219.954 329.14 220L363.27 219.44C361.072 218.399 358.755 217.63 356.37 217.15Z" fill="black"/>
</g>
<path d="M186.35 220.68C186.35 220.68 183.66 381.47 205.87 489.68L482.6 488.81L410.16 219.4L186.35 220.68Z" fill="#E0E0E0"/>
<path d="M186.35 220.68L410.16 219.18H410.33V219.34C431 296 455.91 388.59 482.85 488.7L482.94 489.02H482.6L460.6 489.09L205.87 489.86H205.68V489.68C204.76 484.706 203.847 479.79 202.94 474.93C202.5 472.49 202 470.08 201.63 467.66C201.26 465.24 200.89 462.84 200.52 460.45C199.8 455.663 199.084 450.933 198.37 446.26C197.777 441.593 197.194 436.96 196.62 432.36C196.33 430.08 196.04 427.8 195.76 425.55C195.48 423.3 195.28 421.04 195.04 418.8C194.574 414.34 194.114 409.936 193.66 405.59C193.17 401.24 192.87 396.95 192.49 392.72C192.11 388.49 191.77 384.33 191.42 380.23C188.88 347.43 187.71 318.73 187.01 295.09C186.31 271.45 186.22 252.84 186.22 240.15C186.22 233.8 186.22 228.94 186.29 225.66C186.29 224.02 186.29 222.78 186.29 221.94C186.29 221.1 186.29 220.8 186.29 220.68C186.29 221.17 186.29 227.52 186.29 240.15C186.29 252.78 186.51 271.44 187.21 295.08C187.91 318.72 189.15 347.41 191.73 380.2C192.084 384.3 192.444 388.463 192.81 392.69C193.19 396.91 193.49 401.21 193.98 405.55C194.47 409.89 194.9 414.29 195.37 418.76C195.61 420.99 195.82 423.24 196.1 425.5C196.38 427.76 196.67 430.03 196.96 432.31C197.54 436.876 198.13 441.506 198.73 446.2C199.444 450.866 200.16 455.593 200.88 460.38C201.254 462.766 201.624 465.17 201.99 467.59C202.37 470 202.87 472.41 203.31 474.85C204.21 479.71 205.124 484.623 206.05 489.59L205.83 489.4L460.56 488.57L482.56 488.5L482.31 488.83C455.44 388.72 430.57 296.15 410 219.45L410.2 219.61L186.35 220.68Z" fill="#263238"/>
<path d="M186.35 220.68C186.35 220.68 186.12 241.88 189.7 279.6C192.08 304.6 191.81 337.36 198.43 379.14C212.43 467.41 219.79 480.9 219.79 480.9L489.73 479.12L417.85 216.74L186.35 220.68Z" fill="#EBEBEB"/>
<path d="M186.35 220.68L417.85 216.52H418V216.68C438.59 291.78 463.3 381.93 489.92 479.05L490.01 479.38H489.67L474.96 479.48L219.73 481.13H219.58V481.01C218.594 478.736 217.765 476.397 217.1 474.01C216.38 471.67 215.74 469.33 215.1 467.01C214.46 464.69 213.9 462.35 213.36 460.01C212.82 457.67 212.27 455.38 211.75 453.08C209.71 443.86 207.877 434.83 206.25 425.99C202.94 408.32 200.16 391.49 197.69 375.65C196.48 367.73 195.52 360.02 194.69 352.57C193.86 345.12 193.35 338 192.86 331C191.86 317.16 191.31 304.42 190.59 292.93C190.25 287.18 189.79 281.75 189.32 276.64C188.85 271.53 188.46 266.74 188.12 262.28C187.46 253.35 187.03 245.75 186.76 239.58C186.49 233.41 186.39 228.67 186.35 225.48C186.35 223.89 186.35 222.68 186.35 221.87C186.35 221.06 186.35 220.64 186.35 220.64C186.35 220.88 186.35 222.34 186.42 225.48C186.49 228.62 186.62 233.4 186.9 239.57C187.18 245.74 187.64 253.34 188.33 262.26C188.67 266.72 189.077 271.507 189.55 276.62C190.04 281.73 190.55 287.16 190.86 292.91C191.6 304.41 192.16 317.14 193.18 330.98C193.68 337.9 194.327 345.087 195.12 352.54C195.9 359.98 196.87 367.68 198.12 375.6C200.6 391.43 203.39 408.25 206.71 425.91C208.35 434.75 210.193 443.773 212.24 452.98C212.76 455.28 213.24 457.6 213.85 459.91C214.46 462.22 214.98 464.55 215.59 466.91C216.2 469.27 216.85 471.58 217.59 473.91C218.257 476.251 219.075 478.546 220.04 480.78L219.84 480.67L475 479L489.71 478.9L489.46 479.23C462.89 382.06 438.2 291.9 417.65 216.8L417.86 216.96L186.35 220.68Z" fill="#263238"/>
<path d="M442.28 229.2L186.57 233.56C185.49 302.91 209.9 411.15 227.81 468.09L496.16 465.28C468.69 392.32 437.09 309.37 442.28 229.2Z" fill="#F5F5F5"/>
<path d="M442.28 229.2C442.28 229.43 442.28 230.77 442.14 233.65C442.087 235.13 442.027 236.96 441.96 239.14C441.96 241.31 441.72 243.85 441.83 246.7C441.97 252.41 441.92 259.45 442.62 267.7C442.76 269.77 442.91 271.91 443.05 274.13C443.19 276.35 443.55 278.62 443.8 280.98C444.05 283.34 444.34 285.78 444.62 288.28C444.9 290.78 445.36 293.34 445.74 295.98C446.12 298.62 446.56 301.33 446.98 304.1C447.4 306.87 447.98 309.69 448.57 312.59C449.16 315.49 449.63 318.45 450.31 321.46C450.99 324.47 451.67 327.54 452.38 330.68C452.74 332.25 453.07 333.84 453.46 335.43L454.68 340.25C455.507 343.49 456.35 346.793 457.21 350.16C458.21 353.5 459.11 356.9 460.09 360.37C460.58 362.09 461.09 363.85 461.58 365.6C462.07 367.35 462.65 369.11 463.2 370.89C471.74 399.39 483.41 430.89 496.37 465.19L496.48 465.49H496.16L236.71 468.25L227.81 468.34H227.62L227.56 468.16C221.09 447.31 215.56 426.53 210.71 406.07C205.86 385.61 201.61 365.45 198.03 345.73C194.45 326.01 191.52 306.73 189.43 287.97C187.28 269.911 186.248 251.736 186.34 233.55V233.33H186.56L442.28 229.2L186.57 233.79L186.79 233.56C186.714 251.73 187.756 269.888 189.91 287.93C192.01 306.66 194.91 325.93 198.52 345.65C202.13 365.37 206.34 385.51 211.21 405.96C216.08 426.41 221.59 447.18 228.06 468.01L227.8 467.83L236.71 467.74L496.16 465.05L495.95 465.36C483.02 431.06 471.37 399.53 462.85 371L461.24 365.71C460.71 363.96 460.24 362.2 459.75 360.47C458.777 357.01 457.823 353.606 456.89 350.26C455.957 346.913 455.117 343.606 454.37 340.34C453.96 338.71 453.55 337.11 453.15 335.52C452.75 333.93 452.43 332.33 452.07 330.76C451.37 327.62 450.687 324.543 450.02 321.53C449.34 318.53 448.86 315.53 448.29 312.65C447.72 309.77 447.18 306.93 446.71 304.16L445.48 296C445.11 293.36 444.64 290.8 444.38 288.29C444.12 285.78 443.83 283.35 443.57 280.99C443.31 278.63 443.05 276.34 442.84 274.13C442.63 271.92 442.56 269.76 442.42 267.69C441.74 259.43 441.81 252.38 441.7 246.69C441.59 243.83 441.81 241.33 441.86 239.15C441.91 236.97 442.02 235.15 442.08 233.68C442.21 230.78 442.27 229.44 442.28 229.2Z" fill="#263238"/>
<path d="M442.74 216.32L186.35 220.68C185.27 290.03 196.64 353.74 214.54 410.68L288.54 456.5L503.3 452.84C475.81 379.88 437.56 296.49 442.74 216.32Z" fill="#FAFAFA"/>
<path d="M442.74 216.32C442.74 216.55 442.68 217.9 442.56 220.81C442.49 222.3 442.4 224.16 442.4 226.35C442.4 228.54 442.29 231.09 442.4 233.96C442.678 250.611 444.377 267.208 447.48 283.57C451.32 304.74 458.1 330.06 467.89 358.42C472.76 372.61 478.34 387.57 484.39 403.28C490.44 418.99 496.98 435.46 503.51 452.76L503.62 453.06H503.31L288.54 456.76H288.46H288.4L256.4 436.92L214.46 410.92H214.38V410.83C204.248 378.636 196.757 345.67 191.98 312.26C187.701 281.951 185.772 251.356 186.21 220.75V220.53H186.43L442.83 216.39L186.35 220.91L186.57 220.69C186.151 251.271 188.093 281.838 192.38 312.12C197.165 345.5 204.659 378.436 214.79 410.6L214.68 410.46L256.61 436.46L288.61 456.31H288.47L503.24 452.68L503.03 452.99C496.51 435.69 490.03 419.22 483.95 403.5C477.87 387.78 472.34 372.81 467.48 358.61C457.72 330.23 450.97 304.88 447.16 283.69C444.072 267.314 442.399 250.703 442.16 234.04C442.08 231.16 442.16 228.61 442.21 226.42C442.26 224.23 442.33 222.42 442.41 220.9C442.66 217.91 442.73 216.55 442.74 216.32Z" fill="#263238"/>
<path d="M214.75 410.66L279.9 403.66L288.52 456.5L214.75 410.66Z" fill="#E0E0E0"/>
<path d="M288.52 456.5C288.487 456.413 288.463 456.322 288.45 456.23L288.3 455.45L287.76 452.45C287.3 449.78 286.66 445.98 285.85 441.26C284.28 431.74 282.1 418.55 279.65 403.71L279.93 403.92L273.87 404.58L231.93 409L219.21 410.28L215.75 410.6L214.85 410.67C214.747 410.686 214.643 410.686 214.54 410.67C214.637 410.637 214.738 410.617 214.84 410.61L215.74 410.49L219.19 410.07L231.89 408.62L273.81 404.04L279.88 403.39H280.12V403.64C282.51 418.48 284.63 431.64 286.12 441.21C286.86 445.94 287.45 449.75 287.87 452.43C288.06 453.72 288.21 454.73 288.31 455.43L288.42 456.22C288.459 456.311 288.492 456.404 288.52 456.5Z" fill="#263238"/>
<path d="M394.61 288.64C394.61 288.78 360.07 289.49 317.45 290.21C274.83 290.93 240.27 291.41 240.27 291.27C240.27 291.13 274.81 290.42 317.44 289.69C360.07 288.96 394.61 288.49 394.61 288.64Z" fill="#263238"/>
<path d="M398.92 312.69C398.92 312.83 364.37 313.54 321.76 314.26C279.15 314.98 244.58 315.46 244.58 315.32C244.58 315.18 279.12 314.47 321.75 313.74C364.38 313.01 398.92 312.54 398.92 312.69Z" fill="#263238"/>
<path d="M408.58 336.65C408.58 336.79 374.04 337.5 331.42 338.22C288.8 338.94 254.25 339.42 254.24 339.28C254.23 339.14 288.78 338.43 331.41 337.7C374.04 336.97 408.58 336.5 408.58 336.65Z" fill="#263238"/>
<path d="M418.72 363.81C418.72 363.96 384.18 364.66 341.56 365.39C298.94 366.12 264.38 366.59 264.38 366.44C264.38 366.29 298.92 365.59 341.55 364.87C384.18 364.15 418.72 363.67 418.72 363.81Z" fill="#263238"/>
<path d="M430.15 389.08C430.15 389.22 395.6 389.92 352.98 390.65C310.36 391.38 275.81 391.85 275.8 391.71C275.79 391.57 310.35 390.86 352.97 390.13C395.59 389.4 430.14 388.93 430.15 389.08Z" fill="#263238"/>
<path d="M451.07 233.2C453.125 236.337 454.344 239.948 454.61 243.69C454.46 243.69 454 241.27 453.02 238.39C452.04 235.51 450.93 233.28 451.07 233.2Z" fill="#EB996E"/>
<path d="M455.47 227.06C455.63 226.99 456.19 228.3 456.47 229.96C456.753 230.954 456.858 231.99 456.78 233.02C456.349 232.07 456.072 231.057 455.96 230.02C455.721 229.047 455.557 228.058 455.47 227.06Z" fill="#EB996E"/>
<path d="M450.89 250.65C450.279 249.78 449.725 248.871 449.23 247.93C448.23 246.24 446.81 243.93 445.15 241.42C444.33 240.16 443.53 238.98 442.79 237.91C442.176 236.958 441.416 236.108 440.54 235.39C439.699 234.782 438.697 234.435 437.66 234.39C437.938 234.289 438.237 234.258 438.53 234.3C439.332 234.383 440.099 234.669 440.76 235.13C441.707 235.835 442.526 236.697 443.18 237.68C443.94 238.73 444.76 239.91 445.59 241.17C447.25 243.69 448.59 246.04 449.59 247.79C450.119 248.697 450.554 249.655 450.89 250.65Z" fill="#EB996E"/>
<path d="M439.46 235.54C439.55 235.54 439.63 236.33 440.03 237.54C440.545 239.107 441.398 240.541 442.53 241.74C443.231 242.361 443.867 243.052 444.43 243.8C444.878 244.466 445.121 245.248 445.13 246.05C445.191 246.76 445.088 247.475 444.83 248.14C444.73 248.14 444.88 247.33 444.76 246.08C444.705 245.361 444.456 244.67 444.04 244.08C443.468 243.361 442.835 242.692 442.15 242.08C440.963 240.825 440.11 239.291 439.67 237.62C439.445 236.951 439.373 236.24 439.46 235.54Z" fill="#EB996E"/>
<path d="M429.48 221.37C429.33 221.37 429.48 218.99 429.04 216.11C428.6 213.23 427.9 210.95 428.11 210.92C428.377 211.366 428.579 211.847 428.71 212.35C429.103 213.552 429.384 214.787 429.55 216.04C429.888 217.803 429.864 219.616 429.48 221.37Z" fill="#EB996E"/>
<path d="M466.14 314.968C484.832 306.481 493.105 284.448 484.618 265.756C476.131 247.065 454.098 238.792 435.406 247.279C416.714 255.766 408.442 277.798 416.928 296.49C425.415 315.182 447.448 323.455 466.14 314.968Z" fill="#241B99"/>
<path d="M449.88 268.14C450.02 276.76 450.167 285.38 450.32 294C450.37 297.21 455.37 297.22 455.32 294C455.174 285.38 455.027 276.76 454.88 268.14C454.82 264.93 449.82 264.92 449.88 268.14Z" fill="white"/>
<path d="M438.76 283.81L466.43 283.34C469.64 283.28 469.65 278.28 466.43 278.34L438.76 278.81C435.55 278.86 435.54 283.86 438.76 283.81Z" fill="white"/>
<g opacity="0.3">
<path opacity="0.3" d="M457.68 244.49C450.619 243.051 443.287 243.823 436.68 246.7C438.091 249.137 439.717 251.443 441.54 253.59C443.1 255.54 445.44 257.54 447.8 256.72C448.4 256.388 449.053 256.164 449.73 256.06C450.8 256.06 451.51 257.11 452.09 258C453.667 260.368 455.667 262.426 457.99 264.07C459.24 264.96 461.13 265.65 462.14 264.5C462.581 263.874 462.783 263.112 462.71 262.35C462.8 256.66 460.25 249.57 457.68 244.49Z" fill="black"/>
</g>
<path d="M424.88 206.76L430.83 204.96C433.223 204.297 435.737 204.193 438.176 204.656C440.616 205.119 442.917 206.136 444.9 207.63C448.17 210.08 451.65 212.87 452.78 214.39L457.91 221.3C458.476 222.042 458.861 222.905 459.035 223.822C459.208 224.738 459.166 225.683 458.91 226.58C458.835 226.971 458.626 227.324 458.32 227.58L456.51 230.22C456.51 230.22 457.04 234.22 457.07 236.77C457.1 239.32 454.61 243.67 454.61 243.67L459.46 256.94C459.697 257.545 459.748 258.206 459.608 258.84C459.467 259.474 459.141 260.052 458.67 260.5C458.549 260.643 458.4 260.759 458.232 260.843C458.064 260.926 457.881 260.974 457.694 260.985C457.507 260.995 457.32 260.967 457.144 260.903C456.968 260.838 456.807 260.739 456.67 260.61C454.75 259.07 449.67 248.25 449.67 248.25L447.67 245.93L444.9 245.24C444.9 245.24 445.39 249.24 443.6 250.03L436 243.43L430.1 233.43C430.1 233.43 430 219.78 428.49 216L424.88 206.76Z" fill="#FFBE9D"/>
<path d="M550.5 490.53C550.5 490.67 452.34 491.02 331.28 491.3C210.22 491.58 112 491.69 112 491.54C112 491.39 210.14 491.06 331.25 490.78C452.36 490.5 550.5 490.39 550.5 490.53Z" fill="#263238"/>
<path d="M521.52 469.12C521.44 469.05 522.71 467.69 524.32 465.18C525.263 463.712 526.092 462.174 526.8 460.58C527.65 458.619 528.339 456.592 528.86 454.52C529.34 452.442 529.647 450.328 529.78 448.2C529.866 446.456 529.826 444.708 529.66 442.97C529.36 439.97 528.85 438.21 528.95 438.18C529.12 438.584 529.254 439.002 529.35 439.43C529.494 439.919 529.607 440.417 529.69 440.92C529.837 441.58 529.947 442.247 530.02 442.92C530.248 444.673 530.325 446.443 530.25 448.21C530.153 450.373 529.855 452.522 529.36 454.63C528.841 456.733 528.131 458.785 527.24 460.76C526.502 462.367 525.629 463.91 524.63 465.37C524.23 466.01 523.79 466.53 523.43 467.01C523.119 467.418 522.785 467.809 522.43 468.18C522.155 468.519 521.851 468.834 521.52 469.12Z" fill="#263238"/>
<path d="M506.14 474.83C506.07 474.76 507.32 473.62 509.14 471.58C511.446 468.92 513.44 466.004 515.08 462.89C516.698 459.762 517.956 456.461 518.83 453.05C519.49 450.42 519.71 448.75 519.83 448.77C519.848 449.165 519.821 449.561 519.75 449.95C519.631 451.019 519.451 452.081 519.21 453.13C518.444 456.609 517.22 459.972 515.57 463.13C513.915 466.285 511.854 469.21 509.44 471.83C508.716 472.626 507.948 473.38 507.14 474.09C506.832 474.369 506.497 474.617 506.14 474.83Z" fill="#263238"/>
<path d="M244.06 218.22C243.924 217.952 243.729 217.719 243.49 217.537C243.251 217.356 242.974 217.23 242.68 217.17C241.99 217.04 241.279 217.076 240.606 217.276C239.933 217.476 239.317 217.834 238.81 218.32C237.818 219.308 236.991 220.449 236.36 221.7L243.68 221.64C243.57 220.48 244.52 219.3 244.06 218.22Z" fill="#FFBE9D"/>
<path d="M196.42 222.55C196.42 222.55 199.42 218.2 201.15 217.26C202.88 216.32 205.15 216.26 206.23 217.17L207.23 218.07C207.23 218.07 212.53 215.5 215.17 217.28C215.17 217.28 220.17 214.72 222.72 217.41C222.72 217.41 226.59 214.74 228.32 216.92C230.05 219.1 229.98 222.92 229.23 224.86C228.48 226.8 227.17 233.49 226 233.64C226 233.64 222.87 234.06 222.4 232.38C221.93 230.7 221.73 229.88 221.73 229.88C221.73 229.88 220.73 235.88 219.27 236.26C217.81 236.64 215.07 236.52 214.9 233.89C214.9 233.89 213.62 235.89 212.3 235.37C210.98 234.85 209.3 233.92 209.42 232.29C209.54 230.66 209.49 229.02 209.49 229.02C209.49 229.02 208.84 231.42 207.64 230.94C206.44 230.46 205.26 230.6 204.53 228.61C203.8 226.62 202 222.7 202 222.7L196.42 222.55Z" fill="#FFBE9D"/>
<path d="M209.44 228.9C209.37 228.9 209.66 228.24 209.9 227.19C210.236 225.823 210.257 224.398 209.961 223.023C209.665 221.647 209.059 220.357 208.19 219.25C207.54 218.39 207.01 217.95 207.07 217.88C207.626 218.139 208.11 218.53 208.48 219.02C209.472 220.121 210.162 221.462 210.48 222.91C210.785 224.361 210.713 225.865 210.27 227.28C210.131 227.88 209.846 228.436 209.44 228.9Z" fill="#EB996E"/>
<path d="M215.55 217.3C215.92 218.041 216.176 218.833 216.31 219.65C217.173 223.554 217.014 227.615 215.85 231.44C215.66 232.24 215.346 233.006 214.92 233.71C215.655 231.043 216.124 228.309 216.32 225.55C216.329 222.781 216.071 220.019 215.55 217.3Z" fill="#EB996E"/>
<path d="M222.9 217.49C223.34 219.574 223.428 221.717 223.16 223.83C223.062 225.959 222.612 228.057 221.83 230.04C221.67 230.04 222.35 227.25 222.64 223.79C222.93 220.33 222.74 217.5 222.9 217.49Z" fill="#EB996E"/>
</g>
<defs>
<clipPath id="clip0">
<rect width="455.5" height="432.61" fill="white" transform="translate(95 59)"/>
</clipPath>
</defs>
</svg>
