<svg width="456" height="433" viewBox="0 0 456 433" fill="none" xmlns="http://www.w3.org/2000/svg">
<g clip-path="url(#clip0)">
<path d="M432.71 247.45C432.71 247.45 427.91 243.5 420.32 255.17C416.345 261.107 412.767 267.3 409.61 273.71C409.61 273.71 407.67 276.12 406.08 274.24C404.49 272.36 402.55 267.32 399.44 267.86C396.33 268.4 394.82 271.81 394.88 277.01C394.94 282.21 394.64 293.59 394.61 294.62C394.58 295.65 393.85 297.04 392.56 295.94C391.27 294.84 384.19 285.06 379.75 288.7C375.31 292.34 377.85 306.78 378.09 308.36C378.33 309.94 377.97 310.57 377.2 310.88C376.43 311.19 374.36 307.67 372.2 304.98C370.04 302.29 367.13 299.52 364.75 301.84C362.37 304.16 360.58 314.6 368.75 332.75L373.11 340.91L382.39 341.37C402.31 341.14 411.02 335.1 412.11 331.97C413.2 328.84 409.46 327.33 406.11 326.54C402.76 325.75 398.71 325.36 398.66 324.54C398.61 323.72 399.02 323.11 400.56 322.67C402.1 322.23 416.26 318.41 417.68 312.86C419.1 307.31 407.25 305.02 405.68 304.31C404.11 303.6 405.11 302.31 406.01 301.89C406.91 301.47 417.12 296.35 421.85 294.2C426.58 292.05 429.06 289.36 428.21 286.2C427.36 283.04 422 283.54 419.63 282.89C417.26 282.24 418.63 279.46 418.63 279.46C423.135 273.888 427.268 268.026 431 261.91C438.37 250.1 432.6 247.38 432.6 247.38" fill="#EBEBEB"/>
<path d="M371.53 342.41C376.98 333.76 386.92 318.54 395.39 305.41C403.86 292.28 411.51 280.41 417 271.82C419.74 267.51 422 264.02 423.49 261.6L425.26 258.82L425.73 258.11C425.778 258.023 425.835 257.943 425.9 257.87L425.75 258.12C425.65 258.3 425.5 258.54 425.31 258.85L423.59 261.66C422.09 264.1 419.9 267.6 417.17 271.93C411.72 280.58 404.1 292.46 395.63 305.56C387.16 318.66 377.2 333.86 371.71 342.48" fill="#E0E0E0"/>
<path d="M401.85 275C401.931 275.21 401.988 275.428 402.02 275.65C402.11 276.07 402.22 276.65 402.36 277.44C402.62 278.95 402.93 281.05 403.22 283.38C403.51 285.71 403.77 287.75 403.97 289.33C404.06 290.05 404.14 290.65 404.2 291.13C404.247 291.35 404.267 291.575 404.26 291.8C404.179 291.59 404.122 291.372 404.09 291.15C404 290.73 403.89 290.15 403.76 289.36C403.52 287.84 403.24 285.74 402.94 283.42C402.64 281.1 402.36 279.05 402.16 277.47C402.06 276.76 401.98 276.15 401.91 275.67C401.876 275.448 401.856 275.224 401.85 275Z" fill="#E0E0E0"/>
<path d="M405.09 292.08C405.09 292 409.38 291.18 414.7 290.24C420.02 289.3 424.35 288.6 424.36 288.68C424.37 288.76 420.07 289.58 414.75 290.52C409.43 291.46 405.1 292.16 405.09 292.08Z" fill="#E0E0E0"/>
<path d="M391.18 311.62C391.406 311.591 391.634 311.591 391.86 311.62L393.71 311.82C395.27 311.99 397.42 312.21 399.8 312.37C402.18 312.53 404.35 312.6 405.92 312.64L407.77 312.69C407.996 312.669 408.224 312.669 408.45 312.69C408.226 312.735 407.998 312.755 407.77 312.75C407.33 312.75 406.7 312.75 405.91 312.8C404.34 312.8 402.17 312.8 399.78 312.6C397.39 312.4 395.24 312.19 393.68 311.97C392.91 311.86 392.28 311.76 391.85 311.68C391.625 311.682 391.401 311.661 391.18 311.62Z" fill="#E0E0E0"/>
<path d="M384.86 296.84C384.987 297.009 385.091 297.194 385.17 297.39L385.9 298.94C386.51 300.26 387.34 302.08 388.23 304.1C389.12 306.12 389.92 307.96 390.49 309.29C390.75 309.92 390.96 310.45 391.14 310.88C391.234 311.07 391.301 311.272 391.34 311.48C391.224 311.306 391.124 311.122 391.04 310.93C390.84 310.5 390.59 309.99 390.3 309.38C389.69 308.06 388.87 306.24 387.97 304.22C387.07 302.2 386.28 300.36 385.72 299.02L385.06 297.44C384.973 297.247 384.906 297.046 384.86 296.84Z" fill="#E0E0E0"/>
<path d="M370.39 312.52C370.536 312.75 370.663 312.99 370.77 313.24L371.77 315.24C372.56 316.92 373.63 319.24 374.77 321.83C375.91 324.42 376.98 326.75 377.77 328.45L378.64 330.45C378.76 330.693 378.854 330.948 378.92 331.21C378.773 330.985 378.646 330.747 378.54 330.5L377.54 328.5C376.75 326.82 375.68 324.5 374.54 321.91C373.4 319.32 372.33 316.99 371.54 315.29L370.67 313.29C370.55 313.044 370.456 312.786 370.39 312.52Z" fill="#E0E0E0"/>
<path d="M378.8 330.7C379.09 330.68 379.381 330.68 379.67 330.7L382.02 330.87C384.02 331.01 386.74 331.2 389.77 331.32C392.8 331.44 395.55 331.48 397.53 331.5H399.89C400.176 331.471 400.464 331.471 400.75 331.5C400.466 331.546 400.178 331.57 399.89 331.57C399.33 331.57 398.53 331.57 397.53 331.64C395.53 331.64 392.79 331.64 389.76 331.55C386.73 331.46 383.98 331.21 382 331.02C381 330.92 380.21 330.83 379.66 330.75C379.373 330.759 379.085 330.743 378.8 330.7Z" fill="#E0E0E0"/>
<path d="M90.3801 166.56C90.3801 166.56 80.0001 284.22 83.7601 352.9C86.9901 412.48 92.6801 432.54 92.6801 432.54H126.59L90.3801 166.56Z" fill="#E0E0E0"/>
<path d="M50.0003 366.1C49.5806 364.525 49.4838 362.881 49.7158 361.267C49.9478 359.653 50.5038 358.103 51.3503 356.71C53.0587 353.925 55.3855 351.571 58.1503 349.83C63.3703 346.32 70.4803 344.93 76.7703 344.61C76.6803 351.61 71.3503 357.72 68.4603 360.61C63.8803 365.25 52.8003 370.85 50.0003 366.06" fill="#241B99"/>
<path d="M80.6504 333.26C79.5224 334.692 78.0357 335.801 76.341 336.474C74.6462 337.146 72.8038 337.359 71.0004 337.09C69.1994 336.788 67.4763 336.131 65.9313 335.158C64.3862 334.185 63.0501 332.914 62.0004 331.42C61.0004 330.06 60.2104 328.37 60.6404 326.74C60.8858 325.993 61.3269 325.325 61.9178 324.806C62.5087 324.287 63.2278 323.936 64.0004 323.79C65.5563 323.517 67.1565 323.658 68.6404 324.2C73.7804 325.82 78.4504 328.33 80.6404 333.26" fill="#241B99"/>
<path d="M99.6303 326C99.281 326.254 98.9133 326.481 98.5303 326.68L95.4704 328.45C92.1427 330.502 88.5061 332.005 84.7003 332.9C80.85 333.738 76.8459 333.534 73.1003 332.31C71.9765 331.925 70.9023 331.408 69.9004 330.77C69.6294 330.599 69.3689 330.412 69.1204 330.21C69.0238 330.149 68.9363 330.075 68.8604 329.99C70.2404 330.793 71.6936 331.462 73.2003 331.99C76.9069 333.089 80.8301 333.24 84.6104 332.43C88.3716 331.534 91.9804 330.088 95.3204 328.14C96.6304 327.44 97.7003 326.87 98.4503 326.5C98.8264 326.295 99.2216 326.128 99.6303 326Z" fill="#263238"/>
<path d="M58.0503 361.09C58.162 360.937 58.2931 360.799 58.4403 360.68L59.6003 359.56C60.6003 358.56 62.1103 357.22 63.9703 355.56C67.6803 352.19 72.8703 347.61 78.7203 342.68C84.5703 337.75 89.9703 333.4 93.9203 330.32C95.9203 328.77 97.5003 327.54 98.6203 326.7C99.1503 326.3 99.6203 325.98 99.9203 325.7C100.067 325.579 100.224 325.472 100.39 325.38C100.39 325.38 100.26 325.53 99.9703 325.77L98.7303 326.77L94.1203 330.51C90.2203 333.66 84.8603 338.04 79.0103 342.97C73.1603 347.9 68.0003 352.47 64.1803 355.77L59.7203 359.69L58.5003 360.74C58.3634 360.872 58.2125 360.99 58.0503 361.09Z" fill="#263238"/>
<path d="M89.4503 337.74C86.9781 340.68 85.2407 344.165 84.3817 347.909C83.5228 351.652 83.5668 355.547 84.5103 359.27C85.0103 361.16 86.0803 363.27 88.0103 363.52C89.9403 363.77 91.5303 362 92.4603 360.28C94.3331 356.657 95.0921 352.561 94.6419 348.507C94.1917 344.454 92.5524 340.624 89.9303 337.5" fill="#241B99"/>
<path d="M88.48 354.78C88.3217 354.404 88.2043 354.011 88.13 353.61C87.9942 353.154 87.8906 352.69 87.82 352.22C87.74 351.66 87.59 351.04 87.55 350.34C87.4595 349.576 87.4127 348.809 87.41 348.04C87.3867 347.159 87.4167 346.277 87.5 345.4C87.6818 343.383 88.0945 341.393 88.73 339.47C89.3882 337.549 90.271 335.713 91.36 334C91.8372 333.256 92.3582 332.542 92.92 331.86C93.395 331.256 93.9059 330.682 94.45 330.14C94.8895 329.682 95.3535 329.248 95.84 328.84C96.208 328.535 96.5955 328.254 97 328C97.3087 327.739 97.6439 327.511 98 327.32C98.06 327.4 96.62 328.39 94.71 330.41C94.25 330.93 93.71 331.48 93.24 332.14C92.704 332.824 92.2033 333.535 91.74 334.27C90.699 335.966 89.844 337.77 89.19 339.65C88.5654 341.539 88.1496 343.49 87.95 345.47C87.859 346.333 87.8156 347.201 87.82 348.07C87.82 348.89 87.82 349.64 87.9 350.34C88.1 353.08 88.58 354.76 88.48 354.78Z" fill="#263238"/>
<path d="M108.94 307.7C121.85 289.93 118.08 266.54 110.55 246.94C109.29 243.67 108.45 240.05 105.87 237.69C103.29 235.33 98.9302 234.62 96.4502 237.04C94.3902 239.04 94.3102 242.27 93.7502 245.11C93.0039 248.9 91.2013 252.401 88.5502 255.21C86.8202 257.04 84.4402 258.61 81.9702 258.21C78.5702 257.62 76.8702 253.79 75.7502 250.49L69.5002 232C68.3802 228.7 67.2302 225.34 65.1202 222.57C63.0102 219.8 59.7502 217.68 56.3202 217.88C52.8902 218.08 49.6302 221.23 50.0902 224.68C50.4377 226.088 50.8787 227.471 51.4102 228.82C51.7902 230.21 51.6802 231.95 50.5102 232.82C49.3402 233.69 47.6902 233.18 46.3702 232.55C41.8302 230.41 38.0402 226.92 34.3702 223.41C30.7002 219.9 27.1502 216.26 22.8102 213.7C18.4702 211.14 13.2102 209.7 8.41019 211.1C3.61019 212.5 -0.419807 217.1 -0.00980697 222.15C0.400193 227.2 4.77019 231 9.00019 233.69C15.3039 237.756 22.1612 240.892 29.3602 243C30.7018 243.235 31.9341 243.89 32.8802 244.87C34.3502 246.87 33.0202 249.72 31.1102 251.19C28.9302 252.85 26.1802 253.52 23.7202 254.71C21.2602 255.9 18.8702 257.99 18.7202 260.76C18.5302 264.59 22.5602 267.14 26.1302 268.49C33.2773 271.201 40.8376 272.662 48.4802 272.81C51.2102 272.81 54.0302 272.75 56.5702 273.81C59.1102 274.87 61.3102 277.39 60.9402 280.11C60.5702 282.83 57.7902 284.63 55.0902 285.04C52.3902 285.45 49.6402 284.85 46.9102 284.78C41.7902 284.63 36.0602 286.97 34.5102 291.88C33.5102 295.11 34.5102 298.74 36.5902 301.48C38.7372 304.115 41.3891 306.294 44.3902 307.89C54.5467 314.008 66.1448 317.32 78.0002 317.49C89.7502 317.49 99.8202 315.12 108.93 307.7" fill="#565388"/>
<path d="M109.77 313.67C106.33 306.06 105.92 306.02 99.5302 297.04C92.5001 287.373 84.921 278.118 76.8302 269.32L70.5102 262.37C68.4302 260.09 66.3702 257.83 64.2202 255.74C60.0759 251.741 55.7125 247.975 51.1502 244.46C46.8202 241.07 42.5902 238.02 38.6102 235.19C34.6302 232.36 30.8702 229.81 27.3402 227.62C21.7881 224.14 15.9661 221.11 9.93021 218.56C7.80021 217.65 6.12021 217 4.98021 216.56L3.67021 216.08C3.52473 216.02 3.37412 215.973 3.22021 215.94C3.35697 216.02 3.50094 216.087 3.65021 216.14L4.93021 216.68C6.06021 217.14 7.72021 217.83 9.83021 218.77C15.8102 221.409 21.5832 224.494 27.1002 228C30.6002 230.21 34.3402 232.78 38.3102 235.62C42.2802 238.46 46.4802 241.53 50.7902 244.92C55.3243 248.435 59.664 252.194 63.7902 256.18C65.9302 258.26 67.9702 260.5 70.0602 262.79L76.3702 269.79C84.4429 278.566 92.0181 287.787 99.0602 297.41C105.46 306.35 105.89 306.33 109.36 313.89" fill="#263238"/>
<path d="M64.0001 255.78C64.0104 255.268 63.9566 254.758 63.8401 254.26C63.7001 253.26 63.4501 251.9 63.1101 250.18C62.4401 246.74 61.3601 242.02 60.1101 236.82C58.8601 231.62 57.8701 226.9 57.2601 223.46C56.9501 221.74 56.7101 220.35 56.5601 219.38C56.5063 218.874 56.4025 218.375 56.2501 217.89C56.2106 218.397 56.2308 218.907 56.3101 219.41C56.3901 220.41 56.5601 221.8 56.8201 223.53C57.3201 227 58.2601 231.76 59.4801 236.96C60.7001 242.16 61.7901 246.73 62.6301 250.27L63.5601 254.27C63.6564 254.786 63.8038 255.292 64.0001 255.78Z" fill="#263238"/>
<path d="M19 262.5C19.5964 262.424 20.1852 262.296 20.76 262.12C21.88 261.84 23.49 261.43 25.51 260.98C29.51 260.06 35.13 258.98 41.36 258.06C47.59 257.14 53.27 256.57 57.36 256.27C59.42 256.1 61.09 256.01 62.24 255.94C62.8403 255.941 63.4394 255.887 64.03 255.78C63.4349 255.687 62.8315 255.656 62.23 255.69C61.08 255.69 59.4 255.69 57.33 255.81C53.19 256 47.49 256.51 41.23 257.42C35.8934 258.188 30.5997 259.229 25.37 260.54C23.37 261.04 21.76 261.54 20.66 261.88C20.0897 262.038 19.5343 262.246 19 262.5Z" fill="#263238"/>
<path d="M98.7402 296.44C98.8039 296.239 98.8408 296.03 98.8502 295.82C98.9002 295.34 98.9602 294.75 99.0402 294.04C99.2002 292.49 99.3802 290.25 99.5602 287.47C99.9302 281.92 100.19 274.23 100.37 265.74C100.55 257.25 100.74 249.56 100.99 244.01C101.11 241.3 101.22 239.08 101.3 237.43C101.3 236.71 101.3 236.12 101.37 235.64C101.394 235.43 101.394 235.219 101.37 235.01C101.307 235.211 101.27 235.419 101.26 235.63C101.2 236.11 101.14 236.69 101.06 237.41C100.9 238.95 100.72 241.2 100.54 243.98C100.18 249.53 99.9102 257.22 99.7402 265.72C99.5702 274.22 99.3702 281.89 99.1202 287.44C98.9902 290.15 98.8802 292.37 98.8002 294.02C98.8002 294.74 98.7502 295.33 98.7302 295.81C98.6989 296.019 98.7022 296.232 98.7402 296.44Z" fill="#263238"/>
<path d="M36.2202 297.76C36.4329 297.784 36.6475 297.784 36.8602 297.76H38.6802L45.3802 297.63C51.0302 297.52 58.8502 297.46 67.4802 297.4C76.1102 297.34 83.9402 297.21 89.5902 296.99C92.4202 296.88 94.7102 296.76 96.2902 296.65L98.1002 296.51C98.3163 296.505 98.5311 296.475 98.7402 296.42C98.5275 296.398 98.313 296.398 98.1002 296.42H96.2802L89.5802 296.55C83.9202 296.66 76.1102 296.72 67.4702 296.78C58.8302 296.84 51.0202 296.96 45.3602 297.19C42.5302 297.3 40.2502 297.42 38.6702 297.53L36.8502 297.67C36.6368 297.667 36.4244 297.698 36.2202 297.76Z" fill="#263238"/>
<path d="M211.15 20.3098C212.069 20.1192 212.918 19.6819 213.606 19.0449C214.295 18.4079 214.796 17.5953 215.058 16.6945C215.319 15.7937 215.329 14.8387 215.089 13.9323C214.848 13.0258 214.364 12.2021 213.69 11.5498C214.519 11.079 215.138 10.3112 215.422 9.40155C215.706 8.49195 215.634 7.50843 215.22 6.64984C214.743 5.82576 213.97 5.21423 213.058 4.93936C212.146 4.6645 211.164 4.7469 210.31 5.16984C210.392 4.3722 210.247 3.56777 209.894 2.84818C209.54 2.1286 208.991 1.52281 208.31 1.09984C207.624 0.692208 206.837 0.483785 206.039 0.497914C205.241 0.512044 204.462 0.748168 203.79 1.17984C203.12 0.615469 202.313 0.237117 201.451 0.082681C200.589 -0.071755 199.701 0.00314733 198.876 0.299885C198.052 0.596622 197.32 1.10478 196.754 1.77344C196.188 2.44211 195.807 3.24781 195.65 4.10984C195.223 3.33257 194.559 2.7118 193.755 2.33772C192.951 1.96363 192.048 1.85573 191.178 2.02967C190.309 2.20362 189.517 2.65037 188.918 3.30499C188.32 3.95962 187.946 4.78802 187.85 5.66984C186.19 5.17984 184.21 4.75984 182.85 5.85984C181.49 6.95984 181.52 8.75984 181.55 10.3798C181.531 12.311 181.719 14.2387 182.11 16.1298C182.86 19.0552 184.585 21.6373 187 23.4498C188.153 24.6529 189.662 25.4532 191.304 25.7324C192.947 26.0115 194.635 25.7547 196.12 24.9998" fill="#263238"/>
<path d="M213.24 27C214.22 26.2171 214.854 25.0809 215.006 23.8355C215.157 22.5902 214.814 21.3351 214.05 20.34C213.206 19.4146 212.033 18.8566 210.783 18.7855C209.532 18.7145 208.304 19.1361 207.36 19.96C206.85 20.45 206.36 21.09 205.68 21.13C205 21.17 204.47 20.6601 203.92 20.2901C203.199 19.8172 202.358 19.5596 201.496 19.5473C200.633 19.5351 199.785 19.7688 199.051 20.2209C198.316 20.6731 197.726 21.3251 197.349 22.1006C196.971 22.8762 196.823 23.7431 196.92 24.6C194.61 23.6 191.41 23.9001 190.25 26.1201C189.25 28.1201 190.41 30.69 192.33 31.83C194.349 32.8301 196.647 33.119 198.85 32.6501C204.152 31.87 209.084 29.4706 212.97 25.7801" fill="#241B99"/>
<path d="M198.87 27.09C198.81 27.22 198.05 26.93 197.49 26.14C196.93 25.35 196.91 24.54 197.05 24.52C197.19 24.5 197.43 25.16 197.92 25.83C198.41 26.5 198.94 27 198.87 27.09Z" fill="white"/>
<path d="M207.07 26.51C206.91 26.51 207.01 25.37 206.66 24.06C206.31 22.75 205.66 21.83 205.8 21.73C205.94 21.63 206.8 22.5 207.16 23.93C207.469 24.7685 207.437 25.695 207.07 26.51Z" fill="white"/>
<path d="M211.47 25.4298C211.32 25.4298 211.62 24.2798 211.36 22.9398C211.1 21.5998 210.46 20.6698 210.58 20.5698C210.945 20.8364 211.249 21.1777 211.471 21.5708C211.693 21.964 211.829 22.4 211.87 22.8498C211.995 23.2831 212.024 23.7384 211.955 24.184C211.886 24.6296 211.721 25.0548 211.47 25.4298Z" fill="white"/>
<path d="M195.59 29.9098C195.59 29.9698 195.23 29.9698 194.72 29.7598C194.056 29.4661 193.487 28.9913 193.08 28.3898C192.676 27.7995 192.45 27.1051 192.43 26.3898C192.43 25.8398 192.54 25.5098 192.61 25.5198C192.764 26.4302 193.068 27.3088 193.51 28.1198C194.36 29.3698 195.64 29.7698 195.59 29.9098Z" fill="white"/>
<path d="M242.64 78.8598C244.336 78.3046 245.769 77.1447 246.665 75.6011C247.562 74.0576 247.859 72.2383 247.5 70.4898C248.477 69.8075 249.305 68.9325 249.931 67.9187C250.558 66.9048 250.97 65.7735 251.144 64.5943C251.317 63.4151 251.247 62.2129 250.939 61.0617C250.63 59.9104 250.09 58.8344 249.35 57.8998C250.282 57.1017 250.953 56.0432 251.278 54.8604C251.604 53.6776 251.568 52.4246 251.175 51.2624C250.783 50.1001 250.052 49.0818 249.076 48.3383C248.1 47.5947 246.925 47.16 245.7 47.0898C246.226 45.7219 246.382 44.2391 246.15 42.7919C245.918 41.3446 245.308 39.9844 244.381 38.8491C243.454 37.7139 242.243 36.8441 240.871 36.3279C239.499 35.8116 238.016 35.6674 236.57 35.9098C236.806 34.4404 236.607 32.9339 235.996 31.5767C235.385 30.2196 234.389 29.0714 233.132 28.2743C231.876 27.4772 230.413 27.0661 228.924 27.092C227.436 27.1178 225.988 27.5795 224.76 28.4198C221.03 23.3698 212.45 23.0598 208.36 27.8398C203.61 24.9398 196.54 27.1098 194.23 32.1698C191.13 29.2798 185.72 30.3098 182.9 33.4798C180.08 36.6498 179.42 41.2098 179.76 45.4798C178.636 45.9998 177.67 46.8086 176.961 47.8238C176.251 48.839 175.824 50.0242 175.722 51.2584C175.621 52.4927 175.848 53.7319 176.382 54.8494C176.916 55.967 177.736 56.923 178.76 57.6198C176.897 60.1337 176.085 63.2734 176.496 66.3751C176.907 69.4768 178.507 72.2972 180.96 74.2398C180.608 76.9452 181.062 79.6944 182.267 82.1423C183.471 84.5903 185.372 86.628 187.73 87.9998" fill="#263238"/>
<path d="M192.61 54.3998L190.85 49.3998L222.12 44.3998C231.74 43.6698 241.83 53.5898 242.12 63.2298C242.48 73.9398 242.49 87.0298 240.99 94.9798C237.99 110.98 225.62 112.62 225.62 112.62L224.62 137.81L189.27 136.4L192.61 54.3998Z" fill="#FFBE9D"/>
<path d="M236.33 73.7396C236.315 74.2653 236.1 74.7653 235.728 75.1371C235.356 75.509 234.856 75.7245 234.33 75.7396C233.801 75.7586 233.287 75.5671 232.899 75.2073C232.511 74.8474 232.281 74.3484 232.26 73.8196C232.26 73.2892 232.471 72.7805 232.846 72.4054C233.221 72.0304 233.73 71.8196 234.26 71.8196C234.789 71.8007 235.304 71.9921 235.692 72.352C236.08 72.7119 236.309 73.2109 236.33 73.7396Z" fill="#263238"/>
<path d="M238.56 69.89C238.29 70.15 236.77 68.96 234.56 68.89C232.35 68.82 230.69 69.89 230.45 69.61C230.21 69.33 230.61 69.01 231.34 68.51C232.318 67.8777 233.466 67.5601 234.63 67.6C235.78 67.6301 236.89 68.0259 237.8 68.73C238.47 69.29 238.69 69.78 238.56 69.89Z" fill="#263238"/>
<path d="M214.47 72.5798C214.47 73.1102 214.26 73.6189 213.885 73.994C213.51 74.369 213.001 74.5798 212.47 74.5798C211.943 74.5987 211.43 74.4087 211.042 74.0509C210.654 73.6932 210.424 73.1968 210.4 72.6698C210.415 72.1441 210.631 71.6441 211.003 71.2723C211.375 70.9004 211.875 70.6849 212.4 70.6698C212.928 70.6508 213.441 70.8408 213.829 71.1986C214.216 71.5563 214.447 72.0527 214.47 72.5798Z" fill="#263238"/>
<path d="M216.29 69.6198C216.03 69.8798 214.5 68.6798 212.29 68.6198C210.08 68.5598 208.42 69.6198 208.19 69.3398C208.08 69.2198 208.35 68.7398 209.07 68.2498C210.047 67.6145 211.196 67.2967 212.36 67.3398C213.513 67.3698 214.627 67.7656 215.54 68.4698C216.2 68.9998 216.42 69.4998 216.29 69.6198Z" fill="#263238"/>
<path d="M224.33 86.3201C225.511 85.9961 226.726 85.8148 227.95 85.7801C228.52 85.7801 229.05 85.6401 229.16 85.2601C229.23 84.6761 229.114 84.085 228.83 83.5701L227.29 79.2201C225.15 73.0201 223.61 67.9301 223.86 67.8501C224.11 67.7701 226.05 72.7201 228.2 78.9101C228.713 80.4434 229.203 81.9034 229.67 83.2901C230.002 83.9845 230.083 84.7725 229.9 85.5201C229.807 85.722 229.668 85.8994 229.495 86.0383C229.321 86.1771 229.117 86.2736 228.9 86.3201C228.574 86.4026 228.237 86.4363 227.9 86.4201C226.711 86.5393 225.511 86.5057 224.33 86.3201Z" fill="#263238"/>
<path d="M225.64 112.61C217.906 112.503 210.348 110.286 203.78 106.2C203.78 106.2 208.86 117.59 225.51 116.61L225.64 112.61Z" fill="#EB996E"/>
<path d="M215.52 57.9998C215.4 58.6298 213.17 58.6998 210.66 59.4298C208.15 60.1598 206.18 61.1898 205.76 60.7098C205.56 60.4798 205.83 59.8698 206.58 59.1498C207.444 58.0837 208.695 57.404 210.06 57.2597C211.36 56.8807 212.733 56.8224 214.06 57.0898C215 57.3098 215.57 57.6998 215.52 57.9998Z" fill="#263238"/>
<path d="M238.5 62.9197C238.07 63.3897 236.59 62.7497 234.76 62.5897C232.93 62.4297 231.36 62.6597 231.04 62.1097C230.91 61.8397 231.19 61.3597 231.91 60.9397C232.862 60.4397 233.941 60.2346 235.009 60.3503C236.078 60.4661 237.088 60.8976 237.91 61.5897C238.52 62.1597 238.69 62.6897 238.5 62.9197Z" fill="#263238"/>
<path d="M208.61 44.0998C208.935 45.3932 209.582 46.5834 210.49 47.5598C210.96 48.0304 211.587 48.3118 212.25 48.3505C212.914 48.3893 213.569 48.1826 214.09 47.7698C214.453 48.1582 214.897 48.4608 215.391 48.6557C215.885 48.8506 216.416 48.9329 216.946 48.8965C217.476 48.8601 217.991 48.7059 218.453 48.4453C218.916 48.1847 219.315 47.8241 219.62 47.3898C220.401 48.1153 221.397 48.5649 222.458 48.6696C223.518 48.7744 224.583 48.5286 225.49 47.9698L230.28 48.9698C232.01 49.3498 234.16 49.5798 235.23 48.1698C235.47 47.8398 235.65 47.4198 236.03 47.2498C236.43 47.14 236.851 47.14 237.25 47.2498C237.943 47.2931 238.635 47.1609 239.262 46.8655C239.89 46.5701 240.433 46.121 240.84 45.5598C241.644 44.4305 242.249 43.1725 242.63 41.8398C243.32 39.8398 243.87 37.2398 242.24 35.8398C241.553 35.3586 240.761 35.0467 239.93 34.9298C238.308 34.4572 236.605 34.3278 234.93 34.5498C232.884 35.1131 231.109 36.3947 229.93 38.1598C230.101 37.6093 230.053 37.0141 229.796 36.4982C229.539 35.9823 229.093 35.5853 228.55 35.3898C227.999 35.2176 227.419 35.1563 226.844 35.2095C226.269 35.2627 225.711 35.4294 225.2 35.6998C223.653 36.4105 222.346 37.5573 221.44 38.9998C220.097 39.0018 218.781 39.3769 217.639 40.0832C216.496 40.7895 215.572 41.7992 214.97 42.9998C214.372 42.6035 213.698 42.3335 212.992 42.2062C212.285 42.079 211.56 42.0972 210.86 42.2598C210.61 42.2995 210.371 42.389 210.156 42.523C209.941 42.657 209.756 42.8327 209.61 43.0398C209.547 43.1458 209.507 43.2644 209.495 43.3874C209.483 43.5103 209.498 43.6344 209.539 43.7509C209.58 43.8674 209.646 43.9734 209.733 44.0614C209.819 44.1494 209.924 44.2171 210.04 44.2598" fill="#263238"/>
<path d="M224.09 45.05C223.669 46.1232 223.608 47.3046 223.919 48.4151C224.23 49.5255 224.894 50.5044 225.811 51.2032C226.728 51.9021 227.848 52.2828 229.001 52.2876C230.154 52.2925 231.277 51.9211 232.2 51.23C232.593 52.3206 233.361 53.2361 234.367 53.8131C235.372 54.39 236.55 54.591 237.69 54.38C237.68 55.7527 238.04 57.1028 238.731 58.2887C239.423 59.4745 240.421 60.4525 241.62 61.12C241.021 62.5109 240.978 64.0784 241.5 65.5C241.797 66.4247 242.447 67.1942 243.31 67.64C243.848 67.8302 244.42 67.9079 244.989 67.8684C245.558 67.8288 246.113 67.6728 246.62 67.41C247.378 67.1258 248.068 66.6889 248.65 66.1263C249.231 65.5638 249.691 64.8877 250 64.14C250.277 63.3806 250.275 62.5474 249.995 61.7891C249.715 61.0308 249.174 60.3967 248.47 60C249.869 58.7261 250.968 57.1587 251.69 55.41C252.18 54.4401 252.274 53.3175 251.95 52.28C251.852 52.0338 251.701 51.8119 251.509 51.6299C251.316 51.4479 251.086 51.3102 250.835 51.2264C250.583 51.1426 250.316 51.1147 250.053 51.1447C249.79 51.1747 249.536 51.2618 249.31 51.4C249.731 50.6176 249.922 49.7322 249.863 48.8458C249.803 47.9594 249.494 47.1079 248.971 46.3892C248.449 45.6705 247.735 45.1138 246.91 44.7832C246.085 44.4525 245.184 44.3613 244.31 44.52C244.301 43.7723 244.078 43.0429 243.667 42.4183C243.256 41.7937 242.674 41.3 241.991 40.9959C241.308 40.6917 240.552 40.5897 239.813 40.7021C239.073 40.8145 238.382 41.1365 237.82 41.63" fill="#263238"/>
<path d="M204.91 43.2498C205.06 41.3098 203.2 39.6598 201.27 39.3898C199.311 39.2754 197.362 39.7452 195.67 40.7398C194.754 39.6783 193.534 38.9233 192.175 38.5764C190.816 38.2295 189.384 38.3075 188.07 38.7998C185.48 39.7998 183.82 42.3098 181.69 44.0998C180.46 44.9234 179.366 45.9358 178.45 47.0998C177.67 48.3498 177.69 50.2898 178.97 51.0398C178.122 51.3347 177.369 51.8528 176.79 52.5395C176.211 53.2263 175.827 54.0563 175.68 54.9424C175.533 55.8284 175.627 56.7378 175.952 57.575C176.278 58.4121 176.823 59.1461 177.53 59.6998C177.98 60.0498 178.53 60.3598 178.71 60.8998C178.824 61.3688 178.774 61.8624 178.57 62.2998C177.81 64.4498 176.63 66.4598 176.18 68.6998C175.73 70.9398 176.18 73.5898 178.1 74.8398C178.61 75.1698 179.23 75.4298 179.45 75.9898C179.576 76.3663 179.576 76.7732 179.45 77.1498C179.022 78.3808 178.479 79.5693 177.83 80.6998C177.181 81.839 176.971 83.1764 177.24 84.4598C177.32 84.7743 177.46 85.0701 177.654 85.3303C177.848 85.5905 178.091 85.81 178.37 85.9762C178.648 86.1424 178.957 86.2521 179.278 86.2991C179.599 86.346 179.926 86.3293 180.24 86.2498C179.39 88.7098 179.44 91.6398 181.04 93.6898C182.64 95.7398 187.9 96.6898 191.04 94.7698L191.33 87.4198C190.92 86.1298 192.93 79.2398 192.09 77.8398C192.09 77.8398 189.89 82.6198 194.85 81.8398C196.46 82.2798 199.57 77.5498 199.78 75.8398C199.836 75.0011 199.651 74.1641 199.25 73.4259C198.848 72.6877 198.245 72.0787 197.51 71.6698C198.891 70.5703 199.842 69.0208 200.197 67.2917C200.551 65.5626 200.287 63.7639 199.45 62.2098C200.359 62.1082 201.206 61.6984 201.849 61.0486C202.492 60.3988 202.893 59.5483 202.986 58.6386C203.078 57.729 202.856 56.8152 202.356 56.0493C201.857 55.2835 201.11 54.7119 200.24 54.4298C204.82 53.3398 207.58 47.5598 205.54 43.3198" fill="#263238"/>
<path d="M180.92 44.6997C180.92 44.6997 180.67 44.8397 180.36 45.2497C179.924 45.8686 179.665 46.5946 179.61 47.3497C179.553 47.9479 179.627 48.5515 179.827 49.1181C180.027 49.6848 180.349 50.2007 180.77 50.6297C181.329 51.1933 182.025 51.6006 182.79 51.8112C183.555 52.0217 184.362 52.0281 185.13 51.8297L184.73 51.4297C184.628 51.8506 184.611 52.2879 184.68 52.7155C184.75 53.1431 184.905 53.5524 185.136 53.9188C185.367 54.2853 185.67 54.6015 186.026 54.8486C186.382 55.0958 186.784 55.2688 187.208 55.3573C187.632 55.4459 188.07 55.4483 188.495 55.3642C188.92 55.2802 189.323 55.1115 189.682 54.8682C190.04 54.6249 190.346 54.312 190.581 53.948C190.816 53.5841 190.976 53.1765 191.05 52.7497H190.3C190.411 53.2772 190.652 53.7685 191.001 54.179C191.351 54.5894 191.797 54.906 192.3 55.0997C192.937 55.3544 193.64 55.3931 194.3 55.2097C194.997 55.0295 195.602 54.5986 196 53.9997C196.358 53.4583 196.549 52.8236 196.549 52.1747C196.549 51.5257 196.358 50.8911 196 50.3497L195.53 50.8897C196.511 51.4124 197.587 51.7298 198.695 51.8226C199.802 51.9155 200.916 51.7818 201.97 51.4297C203.626 50.8599 205.037 49.7414 205.97 48.2597C206.583 47.3128 206.973 46.2392 207.11 45.1197C207.193 44.7273 207.193 44.3221 207.11 43.9297C206.903 45.3848 206.374 46.7754 205.56 47.9997C204.632 49.337 203.29 50.3315 201.74 50.8297C200.767 51.1295 199.744 51.2317 198.731 51.1304C197.717 51.0291 196.735 50.7262 195.84 50.2397L194.39 49.4297L195.39 50.7697C195.662 51.188 195.806 51.676 195.806 52.1747C195.806 52.6734 195.662 53.1614 195.39 53.5797C195.109 54.0213 194.679 54.3471 194.178 54.4977C193.677 54.6482 193.138 54.6135 192.66 54.3997C192.275 54.2551 191.931 54.0181 191.659 53.7094C191.387 53.4008 191.195 53.03 191.1 52.6297L190.69 50.3597L190.35 52.6397C190.276 52.9847 190.134 53.3114 189.931 53.6002C189.728 53.8889 189.469 54.1339 189.169 54.3205C188.87 54.5072 188.536 54.6316 188.187 54.6864C187.839 54.7412 187.483 54.7254 187.14 54.6397C186.528 54.4216 186.015 53.9901 185.696 53.4243C185.376 52.8586 185.271 52.1965 185.4 51.5597L185.56 50.9997L185 51.1597C184.338 51.3436 183.639 51.3537 182.972 51.189C182.305 51.0244 181.691 50.6905 181.19 50.2197C180.805 49.8533 180.5 49.4106 180.295 48.92C180.09 48.4293 179.99 47.9013 180 47.3697C180.05 46.4109 180.369 45.4856 180.92 44.6997Z" fill="#565388"/>
<path d="M240.72 35.8698C240.849 36.1587 240.907 36.474 240.89 36.7898C240.876 36.9649 240.821 37.1344 240.731 37.2852C240.641 37.436 240.517 37.5641 240.37 37.6598C240.178 37.7795 239.956 37.8429 239.73 37.8429C239.504 37.8429 239.282 37.7795 239.09 37.6598L238.44 37.2098L238.76 37.9398C238.982 38.5231 239.027 39.1593 238.888 39.768C238.749 40.3766 238.433 40.9305 237.98 41.3598C237.394 41.866 236.634 42.1258 235.861 42.0848C235.087 42.0438 234.36 41.7051 233.83 41.1398L233.45 40.7298L233.23 41.2498C232.858 42.107 232.277 42.8569 231.54 43.4305C230.802 44.0042 229.933 44.3831 229.01 44.5325C228.088 44.6819 227.143 44.5969 226.262 44.2854C225.382 43.9739 224.593 43.4458 223.97 42.7498L223.73 42.4798L223.46 42.7098C222.141 43.8148 220.549 44.5437 218.85 44.8198C217.504 45.0611 216.124 45.0305 214.79 44.7298C213.603 44.4133 212.456 43.9638 211.37 43.3898C211.37 43.3898 211.6 43.6598 212.14 44.0298C212.917 44.5488 213.776 44.9341 214.68 45.1698C216.066 45.5542 217.517 45.6462 218.94 45.4398C220.774 45.1873 222.503 44.4368 223.94 43.2698H223.43C224.13 44.0684 225.021 44.676 226.02 45.0354C227.019 45.3947 228.093 45.4941 229.141 45.3241C230.189 45.1541 231.177 44.7203 232.011 44.0635C232.845 43.4068 233.499 42.5486 233.91 41.5698L233.31 41.6698C233.88 42.3027 234.657 42.7105 235.502 42.8192C236.347 42.9278 237.202 42.7301 237.913 42.262C238.625 41.7938 239.145 41.0862 239.379 40.2675C239.613 39.4488 239.546 38.5733 239.19 37.7998L238.85 38.0798C239.115 38.2376 239.42 38.3141 239.727 38.2999C240.035 38.2857 240.331 38.1813 240.58 37.9998C240.758 37.8652 240.901 37.6914 241 37.4918C241.099 37.2923 241.151 37.0725 241.15 36.8498C241.11 36.0798 240.72 35.8298 240.72 35.8698Z" fill="#565388"/>
<path d="M212.49 26.25C212.49 26.31 212.82 26.12 213.41 26.08C213.819 26.0635 214.227 26.1344 214.606 26.2878C214.986 26.4413 215.328 26.6738 215.61 26.97C215.997 27.434 216.267 27.9839 216.398 28.5738C216.528 29.1636 216.515 29.7761 216.36 30.36C215.92 31.8433 215.108 33.1893 214 34.27L214.55 34.8C214.92 34.42 215.81 34.8 216.05 35.28C216.176 35.5997 216.237 35.9415 216.228 36.285C216.219 36.6286 216.142 36.9669 216 37.28C215.562 38.4617 214.881 39.5383 214 40.44C213.123 41.237 212.176 41.9532 211.17 42.58C211.17 42.58 211.53 42.58 212.12 42.31C212.95 41.9438 213.713 41.4438 214.38 40.83C215.392 39.9187 216.179 38.7859 216.68 37.52C216.864 37.1234 216.965 36.6932 216.975 36.2562C216.985 35.8192 216.906 35.3847 216.74 34.98C216.511 34.5138 216.109 34.1552 215.62 33.98C215.36 33.8773 215.076 33.8473 214.799 33.8931C214.523 33.9389 214.264 34.0588 214.05 34.24L214.6 34.77C215.783 33.5877 216.625 32.1095 217.04 30.49C217.206 29.8047 217.197 29.089 217.016 28.4079C216.834 27.7268 216.485 27.1019 216 26.59C215.659 26.2582 215.243 26.0126 214.787 25.8735C214.331 25.7343 213.849 25.7057 213.38 25.79C212.72 25.93 212.46 26.22 212.49 26.25Z" fill="#565388"/>
<path d="M186.3 32.0596C187.203 31.6989 188.152 31.4699 189.12 31.3796C190.188 31.337 191.247 31.5895 192.18 32.1096C193.356 32.7846 194.264 33.844 194.75 35.1096L195 35.7596L195.39 35.1796C195.794 34.6042 196.369 34.1705 197.033 33.94C197.697 33.7094 198.417 33.6937 199.091 33.895C199.765 34.0963 200.358 34.5045 200.787 35.0617C201.215 35.6189 201.458 36.2969 201.48 36.9996V37.4496L201.91 37.3496C202.559 37.2182 203.228 37.2288 203.872 37.3807C204.516 37.5327 205.119 37.8223 205.64 38.2296C206.479 38.8859 207.051 39.8238 207.25 40.8696C207.393 41.8289 207.328 42.8076 207.06 43.7396C207.06 43.7396 207.27 43.5296 207.46 43.0396C207.727 42.3215 207.81 41.5479 207.7 40.7896C207.546 39.5786 206.938 38.471 206 37.6896C205.414 37.2028 204.726 36.8518 203.988 36.6616C203.25 36.4714 202.479 36.4469 201.73 36.5896L202.17 36.9396C202.162 36.0735 201.877 35.2326 201.356 34.5405C200.836 33.8483 200.107 33.3414 199.276 33.0942C198.446 32.8469 197.559 32.8723 196.744 33.1667C195.929 33.461 195.231 34.0088 194.75 34.7296L195.39 34.8096C194.808 33.407 193.744 32.2581 192.39 31.5696C191.35 31.031 190.175 30.8085 189.01 30.9296C188.257 31.0018 187.527 31.2228 186.86 31.5796C186.49 31.8296 186.28 31.9996 186.3 32.0596Z" fill="#565388"/>
<path d="M186.43 6.60991C186.83 6.10862 187.335 5.70218 187.91 5.41991C188.237 5.27147 188.59 5.18888 188.948 5.17686C189.307 5.16485 189.665 5.22366 190 5.34991C190.433 5.51529 190.819 5.78399 191.124 6.13259C191.429 6.48119 191.644 6.89911 191.75 7.34991L192.09 8.84991L192.33 7.32991C192.48 6.57302 192.841 5.87412 193.372 5.31464C193.903 4.75517 194.582 4.35817 195.33 4.16991C196.204 3.99405 197.112 4.11499 197.909 4.51355C198.706 4.91211 199.347 5.56545 199.73 6.36991L199.89 6.70991L200.23 6.55991C200.693 6.3685 201.19 6.27323 201.69 6.27991C202.548 6.26392 203.386 6.53318 204.074 7.04542C204.762 7.55765 205.26 8.28383 205.49 9.10991C205.669 9.85368 205.636 10.6324 205.395 11.3585C205.155 12.0846 204.717 12.7292 204.13 13.2199L203.22 13.9099L204.36 13.7999C204.934 13.7578 205.508 13.8747 206.02 14.1375C206.531 14.4004 206.961 14.7991 207.26 15.2899C207.49 15.6775 207.627 16.1126 207.662 16.5616C207.697 17.0107 207.628 17.4617 207.46 17.8799C207.144 18.631 206.616 19.2738 205.94 19.7299C205.94 19.7299 206.18 19.7299 206.56 19.4799C207.111 19.123 207.54 18.6068 207.79 17.9999C208.012 17.5279 208.119 17.0104 208.104 16.4892C208.088 15.968 207.95 15.4578 207.7 14.9999C207.361 14.3987 206.86 13.9053 206.253 13.5763C205.646 13.2473 204.959 13.0961 204.27 13.1399L204.5 13.7199C205.208 13.1625 205.743 12.4152 206.042 11.5653C206.342 10.7154 206.393 9.7979 206.19 8.91991C205.926 7.92691 205.338 7.05049 204.519 6.42927C203.7 5.80805 202.698 5.4775 201.67 5.48991C201.066 5.48696 200.468 5.60601 199.91 5.83991L200.41 6.03991C200.013 5.13448 199.332 4.38314 198.469 3.89958C197.607 3.41603 196.61 3.22658 195.63 3.35993C194.651 3.49328 193.741 3.94215 193.039 4.63861C192.337 5.33508 191.881 6.24122 191.74 7.21991H192.32C192.178 6.68567 191.905 6.19513 191.526 5.79206C191.147 5.38898 190.675 5.08592 190.15 4.90991C189.758 4.78362 189.344 4.73801 188.933 4.77581C188.522 4.81362 188.123 4.93406 187.76 5.12991C187.306 5.35875 186.919 5.70373 186.64 6.12991C186.45 6.41991 186.41 6.59991 186.43 6.60991Z" fill="#565388"/>
<path d="M193.79 74.3097C193.56 74.1897 184.73 70.5997 184.08 79.9197C183.43 89.2397 192.92 87.9197 192.95 87.6997C192.98 87.4797 193.79 74.3097 193.79 74.3097Z" fill="#FFBE9D"/>
<path d="M190.35 83.9999C190.35 83.9999 190.18 84.0999 189.9 84.2099C189.505 84.3482 189.07 84.3267 188.69 84.1499C187.69 83.7199 187.01 82.0999 187.08 80.4199C187.11 79.6161 187.322 78.8296 187.7 78.1199C187.808 77.8364 187.982 77.5831 188.209 77.3812C188.435 77.1793 188.706 77.0348 189 76.9599C189.191 76.921 189.389 76.9509 189.559 77.0443C189.729 77.1377 189.861 77.2885 189.93 77.4699C190.04 77.7399 189.93 77.9299 190.01 77.9499C190.09 77.9699 190.22 77.7999 190.18 77.4099C190.14 77.1761 190.024 76.9619 189.85 76.7999C189.605 76.5923 189.291 76.4851 188.97 76.4999C188.582 76.55 188.213 76.6984 187.898 76.9312C187.583 77.1639 187.332 77.4733 187.17 77.8299C186.718 78.61 186.464 79.4889 186.43 80.3899C186.36 82.2699 187.2 84.0899 188.52 84.5799C188.766 84.6675 189.028 84.6996 189.287 84.6736C189.547 84.6477 189.797 84.5644 190.02 84.4299C190.32 84.1899 190.39 83.9999 190.35 83.9999Z" fill="#EB996E"/>
<path d="M217.94 89.4001C218.315 89.0446 218.769 88.7839 219.264 88.6395C219.76 88.4951 220.283 88.4713 220.79 88.5701C221.295 88.6744 221.768 88.8963 222.171 89.2177C222.574 89.5392 222.896 89.9511 223.11 90.4201C223.28 90.8095 223.368 91.23 223.368 91.6551C223.368 92.0802 223.28 92.5006 223.11 92.8901C222.862 93.4339 222.448 93.8846 221.927 94.1768C221.406 94.4691 220.805 94.5875 220.212 94.5151C219.619 94.4426 219.064 94.183 218.629 93.7739C218.193 93.3648 217.899 92.8275 217.79 92.2401C217.57 91.0701 217.2 89.7001 218.24 89.1301" fill="#EB996E"/>
<path d="M217.8 87C218.15 87 218.31 89.3 220.44 90.84C222.57 92.38 225.04 91.95 225.08 92.27C225.08 92.42 224.55 92.77 223.5 92.86C222.125 92.9775 220.753 92.6017 219.63 91.8C218.554 91.0283 217.816 89.8715 217.57 88.57C217.42 87.6 217.64 87 217.8 87Z" fill="#263238"/>
<path d="M182.85 117.06L189.2 116L224.93 119.17L237.71 125.24L241.1 127.24C241.1 127.24 227.81 145.73 214.2 144.73C200.59 143.73 177.06 124.31 177.06 124.31L177 118L182.85 117.06Z" fill="#FFBE9D"/>
<path d="M283.72 147.27L254.47 130.4C250.86 129.19 233.99 123.46 233.99 123.46C233.99 123.46 220.88 144.27 210.05 142.93C204.18 142.2 197.05 137.13 191.77 132.64C187.24 128.779 183.369 124.206 180.31 119.1L179.13 117.1C174 117.1 158.05 120.96 152.4 122.36C151.059 122.694 149.844 123.41 148.9 124.42C145.78 127.77 139.73 134.15 138.44 140.42C137.22 146.42 132.2 165.74 132.2 165.74L276 161.41L283.72 147.27Z" fill="#241B99"/>
<path d="M329.88 147.76C327.69 148.81 309.56 154.93 308.75 155.85C307.94 156.77 283.09 148 283.09 148L276 161.41L340.1 160.02L329.88 147.76Z" fill="#FFBE9D"/>
<path d="M166.47 143.4C166.38 143.4 166.09 142.25 165.2 140.53C164.016 138.3 162.484 136.275 160.66 134.53C158.824 132.802 156.869 131.205 154.81 129.75C153.931 129.168 153.095 128.523 152.31 127.82C153.262 128.275 154.169 128.817 155.02 129.44C157.16 130.827 159.168 132.407 161.02 134.16C162.884 135.929 164.408 138.023 165.52 140.34C165.849 141.046 166.116 141.778 166.32 142.53C166.419 142.809 166.47 143.103 166.47 143.4Z" fill="#263238"/>
<path d="M252.79 156.19C252.633 155.198 252.569 154.194 252.6 153.19C252.6 151.34 252.6 148.79 252.73 145.98C252.86 143.17 253.08 140.62 253.29 138.78C253.344 137.767 253.498 136.762 253.75 135.78C253.799 136.781 253.766 137.784 253.65 138.78C253.54 140.78 253.4 143.25 253.25 145.97C253.1 148.69 253.05 151.16 252.97 153.16C252.989 154.173 252.929 155.186 252.79 156.19Z" fill="#263238"/>
<path d="M184.92 126.82C184.92 126.82 184.86 126.93 184.71 127.11C184.491 127.376 184.246 127.62 183.98 127.84C182.998 128.664 181.837 129.25 180.59 129.55C178.729 130.024 176.766 129.898 174.98 129.19C173.935 128.754 172.984 128.118 172.18 127.32C171.34 126.52 170.57 125.62 169.69 124.81C168.06 123.287 165.921 122.425 163.69 122.39C161.86 122.357 160.066 122.899 158.56 123.94C157.537 124.636 156.661 125.526 155.98 126.56C155.49 127.29 155.3 127.75 155.26 127.73C155.22 127.71 155.26 127.61 155.36 127.38C155.482 127.059 155.629 126.748 155.8 126.45C156.443 125.344 157.312 124.387 158.35 123.64C159.901 122.502 161.777 121.895 163.7 121.91C166.069 121.916 168.347 122.816 170.08 124.43C170.99 125.26 171.75 126.18 172.56 126.95C173.318 127.708 174.21 128.318 175.19 128.75C176.61 129.326 178.154 129.53 179.674 129.343C181.195 129.156 182.643 128.583 183.88 127.68C184.57 127.17 184.87 126.78 184.92 126.82Z" fill="white"/>
<path d="M251.8 142.46C251.8 142.46 251.49 141.92 250.8 140.98C249.721 139.635 248.381 138.522 246.86 137.71C244.464 136.396 241.694 135.931 239 136.39C237.24 136.737 235.575 137.457 234.117 138.503C232.66 139.548 231.443 140.894 230.55 142.45C229.486 144.263 228.988 146.352 229.12 148.45C229.185 149.52 229.53 150.555 230.12 151.45C230.762 152.376 231.695 153.063 232.77 153.4C233.317 153.567 233.895 153.607 234.46 153.517C235.025 153.427 235.562 153.209 236.03 152.88C237.017 152.193 237.717 151.168 238 150C238.263 148.789 238.1 147.525 237.54 146.42C236.988 145.263 236.148 144.268 235.1 143.53C232.859 142.03 230.137 141.423 227.47 141.83C224.68 142.222 222.027 143.285 219.74 144.93C214.96 148.14 211.19 153.02 205.88 156.3C203.266 157.956 200.27 158.91 197.18 159.07C194.179 159.229 191.184 158.66 188.45 157.41C185.788 156.224 183.53 154.289 181.95 151.84C181.211 150.661 180.72 149.343 180.509 147.967C180.297 146.591 180.369 145.187 180.72 143.84C181.024 142.53 181.663 141.321 182.574 140.332C183.486 139.344 184.639 138.609 185.92 138.2C187.138 137.862 188.422 137.844 189.649 138.149C190.875 138.454 192.002 139.071 192.92 139.94C193.772 140.817 194.316 141.947 194.47 143.16C194.581 144.316 194.388 145.481 193.91 146.54C193.016 148.528 191.416 150.113 189.42 150.99C187.595 151.701 185.61 151.898 183.68 151.56C181.976 151.268 180.325 150.725 178.78 149.95C176.357 148.655 174.058 147.142 171.91 145.43C170.12 144.07 168.69 143.06 167.69 142.43C167.19 142.12 166.8 141.88 166.53 141.73L166.14 141.49C166.14 141.49 166.29 141.55 166.56 141.69C166.83 141.83 167.23 142.04 167.74 142.35C168.74 142.95 170.22 143.93 172.03 145.26C174.182 146.943 176.485 148.423 178.91 149.68C180.432 150.431 182.056 150.953 183.73 151.23C185.595 151.548 187.511 151.347 189.27 150.65C191.172 149.804 192.694 148.282 193.54 146.38C193.984 145.386 194.16 144.293 194.05 143.21C193.917 142.08 193.415 141.025 192.62 140.21C191.752 139.396 190.688 138.82 189.532 138.538C188.375 138.256 187.166 138.277 186.02 138.6C184.82 138.995 183.742 139.693 182.89 140.627C182.039 141.561 181.443 142.698 181.16 143.93C180.82 145.22 180.751 146.567 180.958 147.886C181.164 149.204 181.642 150.465 182.36 151.59C183.886 153.955 186.073 155.819 188.65 156.95C191.305 158.166 194.214 158.722 197.13 158.57C200.134 158.405 203.046 157.476 205.59 155.87C210.79 152.66 214.59 147.79 219.44 144.52C221.805 142.821 224.553 141.732 227.44 141.35C230.238 140.92 233.096 141.563 235.44 143.15C236.537 143.935 237.418 144.984 238 146.2C238.601 147.404 238.767 148.778 238.47 150.09C238.166 151.364 237.409 152.484 236.34 153.24C235.815 153.602 235.215 153.841 234.584 153.938C233.954 154.035 233.31 153.988 232.7 153.8C231.539 153.429 230.533 152.683 229.84 151.68C229.187 150.715 228.804 149.593 228.73 148.43C228.609 146.272 229.135 144.127 230.24 142.27C231.166 140.676 232.423 139.3 233.928 138.235C235.433 137.17 237.149 136.442 238.96 136.1C241.198 135.756 243.488 136.023 245.587 136.871C247.687 137.719 249.519 139.118 250.89 140.92C251.244 141.402 251.548 141.918 251.8 142.46Z" fill="white"/>
<path d="M272.35 140.71C272.292 141 272.184 141.278 272.03 141.53C271.678 142.257 271.248 142.944 270.75 143.58C270.011 144.527 269.142 145.365 268.17 146.07C266.977 146.933 265.68 147.642 264.31 148.18C261.813 149.159 259.108 149.486 256.45 149.13C255.653 149.017 254.867 148.837 254.1 148.59C253.812 148.522 253.537 148.404 253.29 148.24C253.29 148.15 254.5 148.57 256.49 148.76C259.082 149.008 261.696 148.641 264.12 147.69C266.562 146.789 268.74 145.294 270.46 143.34C271.75 141.82 272.26 140.66 272.35 140.71Z" fill="white"/>
<path d="M281.73 147C281.73 147 281.4 146.84 280.8 146.68C279.94 146.476 279.041 146.497 278.19 146.74C276.939 147.153 275.774 147.79 274.75 148.62C273.55 149.52 272.25 150.56 270.95 151.71C268.729 153.684 266.66 155.824 264.76 158.11C263.29 159.86 262.47 161.01 262.4 160.97C262.526 160.657 262.691 160.361 262.89 160.09C263.24 159.56 263.77 158.79 264.47 157.88C267.312 154.193 270.682 150.945 274.47 148.24C275.546 147.388 276.78 146.76 278.1 146.39C279.011 146.158 279.969 146.193 280.86 146.49C281.19 146.58 281.491 146.756 281.73 147Z" fill="white"/>
<path d="M241.83 127.42C241.442 127.88 240.957 128.249 240.41 128.5C237.862 129.925 234.876 130.353 232.03 129.7C231.437 129.61 230.87 129.392 230.37 129.06C232.306 129.461 234.292 129.566 236.26 129.37C238.206 129.01 240.085 128.352 241.83 127.42Z" fill="white"/>
<path d="M155.59 162.2C155.62 160.728 155.563 159.255 155.42 157.79C154.973 154.273 153.592 150.941 151.42 148.14C150.217 146.62 148.811 145.274 147.24 144.14C145.946 143.217 144.533 142.474 143.04 141.93C141.642 141.476 140.216 141.115 138.77 140.85C139.169 140.801 139.571 140.801 139.97 140.85C141.055 140.966 142.124 141.198 143.16 141.54C144.709 142.046 146.174 142.777 147.51 143.71C149.144 144.856 150.6 146.237 151.83 147.81C154.084 150.67 155.472 154.116 155.83 157.74C155.935 158.827 155.935 159.922 155.83 161.01C155.806 161.416 155.725 161.816 155.59 162.2Z" fill="white"/>
<g opacity="0.3">
<path opacity="0.3" d="M165.77 157.16C164.986 156.567 164.054 156.2 163.076 156.097C162.098 155.995 161.11 156.162 160.22 156.58C159.47 156.94 158.81 157.48 158.04 157.81C157.669 158.003 157.253 158.092 156.836 158.068C156.418 158.043 156.016 157.905 155.67 157.67C155.1 157.2 154.95 156.4 154.51 155.81C153.7 154.72 152.11 154.55 150.77 154.81C149.467 155.185 148.125 155.403 146.77 155.46C145.445 155.212 144.146 154.84 142.89 154.35C141.427 153.983 139.891 154.038 138.458 154.506C137.025 154.975 135.753 155.84 134.79 157L132.37 164.16L167.73 162.41C167.917 161.439 167.833 160.436 167.488 159.509C167.142 158.583 166.548 157.77 165.77 157.16Z" fill="black"/>
</g>
<path d="M177.63 161.77C177.54 161.77 177.23 160.84 176.26 159.58C175.023 157.927 173.264 156.738 171.269 156.207C169.273 155.675 167.156 155.831 165.26 156.65C163.8 157.26 163.04 157.95 162.99 157.87C162.94 157.79 163.13 157.66 163.48 157.36C163.978 156.944 164.525 156.591 165.11 156.31C167.067 155.34 169.309 155.115 171.419 155.676C173.53 156.237 175.364 157.547 176.58 159.36C176.951 159.893 177.253 160.471 177.48 161.08C177.576 161.297 177.627 161.532 177.63 161.77Z" fill="white"/>
<g opacity="0.3">
<path opacity="0.3" d="M261.37 158.15C258.979 157.67 256.743 156.609 254.86 155.06C253.08 153.41 252.08 150.7 253.05 148.47C251.44 152.158 248.799 155.302 245.444 157.525C242.089 159.748 238.164 160.954 234.14 161L268.27 160.44C266.072 159.399 263.755 158.63 261.37 158.15Z" fill="black"/>
</g>
<path d="M91.3503 161.68C91.3503 161.68 88.6603 322.47 110.87 430.68L387.6 429.81L315.16 160.4L91.3503 161.68Z" fill="#E0E0E0"/>
<path d="M91.3502 161.68L315.16 160.18H315.33V160.34C336 237 360.91 329.59 387.85 429.7L387.94 430.02H387.6L365.6 430.09L110.87 430.86H110.68V430.68C109.76 425.706 108.847 420.79 107.94 415.93C107.5 413.49 107 411.08 106.63 408.66C106.26 406.24 105.89 403.84 105.52 401.45C104.8 396.663 104.084 391.933 103.37 387.26C102.777 382.593 102.194 377.96 101.62 373.36C101.33 371.08 101.04 368.8 100.76 366.55C100.48 364.3 100.28 362.04 100.04 359.8C99.5735 355.34 99.1136 350.936 98.6602 346.59C98.1702 342.24 97.8702 337.95 97.4902 333.72C97.1102 329.49 96.7702 325.33 96.4202 321.23C93.8802 288.43 92.7102 259.73 92.0102 236.09C91.3102 212.45 91.2202 193.84 91.2202 181.15C91.2202 174.8 91.2202 169.94 91.2902 166.66C91.2902 165.02 91.2902 163.78 91.2902 162.94C91.2902 162.1 91.2902 161.8 91.2902 161.68C91.2902 162.17 91.2902 168.52 91.2902 181.15C91.2902 193.78 91.5102 212.44 92.2102 236.08C92.9102 259.72 94.1502 288.41 96.7302 321.2C97.0836 325.3 97.4435 329.463 97.8102 333.69C98.1902 337.91 98.4902 342.21 98.9802 346.55C99.4702 350.89 99.9002 355.29 100.37 359.76C100.61 361.99 100.82 364.24 101.1 366.5C101.38 368.76 101.67 371.03 101.96 373.31C102.54 377.876 103.13 382.506 103.73 387.2C104.444 391.866 105.16 396.593 105.88 401.38C106.254 403.766 106.624 406.17 106.99 408.59C107.37 411 107.87 413.41 108.31 415.85C109.21 420.71 110.124 425.623 111.05 430.59L110.83 430.4L365.56 429.57L387.56 429.5L387.31 429.83C360.44 329.72 335.57 237.15 315 160.45L315.2 160.61L91.3502 161.68Z" fill="#263238"/>
<path d="M91.3501 161.68C91.3501 161.68 91.1201 182.88 94.7001 220.6C97.0801 245.6 96.8102 278.36 103.43 320.14C117.43 408.41 124.79 421.9 124.79 421.9L394.73 420.12L322.85 157.74L91.3501 161.68Z" fill="#EBEBEB"/>
<path d="M91.3501 161.68L322.85 157.52H323V157.68C343.59 232.78 368.3 322.93 394.92 420.05L395.01 420.38H394.67L379.96 420.48L124.73 422.13H124.58V422.01C123.594 419.736 122.765 417.397 122.1 415.01C121.38 412.67 120.74 410.33 120.1 408.01C119.46 405.69 118.9 403.35 118.36 401.01C117.82 398.67 117.27 396.38 116.75 394.08C114.71 384.86 112.877 375.83 111.25 366.99C107.94 349.32 105.16 332.49 102.69 316.65C101.48 308.73 100.52 301.02 99.6901 293.57C98.8601 286.12 98.3501 279 97.8601 272C96.8601 258.16 96.3101 245.42 95.5901 233.93C95.2501 228.18 94.7901 222.75 94.3201 217.64C93.8501 212.53 93.4601 207.74 93.1201 203.28C92.4601 194.35 92.0301 186.75 91.7601 180.58C91.4901 174.41 91.3901 169.67 91.3501 166.48C91.3501 164.89 91.3501 163.68 91.3501 162.87C91.3501 162.06 91.3501 161.64 91.3501 161.64C91.3501 161.88 91.3501 163.34 91.4201 166.48C91.4901 169.62 91.6201 174.4 91.9001 180.57C92.1801 186.74 92.6401 194.34 93.3301 203.26C93.6701 207.72 94.0768 212.507 94.5501 217.62C95.0401 222.73 95.5501 228.16 95.8601 233.91C96.6001 245.41 97.1601 258.14 98.1801 271.98C98.6801 278.9 99.3268 286.087 100.12 293.54C100.9 300.98 101.87 308.68 103.12 316.6C105.6 332.43 108.39 349.25 111.71 366.91C113.35 375.75 115.193 384.773 117.24 393.98C117.76 396.28 118.24 398.6 118.85 400.91C119.46 403.22 119.98 405.55 120.59 407.91C121.2 410.27 121.85 412.58 122.59 414.91C123.257 417.251 124.075 419.546 125.04 421.78L124.84 421.67L380 420L394.71 419.9L394.46 420.23C367.89 323.06 343.2 232.9 322.65 157.8L322.86 157.96L91.3501 161.68Z" fill="#263238"/>
<path d="M347.28 170.2L91.5703 174.56C90.4903 243.91 114.9 352.15 132.81 409.09L401.16 406.28C373.69 333.32 342.09 250.37 347.28 170.2Z" fill="#F5F5F5"/>
<path d="M347.28 170.2C347.28 170.43 347.28 171.77 347.14 174.65C347.087 176.13 347.027 177.96 346.96 180.14C346.96 182.31 346.72 184.85 346.83 187.7C346.97 193.41 346.92 200.45 347.62 208.7C347.76 210.77 347.91 212.91 348.05 215.13C348.19 217.35 348.55 219.62 348.8 221.98C349.05 224.34 349.34 226.78 349.62 229.28C349.9 231.78 350.36 234.34 350.74 236.98C351.12 239.62 351.56 242.33 351.98 245.1C352.4 247.87 352.98 250.69 353.57 253.59C354.16 256.49 354.63 259.45 355.31 262.46C355.99 265.47 356.67 268.54 357.38 271.68C357.74 273.25 358.07 274.84 358.46 276.43L359.68 281.25C360.507 284.49 361.35 287.793 362.21 291.16C363.21 294.5 364.11 297.9 365.09 301.37C365.58 303.09 366.09 304.85 366.58 306.6C367.07 308.35 367.65 310.11 368.2 311.89C376.74 340.39 388.41 371.89 401.37 406.19L401.48 406.49H401.16L141.71 409.25L132.81 409.34H132.62L132.56 409.16C126.09 388.31 120.56 367.53 115.71 347.07C110.86 326.61 106.61 306.45 103.03 286.73C99.4501 267.01 96.5201 247.73 94.4301 228.97C92.2801 210.911 91.2481 192.736 91.3401 174.55V174.33H91.5601L347.28 170.2L91.5701 174.79L91.7901 174.56C91.7136 192.73 92.7555 210.888 94.9101 228.93C97.0101 247.66 99.9101 266.93 103.52 286.65C107.13 306.37 111.34 326.51 116.21 346.96C121.08 367.41 126.59 388.18 133.06 409.01L132.8 408.83L141.71 408.74L401.16 406.05L400.95 406.36C388.02 372.06 376.37 340.53 367.85 312L366.24 306.71C365.71 304.96 365.24 303.2 364.75 301.47C363.777 298.01 362.823 294.606 361.89 291.26C360.957 287.913 360.117 284.606 359.37 281.34C358.96 279.71 358.55 278.11 358.15 276.52C357.75 274.93 357.43 273.33 357.07 271.76C356.37 268.62 355.687 265.543 355.02 262.53C354.34 259.53 353.86 256.53 353.29 253.65C352.72 250.77 352.18 247.93 351.71 245.16L350.48 237C350.11 234.36 349.64 231.8 349.38 229.29C349.12 226.78 348.83 224.35 348.57 221.99C348.31 219.63 348.05 217.34 347.84 215.13C347.63 212.92 347.56 210.76 347.42 208.69C346.74 200.43 346.81 193.38 346.7 187.69C346.59 184.83 346.81 182.33 346.86 180.15C346.91 177.97 347.02 176.15 347.08 174.68C347.21 171.78 347.27 170.44 347.28 170.2Z" fill="#263238"/>
<path d="M347.74 157.32L91.3501 161.68C90.2701 231.03 101.64 294.74 119.54 351.68L193.54 397.5L408.3 393.84C380.81 320.88 342.56 237.49 347.74 157.32Z" fill="#FAFAFA"/>
<path d="M347.74 157.32C347.74 157.55 347.68 158.9 347.56 161.81C347.49 163.3 347.4 165.16 347.4 167.35C347.4 169.54 347.29 172.09 347.4 174.96C347.678 191.611 349.377 208.208 352.48 224.57C356.32 245.74 363.1 271.06 372.89 299.42C377.76 313.61 383.34 328.57 389.39 344.28C395.44 359.99 401.98 376.46 408.51 393.76L408.62 394.06H408.31L193.54 397.76H193.46H193.4L161.4 377.92L119.46 351.92H119.38V351.83C109.248 319.636 101.757 286.67 96.9804 253.26C92.7007 222.951 90.7716 192.356 91.2104 161.75V161.53H91.4304L347.83 157.39L91.3504 161.91L91.5704 161.69C91.1509 192.271 93.0933 222.838 97.3804 253.12C102.165 286.5 109.659 319.436 119.79 351.6L119.68 351.46L161.61 377.46L193.61 397.31H193.47L408.24 393.68L408.03 393.99C401.51 376.69 395.03 360.22 388.95 344.5C382.87 328.78 377.34 313.81 372.48 299.61C362.72 271.23 355.97 245.88 352.16 224.69C349.072 208.314 347.399 191.703 347.16 175.04C347.08 172.16 347.16 169.61 347.21 167.42C347.26 165.23 347.33 163.42 347.41 161.9C347.66 158.91 347.73 157.55 347.74 157.32Z" fill="#263238"/>
<path d="M119.75 351.66L184.9 344.66L193.52 397.5L119.75 351.66Z" fill="#E0E0E0"/>
<path d="M193.52 397.5C193.487 397.413 193.463 397.322 193.45 397.23L193.3 396.45L192.76 393.45C192.3 390.78 191.66 386.98 190.85 382.26C189.28 372.74 187.1 359.55 184.65 344.71L184.93 344.92L178.87 345.58L136.93 350L124.21 351.28L120.75 351.6L119.85 351.67C119.747 351.686 119.643 351.686 119.54 351.67C119.637 351.637 119.738 351.617 119.84 351.61L120.74 351.49L124.19 351.07L136.89 349.62L178.81 345.04L184.88 344.39H185.12V344.64C187.51 359.48 189.63 372.64 191.12 382.21C191.86 386.94 192.45 390.75 192.87 393.43C193.06 394.72 193.21 395.73 193.31 396.43L193.42 397.22C193.459 397.311 193.492 397.404 193.52 397.5Z" fill="#263238"/>
<path d="M299.61 229.64C299.61 229.78 265.07 230.49 222.45 231.21C179.83 231.93 145.27 232.41 145.27 232.27C145.27 232.13 179.81 231.42 222.44 230.69C265.07 229.96 299.61 229.49 299.61 229.64Z" fill="#263238"/>
<path d="M303.92 253.69C303.92 253.83 269.37 254.54 226.76 255.26C184.15 255.98 149.58 256.46 149.58 256.32C149.58 256.18 184.12 255.47 226.75 254.74C269.38 254.01 303.92 253.54 303.92 253.69Z" fill="#263238"/>
<path d="M313.58 277.65C313.58 277.79 279.04 278.5 236.42 279.22C193.8 279.94 159.25 280.42 159.24 280.28C159.23 280.14 193.78 279.43 236.41 278.7C279.04 277.97 313.58 277.5 313.58 277.65Z" fill="#263238"/>
<path d="M323.72 304.81C323.72 304.96 289.18 305.66 246.56 306.39C203.94 307.12 169.38 307.59 169.38 307.44C169.38 307.29 203.92 306.59 246.55 305.87C289.18 305.15 323.72 304.67 323.72 304.81Z" fill="#263238"/>
<path d="M335.15 330.08C335.15 330.22 300.6 330.92 257.98 331.65C215.36 332.38 180.81 332.85 180.8 332.71C180.79 332.57 215.35 331.86 257.97 331.13C300.59 330.4 335.14 329.93 335.15 330.08Z" fill="#263238"/>
<path d="M356.07 174.2C358.125 177.337 359.344 180.948 359.61 184.69C359.46 184.69 359 182.27 358.02 179.39C357.04 176.51 355.93 174.28 356.07 174.2Z" fill="#EB996E"/>
<path d="M360.47 168.06C360.63 167.99 361.19 169.3 361.47 170.96C361.753 171.954 361.858 172.99 361.78 174.02C361.349 173.07 361.072 172.057 360.96 171.02C360.721 170.047 360.557 169.058 360.47 168.06Z" fill="#EB996E"/>
<path d="M355.89 191.65C355.279 190.78 354.725 189.871 354.23 188.93C353.23 187.24 351.81 184.93 350.15 182.42C349.33 181.16 348.53 179.98 347.79 178.91C347.176 177.958 346.416 177.108 345.54 176.39C344.699 175.782 343.697 175.435 342.66 175.39C342.938 175.289 343.237 175.258 343.53 175.3C344.332 175.383 345.099 175.669 345.76 176.13C346.707 176.835 347.526 177.697 348.18 178.68C348.94 179.73 349.76 180.91 350.59 182.17C352.25 184.69 353.59 187.04 354.59 188.79C355.119 189.697 355.554 190.655 355.89 191.65Z" fill="#EB996E"/>
<path d="M344.46 176.54C344.55 176.54 344.63 177.33 345.03 178.54C345.545 180.107 346.398 181.541 347.53 182.74C348.231 183.361 348.867 184.052 349.43 184.8C349.878 185.466 350.121 186.248 350.13 187.05C350.191 187.76 350.088 188.475 349.83 189.14C349.73 189.14 349.88 188.33 349.76 187.08C349.705 186.361 349.456 185.67 349.04 185.08C348.468 184.361 347.835 183.692 347.15 183.08C345.963 181.825 345.11 180.291 344.67 178.62C344.445 177.951 344.373 177.24 344.46 176.54Z" fill="#EB996E"/>
<path d="M334.48 162.37C334.33 162.37 334.48 159.99 334.04 157.11C333.6 154.23 332.9 151.95 333.11 151.92C333.377 152.366 333.579 152.847 333.71 153.35C334.103 154.552 334.384 155.787 334.55 157.04C334.888 158.803 334.864 160.616 334.48 162.37Z" fill="#EB996E"/>
<path d="M371.14 255.968C389.832 247.481 398.105 225.448 389.618 206.756C381.131 188.065 359.098 179.792 340.406 188.279C321.714 196.766 313.442 218.798 321.928 237.49C330.415 256.182 352.448 264.455 371.14 255.968Z" fill="#241B99"/>
<path d="M354.88 209.14C355.02 217.76 355.167 226.38 355.32 235C355.37 238.21 360.37 238.22 360.32 235C360.174 226.38 360.027 217.76 359.88 209.14C359.82 205.93 354.82 205.92 354.88 209.14Z" fill="white"/>
<path d="M343.76 224.81L371.43 224.34C374.64 224.28 374.65 219.28 371.43 219.34L343.76 219.81C340.55 219.86 340.54 224.86 343.76 224.81Z" fill="white"/>
<g opacity="0.3">
<path opacity="0.3" d="M362.68 185.49C355.619 184.051 348.287 184.823 341.68 187.7C343.091 190.137 344.717 192.443 346.54 194.59C348.1 196.54 350.44 198.54 352.8 197.72C353.4 197.388 354.053 197.164 354.73 197.06C355.8 197.06 356.51 198.11 357.09 199C358.667 201.368 360.667 203.426 362.99 205.07C364.24 205.96 366.13 206.65 367.14 205.5C367.581 204.874 367.783 204.112 367.71 203.35C367.8 197.66 365.25 190.57 362.68 185.49Z" fill="black"/>
</g>
<path d="M329.88 147.76L335.83 145.96C338.223 145.297 340.737 145.193 343.176 145.656C345.616 146.119 347.917 147.136 349.9 148.63C353.17 151.08 356.65 153.87 357.78 155.39L362.91 162.3C363.476 163.042 363.861 163.905 364.035 164.822C364.208 165.738 364.166 166.683 363.91 167.58C363.835 167.971 363.626 168.324 363.32 168.58L361.51 171.22C361.51 171.22 362.04 175.22 362.07 177.77C362.1 180.32 359.61 184.67 359.61 184.67L364.46 197.94C364.697 198.545 364.748 199.206 364.608 199.84C364.467 200.474 364.141 201.052 363.67 201.5C363.549 201.643 363.4 201.759 363.232 201.843C363.064 201.926 362.881 201.974 362.694 201.985C362.507 201.995 362.32 201.967 362.144 201.903C361.968 201.838 361.807 201.739 361.67 201.61C359.75 200.07 354.67 189.25 354.67 189.25L352.67 186.93L349.9 186.24C349.9 186.24 350.39 190.24 348.6 191.03L341 184.43L335.1 174.43C335.1 174.43 335 160.78 333.49 157L329.88 147.76Z" fill="#FFBE9D"/>
<path d="M455.5 431.53C455.5 431.67 357.34 432.02 236.28 432.3C115.22 432.58 17 432.69 17 432.54C17 432.39 115.14 432.06 236.25 431.78C357.36 431.5 455.5 431.39 455.5 431.53Z" fill="#263238"/>
<path d="M426.52 410.12C426.44 410.05 427.71 408.69 429.32 406.18C430.263 404.712 431.092 403.174 431.8 401.58C432.65 399.619 433.339 397.592 433.86 395.52C434.34 393.442 434.647 391.328 434.78 389.2C434.866 387.456 434.826 385.708 434.66 383.97C434.36 380.97 433.85 379.21 433.95 379.18C434.12 379.584 434.254 380.002 434.35 380.43C434.494 380.919 434.607 381.417 434.69 381.92C434.837 382.58 434.947 383.247 435.02 383.92C435.248 385.673 435.325 387.443 435.25 389.21C435.153 391.373 434.855 393.522 434.36 395.63C433.841 397.733 433.131 399.785 432.24 401.76C431.502 403.367 430.629 404.91 429.63 406.37C429.23 407.01 428.79 407.53 428.43 408.01C428.119 408.418 427.785 408.809 427.43 409.18C427.155 409.519 426.851 409.834 426.52 410.12Z" fill="#263238"/>
<path d="M411.14 415.83C411.07 415.76 412.32 414.62 414.14 412.58C416.446 409.92 418.44 407.004 420.08 403.89C421.698 400.762 422.956 397.461 423.83 394.05C424.49 391.42 424.71 389.75 424.83 389.77C424.848 390.165 424.821 390.561 424.75 390.95C424.631 392.019 424.451 393.081 424.21 394.13C423.444 397.609 422.22 400.972 420.57 404.13C418.915 407.285 416.854 410.21 414.44 412.83C413.716 413.626 412.948 414.38 412.14 415.09C411.832 415.369 411.497 415.617 411.14 415.83Z" fill="#263238"/>
<path d="M149.06 159.22C148.924 158.952 148.729 158.719 148.49 158.537C148.251 158.356 147.974 158.23 147.68 158.17C146.99 158.04 146.279 158.076 145.606 158.276C144.933 158.476 144.317 158.834 143.81 159.32C142.818 160.308 141.991 161.449 141.36 162.7L148.68 162.64C148.57 161.48 149.52 160.3 149.06 159.22Z" fill="#FFBE9D"/>
<path d="M101.42 163.55C101.42 163.55 104.42 159.2 106.15 158.26C107.88 157.32 110.15 157.26 111.23 158.17L112.23 159.07C112.23 159.07 117.53 156.5 120.17 158.28C120.17 158.28 125.17 155.72 127.72 158.41C127.72 158.41 131.59 155.74 133.32 157.92C135.05 160.1 134.98 163.92 134.23 165.86C133.48 167.8 132.17 174.49 131 174.64C131 174.64 127.87 175.06 127.4 173.38C126.93 171.7 126.73 170.88 126.73 170.88C126.73 170.88 125.73 176.88 124.27 177.26C122.81 177.64 120.07 177.52 119.9 174.89C119.9 174.89 118.62 176.89 117.3 176.37C115.98 175.85 114.3 174.92 114.42 173.29C114.54 171.66 114.49 170.02 114.49 170.02C114.49 170.02 113.84 172.42 112.64 171.94C111.44 171.46 110.26 171.6 109.53 169.61C108.8 167.62 107 163.7 107 163.7L101.42 163.55Z" fill="#FFBE9D"/>
<path d="M114.44 169.9C114.37 169.9 114.66 169.24 114.9 168.19C115.236 166.823 115.257 165.398 114.961 164.023C114.665 162.647 114.059 161.357 113.19 160.25C112.54 159.39 112.01 158.95 112.07 158.88C112.626 159.139 113.11 159.53 113.48 160.02C114.472 161.121 115.162 162.462 115.48 163.91C115.785 165.361 115.713 166.865 115.27 168.28C115.131 168.88 114.846 169.436 114.44 169.9Z" fill="#EB996E"/>
<path d="M120.55 158.3C120.92 159.041 121.176 159.833 121.31 160.65C122.173 164.554 122.014 168.615 120.85 172.44C120.66 173.24 120.346 174.006 119.92 174.71C120.655 172.043 121.124 169.309 121.32 166.55C121.329 163.781 121.071 161.019 120.55 158.3Z" fill="#EB996E"/>
<path d="M127.9 158.49C128.34 160.574 128.428 162.717 128.16 164.83C128.062 166.959 127.612 169.057 126.83 171.04C126.67 171.04 127.35 168.25 127.64 164.79C127.93 161.33 127.74 158.5 127.9 158.49Z" fill="#EB996E"/>
</g>
<defs>
<clipPath id="clip0">
<rect width="455.5" height="432.61" fill="white"/>
</clipPath>
</defs>
</svg>
